<svg width="326" height="272" viewBox="0 0 326 272" fill="none" xmlns="http://www.w3.org/2000/svg">
<path d="M70.6454 27.8456C70.6454 31.5418 66.0791 31.3224 66.0791 31.3224H61.5129V24.6436H66.0791C70.7783 24.6118 70.6454 27.8456 70.6454 27.8456ZM61.5129 14.4578H64.9924C68.6055 14.6501 68.4691 17.3598 68.4691 17.3598C68.4691 20.7272 64.4739 20.7821 64.4739 20.7821H61.5129V14.4578ZM69.8007 22.0955C69.8007 22.0955 72.9262 20.7539 72.8983 17.1956C72.8983 17.1956 73.3737 11.3639 65.7033 10.6526H57.192V35.1001H66.948C66.948 35.1001 75.0996 35.1246 75.0996 28.2022C75.0994 28.2022 75.2922 23.4913 69.8007 22.0955ZM47.7738 5.8623H83.608V39.8768H47.7738V5.8623ZM29.3229 27.8456C29.3229 31.5418 24.7566 31.3224 24.7566 31.3224H20.1901V24.6436H24.7566C29.4562 24.6118 29.3229 27.8456 29.3229 27.8456ZM20.1901 14.4578H23.6703C27.2835 14.6501 27.1468 17.3598 27.1468 17.3598C27.1468 20.7272 23.1518 20.7821 23.1518 20.7821H20.1901V14.4578ZM28.4786 22.0955C28.4786 22.0955 31.6045 20.7539 31.5765 17.1956C31.5765 17.1956 32.0514 11.3639 24.381 10.6526H15.8694V35.1001H25.626C25.626 35.1001 33.7774 35.1246 33.7774 28.2022C33.7774 28.2022 33.9695 23.4913 28.4786 22.0955ZM6.45166 5.8623H42.2859V39.8768H6.45166V5.8623ZM117.62 12.4053V16.922C117.62 16.922 113.243 14.2127 108.407 14.1581C108.407 14.1581 99.3834 13.9797 98.9767 22.8708C98.9767 22.8708 98.6507 31.0474 108.298 31.5134C108.298 31.5134 112.346 32.0044 117.837 28.4771V33.1548C117.837 33.1548 110.471 37.5632 101.938 34.1678C101.938 34.1678 94.7645 31.5292 94.4913 22.8708C94.4913 22.8708 94.193 13.9655 103.76 11.0094C103.76 11.0094 106.315 10.0242 110.906 10.4621C110.906 10.4619 113.65 10.7354 117.62 12.4053ZM89.096 39.8768H124.93V5.8623H89.096V39.8768Z" fill="#8B8B8B"/>
<path d="M156.323 38.0437V34.5736H158.866C160.415 34.5736 161.274 34.1032 161.274 31.2857V13.0152C161.274 11.0046 160.731 10.3901 158.368 10.3901H156.323V6.91653H186.303V19.3098H182.936C182.258 12.9264 181.713 10.3912 175.629 10.3912H167.629V20.1606H170.036C172.767 20.1606 173.99 18.7472 173.99 14.9439V14.3306H177.356V30.0129H173.989V28.8923C173.989 25.0879 172.767 23.6307 170.036 23.6307H167.629V34.5748H176.715C180.897 34.5748 182.526 31.8909 182.934 24.9023H186.303V38.0437H156.323ZM188.609 38.0437V34.5736H191.559C192.847 34.5736 193.728 34.1032 193.728 32.5031V12.4111C193.728 11.0046 193.123 10.3936 191.284 10.3936H188.61V6.91653H205.487V10.3912H202.904C200.881 10.3912 200.183 10.8639 200.183 12.5067V34.6186H207.702C212.453 34.6186 213.604 31.9428 214.026 24.6625H217.435V38.0437H188.609ZM226.66 38.0414V34.5736H229.597C230.658 34.5736 231.572 34.2001 231.572 32.9734V11.9833C231.572 10.7636 230.658 10.3901 229.597 10.3901H226.66V6.91653H244.655C251.543 6.91653 255.487 10.1618 255.487 15.4604C255.487 21.2385 251.359 23.9592 245.205 23.9592H238.004V32.9746C238.004 34.2012 239.149 34.5748 240.202 34.5748H243.139V38.0437H226.66V38.0414ZM238.003 20.4834H242.177C246.494 20.4834 248.79 19.1242 248.79 15.5146C248.79 11.8957 246.952 10.3924 242.176 10.3924H238.002V20.4834H238.003ZM249.721 38.0437H263.85V34.5736H260.322C259.457 34.5736 258.869 34.3799 258.869 33.7297C258.869 33.3043 258.961 33.0196 259.049 32.744L260.538 28.0415H270.815L272.31 32.744C272.4 33.0196 272.49 33.4461 272.49 33.8727C272.49 34.3361 272.129 34.5748 271.091 34.5748H267.51V38.0437H298.15V34.5736H295.525C293.991 34.5736 293.305 33.7758 293.305 32.2725V12.6416C293.305 10.8628 294.712 10.3901 296.157 10.3901H298.15V6.91653H282.129V10.3912H284.664C286.432 10.3912 286.97 11.3251 286.97 12.5067V32.8858C286.97 34.1044 286.25 34.5748 284.39 34.5748H283.262C280.864 34.5748 279.328 34.2474 278.508 32.0339L269.462 6.91653H263.12L254.476 32.0339C253.708 34.2474 252.121 34.5748 249.723 34.5748L249.721 38.0437ZM269.508 24.5737H261.856L265.483 13.2538H265.564L269.507 24.5737H269.508ZM321.566 6.72054H324.165V18.7045H320.941C319.869 13.5166 317.046 9.80905 311.713 9.80905C307.541 9.80905 305.836 10.9527 305.836 14.0942C305.836 21.2258 325.824 15.9042 325.824 29.1655C325.824 36.7283 320.267 39.1966 313.99 39.1966C310.631 39.1966 307.272 37.6748 304.673 35.4417L303.691 38.2432H300.638V25.3588H303.958C304.583 31.733 308.256 35.1535 314.621 35.1535C318.56 35.1535 320.444 33.1994 320.444 30.9214C320.444 22.7902 300.457 28.9223 300.457 15.3255C300.457 8.61815 306.146 5.76367 311.574 5.76367C314.978 5.76367 317.845 7.42725 320.088 9.09313L321.566 6.72054Z" fill="#8B8B8B"/>
<path d="M298.152 0V3.45858H282.009L298.152 0Z" fill="#8B8B8B"/>
<path d="M19.298 79.973H22.2122C23.9869 79.7122 25.7994 79.9415 27.4526 80.6358C29.5268 81.8802 31.0312 83.8837 31.645 86.2187C32.0796 87.4424 32.0796 87.4424 33.1277 87.009H33.9457V77.3217H6.51634V79.0297H7.64112C8.1299 79.0263 8.61323 79.1322 9.0556 79.3396C9.49797 79.5469 9.88814 79.8504 10.1974 80.2279C11.2455 81.9104 11.4245 83.7969 11.4245 93.6117C11.4245 104.038 11.1944 106.588 10.1974 107.888C9.95132 108.222 9.63267 108.497 9.26527 108.691C8.89787 108.885 8.49123 108.994 8.07569 109.009C6.51634 109.29 6.51634 109.264 6.51634 109.953C6.4301 110.183 6.4301 110.436 6.51634 110.667H23.8227C23.9372 110.441 23.9969 110.192 23.9969 109.94C23.9969 109.688 23.9372 109.439 23.8227 109.213C23.4035 109.097 22.9763 109.012 22.5445 108.958C22.0774 108.903 21.6157 108.809 21.1641 108.678C20.5174 108.207 20.0051 107.576 19.6778 106.847C19.3505 106.119 19.2196 105.317 19.298 104.523C19.0423 102.84 18.9145 99.7555 18.9145 97.2062V95.1923H19.937C21.211 95.1534 22.4842 95.2907 23.7204 95.6002C24.3126 95.9651 24.8167 96.456 25.1968 97.0377C25.5768 97.6194 25.8234 98.2775 25.9188 98.9652L26.1489 99.7555H27.7083V88.4621H26.2767L26.0467 89.5583C25.9499 90.2616 25.689 90.9324 25.285 91.5168C24.8809 92.1013 24.3451 92.583 23.7204 92.9234C23.1155 93.1029 22.4781 93.1465 21.8543 93.0509H18.9145V90.2976C18.9145 87.4424 19.0679 81.4261 19.1701 80.4828L19.298 79.973ZM138.934 100.189C137.726 98.2494 135.841 96.8239 133.642 96.1865C131.957 95.6611 130.399 94.7931 129.067 93.6372C128.767 93.348 128.543 92.9901 128.413 92.5946C128.284 92.1991 128.254 91.7781 128.325 91.3683C128.327 90.5645 128.649 89.7943 129.22 89.2269C129.607 88.8228 130.097 88.531 130.637 88.3828C131.177 88.2347 131.748 88.2356 132.288 88.3857C133.405 88.7033 134.416 89.3164 135.212 90.1602C136.009 91.0039 136.562 92.0468 136.812 93.1783C137.221 94.3255 137.272 94.3255 138.014 94.0196L138.474 93.8412V87.4934L138.142 87.3404C135.625 86.459 132.955 86.0947 130.294 86.2697C128.002 86.3276 125.814 87.2368 124.158 88.819C123.408 89.5198 122.82 90.3757 122.436 91.3269C122.051 92.2781 121.88 93.3015 121.934 94.3255C121.949 95.8911 122.572 97.39 123.673 98.5064C124.889 99.6994 126.382 100.575 128.019 101.056C131.981 102.611 133.131 103.605 133.131 105.415C133.148 106.178 132.904 106.925 132.44 107.531C131.975 108.138 131.318 108.57 130.575 108.755C129.682 108.95 128.758 108.95 127.865 108.755C126.696 108.302 125.653 107.578 124.822 106.643C123.99 105.707 123.395 104.587 123.085 103.376L122.752 102.56H122.292C122.072 102.576 121.857 102.628 121.653 102.713H121.398V109.953H121.832C123.559 110.526 125.341 110.919 127.149 111.125H129.706C130.814 111.207 131.929 111.103 133.003 110.819C134.368 110.568 135.642 109.966 136.701 109.071C137.759 108.177 138.564 107.022 139.036 105.721C139.341 104.994 139.498 104.214 139.496 103.427C139.597 102.317 139.403 101.2 138.934 100.189ZM114.853 87.009C113.322 86.3677 111.671 86.0565 110.01 86.0961C108.349 86.1356 106.715 86.5249 105.216 87.2385C103.807 87.926 102.558 88.9006 101.549 90.0993C100.541 91.2981 99.7958 92.6944 99.3621 94.1981C98.8092 95.8384 98.5749 97.5688 98.6719 99.2967C98.6536 100.237 98.7307 101.176 98.9019 102.101C99.3148 104.374 100.415 106.467 102.056 108.099C103.696 109.73 105.798 110.822 108.079 111.227C109.564 111.414 111.067 111.414 112.553 111.227C114.094 110.956 115.569 110.394 116.898 109.57C117.998 108.956 118.929 108.08 119.608 107.021C119.565 106.855 119.488 106.699 119.382 106.563C119.277 106.428 119.145 106.314 118.995 106.231C118.703 106.336 118.428 106.482 118.177 106.664C116.905 107.5 115.404 107.919 113.882 107.862C112.872 107.93 111.859 107.774 110.918 107.403C109.976 107.033 109.129 106.458 108.437 105.721C107.902 105.225 107.461 104.638 107.133 103.987C106.339 102.403 105.911 100.66 105.881 98.8888V97.8945H120.043V97.3847C120.074 96.8753 120.074 96.3645 120.043 95.8551C120.038 94.055 119.555 92.2884 118.643 90.7347C117.732 89.181 116.424 87.8956 114.853 87.009ZM107.721 95.8296H105.932V94.3255C106.52 90.4761 107.977 88.1817 109.766 88.1817C111.556 88.1817 112.323 90.4506 112.655 94.6059V95.7786H111.121L107.721 95.8296ZM70.9613 86.1678C70.078 86.1336 69.1999 86.3175 68.405 86.7031C66.6772 87.5399 65.2817 88.9315 64.4427 90.6545L64.1104 91.2664V86.1678H63.9825C63.6758 86.1678 54.2174 88.0542 53.9106 88.1817C53.6039 88.3092 53.7061 88.3347 53.7061 88.7935C53.7061 89.2524 53.7061 89.3289 53.9106 89.3544L54.9076 89.5583C55.1868 89.5652 55.4608 89.6353 55.7088 89.7634C55.9569 89.8915 56.1724 90.0742 56.3391 90.2976C56.9782 91.1389 57.106 92.6175 57.106 98.9143C57.2323 101.749 57.1126 104.589 56.7481 107.403C56.6624 107.828 56.4466 108.215 56.1306 108.512C55.8147 108.809 55.4141 109 54.9843 109.06L54.1151 109.239H53.7828V109.953C53.6901 110.19 53.6901 110.454 53.7828 110.692H68.0727V109.953C68.1222 109.709 68.1222 109.457 68.0727 109.213C67.2123 109.18 66.3567 109.069 65.5163 108.882C65.0587 108.643 64.6843 108.272 64.4425 107.817C64.2006 107.362 64.1027 106.844 64.1615 106.333C63.957 104.854 63.8547 100.52 63.9059 97.2062C63.957 93.8921 63.9059 93.6882 64.187 93.4588C65.0425 92.8047 66.101 92.4709 67.178 92.5155C68.1931 92.5376 69.1898 92.7904 70.0922 93.2548C70.405 93.428 70.7405 93.5568 71.0891 93.6372C71.0891 93.6372 73.6455 87.4679 73.6455 87.1875C73.3183 86.8084 72.9016 86.5166 72.4329 86.3386C71.9642 86.1605 71.4585 86.1018 70.9613 86.1678ZM53.7317 96.8748C53.6425 95.0531 53.118 93.279 52.202 91.7004C51.286 90.1217 50.005 88.7842 48.4656 87.7993C46.6363 86.8151 44.6011 86.2725 42.5234 86.2149C40.4456 86.1574 38.3833 86.5865 36.502 87.4679C33.8422 88.8667 31.8339 91.2444 30.9037 94.0961C29.9429 97.2889 29.9429 100.693 30.9037 103.885C31.4073 105.63 32.3487 107.218 33.639 108.5C35.2458 110.063 37.3178 111.065 39.5441 111.355C40.9731 111.474 42.4096 111.474 43.8387 111.355C44.3646 111.275 44.8853 111.164 45.3981 111.023C47.4788 110.443 49.3508 109.284 50.7949 107.681C52.239 106.078 53.1956 104.098 53.5527 101.973C53.8079 100.286 53.868 98.5756 53.7317 96.8748ZM43.0974 109.621C40.541 110.386 38.6238 107.913 37.9847 102.713C37.75 99.99 37.75 97.2522 37.9847 94.5295C38.496 90.3486 39.7997 88.2327 41.8192 88.2327C42.2266 88.2075 42.6342 88.28 43.0078 88.4441C43.3814 88.6082 43.7101 88.8592 43.9665 89.1759C45.6792 90.884 46.5228 94.2745 46.5228 99.3731C46.7355 102.259 46.2807 105.154 45.1935 107.837C44.7135 108.619 43.9707 109.206 43.0974 109.494V109.621ZM89.1112 86.6776C88.3899 86.5851 87.6597 86.5851 86.9383 86.6776C85.5537 86.6764 84.185 86.972 82.9249 87.5444L82.1325 87.8758V82.3438C82.271 80.4769 82.271 78.6023 82.1325 76.7354C81.8257 76.7354 72.0605 78.5963 71.9072 78.6728C71.8318 78.861 71.8318 79.0709 71.9072 79.2592C71.9072 79.7945 71.9072 79.769 73.0575 80.0239C73.3805 80.0962 73.6907 80.2165 73.9778 80.3809C74.4768 80.8488 74.8089 81.4664 74.9236 82.1399C75.2147 84.0799 75.3089 86.0443 75.2048 88.0033V110.386L75.895 110.539C76.9175 110.769 79.8062 111.253 80.752 111.355C82.6407 111.505 84.5384 111.505 86.4271 111.355C88.5235 111.141 90.5217 110.361 92.2064 109.099C93.8911 107.837 95.1985 106.14 95.9877 104.191C96.4582 102.941 96.7841 101.641 96.9591 100.316C97.1113 98.5226 97.0513 96.7171 96.7802 94.9374C96.506 92.9423 95.623 91.0797 94.2511 89.6021C92.8792 88.1245 91.0848 87.1035 89.1112 86.6776ZM82.4137 109.188C82.4137 108.857 82.158 97.6906 82.2092 93.2293V89.7368L82.9505 89.5583C83.4507 89.4869 83.9585 89.4869 84.4587 89.5583C85.0119 89.5022 85.5683 89.6275 86.0436 89.9152C86.9983 90.5723 87.791 91.4367 88.3622 92.4435C88.9334 93.4503 89.2682 94.5732 89.3413 95.7276C89.5275 97.584 89.5275 99.4542 89.3413 101.311C89.1883 104.009 88.1458 106.581 86.376 108.627C85.8736 109.103 85.2427 109.422 84.561 109.545C84.0451 109.634 83.5175 109.634 83.0016 109.545C82.5159 109.545 82.5159 109.392 82.5159 109.188H82.4137Z" fill="#8B8B8B"/>
<path fill-rule="evenodd" clip-rule="evenodd" d="M20.5709 160.87C20.4265 160.186 19.2611 158.616 17.955 158.616C17.6624 158.616 17.4697 158.666 17.277 158.717C18.5359 159.207 19.5043 160.476 19.7969 161.361L20.5221 160.92V160.87H20.5709ZM28.8056 190.62L24.1003 187.434C23.5343 187.051 22.8761 186.327 22.8761 184.976V173.439L22.4051 173.73L22.2179 173.826V185.312C22.2179 186.278 22.7339 187.291 23.4382 187.773L28.1941 191.006L28.8056 190.62ZM8.48019 179.047C8.57242 177.09 8.15849 174.703 7.74126 172.41C7.32404 170.071 6.95128 167.683 6.99849 165.586C7.0457 164.298 7.27737 163.057 7.78628 161.91C6.90681 163.294 6.35234 164.868 6.30458 166.54C6.16624 170.598 8.06461 175.894 7.87796 180.003C7.83973 180.56 7.79416 181.117 7.74126 181.674L7.83239 181.577C8.20405 181.051 8.43517 180.241 8.48019 179.047ZM15.0811 190.551C14.3751 189.129 12.6832 188.261 10.7058 188.261C10.5158 188.305 10.3275 188.305 10.1403 188.305C12.0705 188.627 13.7164 189.679 14.3296 191.006L15.0811 190.55V190.551ZM32.0995 173.576L30.4526 171.792L30.5025 172.98L31.3716 173.988L32.0995 173.576ZM77.2213 163.557L73.273 161.209L73.8659 160.812L77.6649 163.059C77.5166 163.208 77.3684 163.357 77.2213 163.557ZM78.16 191.006L76.5394 189.863C75.4744 189.103 74.92 187.818 74.92 186.392V170.508C74.92 168.32 75.3838 166.798 76.1228 165.753C75.7066 166.798 75.5211 168.082 75.5211 169.558L75.5666 185.82C75.5666 187.58 76.0772 188.722 77.2811 189.578L78.7628 190.626L78.1606 191.006H78.16ZM65.0383 190.861C65.0383 190.861 64.8857 190.957 64.7847 191.006H64.3784V164.454C64.3784 163.17 64.2769 163.17 63.4638 162.598L62.2934 161.741L63.0581 161.361C63.6675 161.836 64.5832 162.503 64.5832 162.551C64.9389 162.884 65.0383 163.073 65.0383 163.835V190.908V190.861ZM45.6302 158.067C45.2251 159.127 45.2756 160.139 45.7828 160.969C46.2418 161.704 47.0526 162.212 48.0199 162.443C45.0219 162.672 43.7033 160.509 45.6302 158.067ZM52.6874 181.125C52.8822 180.368 52.9618 179.516 52.9618 178.618V164.864C52.9618 163.21 52.8822 163.023 52.4118 162.503H52.4914C53.1567 162.36 53.5097 162.503 53.5097 163.919V177.721C53.5097 179.328 53.2759 180.368 52.6874 181.125V181.125ZM53.8666 191.007C53.474 189.708 52.2877 188.609 50.2158 188.309C50.5139 188.261 50.8087 188.261 51.1063 188.261C53.6689 188.309 54.4101 189.906 54.5588 190.406L54.6077 190.554L53.8666 191.006V191.007ZM124.328 190.669L122.915 189.806C121.639 189.035 120.978 187.837 120.978 186.012V172.999C120.978 172.232 120.933 172.28 120.647 172.039C120.647 172.039 119.657 171.222 118.996 170.694L118.289 171.081L119.656 172.135C120.413 172.71 120.319 172.758 120.319 173.911V186.539C120.319 188.267 121.026 189.467 122.016 190.047L123.715 191.006L124.328 190.669ZM111.153 190.907V171.411L110.415 170.694L109.506 171.126L110.357 171.94V191.006H110.815C110.927 190.957 111.097 190.907 111.097 190.907H111.153ZM95.7812 190.669L90.2925 187.327C89.1934 186.65 88.7663 185.828 88.7663 184.376V173.439L88.2887 173.681L88.0955 173.777V184.908C88.0955 186.215 88.6675 187.181 89.6716 187.764L95.1587 191.006L95.7812 190.669ZM98.5261 184.418V173.573C98.5261 173.002 98.3449 172.81 97.931 172.574L95.7812 171.243V171.957L97.0164 172.669C97.931 173.191 97.931 173.287 97.931 174.288L97.8871 184.038L98.5261 184.418ZM141.896 164.832V164.692C141.896 163.383 141.139 162.029 139.978 161.327C139.534 161.046 139.135 160.812 139.135 160.812L138.602 161.187L138.911 161.372C140.424 162.263 141.275 163.383 141.275 165.204L141.896 164.832ZM159.463 190.62L154.745 187.434C154.186 187.051 153.531 186.327 153.531 184.976V173.439L153.063 173.73L152.875 173.826V185.165C152.875 186.421 153.344 187.291 154.137 187.822L158.807 191.006L159.463 190.62ZM139.151 191.167L134.111 187.869C132.902 187.096 132.667 186.367 132.667 184.959V174.537L132.293 174.732L132.014 174.876V185.202C132.014 186.854 132.528 187.581 133.32 188.113L138.542 191.555L139.151 191.167ZM162.208 173.576L160.561 171.792L160.61 172.98L161.48 173.988L162.208 173.576ZM142.993 184.967V169.596L141.896 170.034V184.529L142.993 184.967Z" fill="#8F98A9"/>
<path fill-rule="evenodd" clip-rule="evenodd" d="M21.7749 186.444L21.2029 185.296L19.7228 186.25C18.6243 184.91 16.8533 183.334 12.6465 183.334C8.19863 183.286 2.74561 186.822 0.259277 189.883L0.690227 190.457C4.08347 188.209 7.57663 187.208 10.6372 187.208C13.1241 187.208 15.1795 188.402 16.0392 190.17L21.7749 186.444ZM26.3688 160.243C25.5069 158.905 23.2121 156.42 18.6688 156.42C13.219 156.373 8.43908 160.627 8.24694 165.79C8.10201 169.902 10.0635 175.208 9.87082 179.319C9.77694 180.706 9.48763 181.71 8.91614 182.473L9.48763 183.144L12.8364 180.707C14.4636 179.507 15.371 178.027 15.3227 175.448C15.275 172.244 13.7916 167.32 13.7916 163.545C13.7916 160.292 15.0362 157.854 17.8574 157.854C19.7706 157.854 21.3006 159.814 21.5383 160.914C21.636 161.438 21.5383 161.678 21.0607 162.012L19.7228 162.924V164.404L26.3693 160.242L26.3688 160.243ZM38.6879 172.961L32.2802 165.885L22.2844 171.716V173.055L24.3414 171.909V185.152C24.3414 185.915 24.629 186.394 25.1061 186.73L30.4147 190.17L37.9237 185.818L37.3017 184.48L33.3798 186.584L29.8422 184.145C29.4112 183.86 29.3635 183.573 29.3635 182.951V178.648L38.6879 172.961ZM33.6664 174.013L29.3635 176.689V169.709L29.7461 169.471L33.6664 174.013ZM55.3878 190.312C54.9069 188.965 53.5153 187.573 51.0158 187.478C48.6595 187.43 45.2965 188.344 42.5121 190.457L41.9818 189.783C44.0009 187.573 48.7095 184.022 53.6564 183.972C56.253 183.972 58.0779 184.837 59.3751 186.23L61.5386 185.028L62.1634 186.278L55.3878 190.312ZM85.0311 160.873C83.1542 161.976 82.5294 163.467 82.5294 165.772V184.163C82.5294 185.318 82.6754 185.844 83.2991 186.182L83.9244 186.519L85.6537 185.507L86.2312 186.663L80.2243 190.266L78.1601 188.871C77.2438 188.247 76.8585 187.478 76.8585 185.989V169.565C76.8585 166.493 77.8225 164.858 79.1675 163.851L79.9366 163.275L74.2673 159.96L71.7206 161.495V185.412C71.7206 187.429 71.4323 187.718 69.652 188.629C69.652 188.629 68.2625 189.303 66.3438 190.311H65.9579V163.804C65.9579 162.508 65.8119 162.218 65.0911 161.642L63.0752 160.01L60.624 161.401V175.138C60.624 177.537 60.2397 179.266 58.3183 180.466L53.5147 183.492L53.0316 182.677C54.5227 181.522 54.8581 179.888 54.8581 177.968V163.946C54.8581 161.881 54.5726 161.065 52.408 161.45C51.5922 161.592 50.3427 161.785 49.5742 161.881C46.4021 162.314 45.056 160.056 47.219 157.224C47.219 157.224 47.7482 156.503 49.0927 154.772L50.1522 155.495L49.3809 156.599C48.373 158.042 49.1893 158.81 50.8247 158.232C51.5922 157.943 53.081 157.369 54.1378 156.934C58.7004 155.159 60.3836 158.088 60.624 159.817L66.2944 156.408L71.1913 160.152L77.2438 156.408L81.9058 159.05C83.4901 159.96 84.2593 159.576 85.3649 158.999L86.2784 158.52L86.9981 159.722L85.0311 160.873ZM106.695 184.059L106.265 183.013L104.594 183.867V170.983C104.594 170.32 104.357 169.795 103.688 169.413L97.5275 165.753L87.5471 171.553V172.933L89.6025 171.744V184.344C89.6025 185.484 89.8857 185.913 90.6055 186.34L96.6684 189.908L106.695 184.059ZM130.368 186.769L129.89 185.675L128.122 186.676L127.505 186.294C126.836 185.913 126.692 185.436 126.692 184.296V170.651C126.692 169.556 126.453 169.083 125.783 168.606L122.106 165.848L116.424 169.083L113.417 165.848L107.4 169.51L108.213 170.459L110.265 169.226L111.745 170.889V189.814H112.127C114.515 188.764 115.279 188.433 115.279 188.433C116.425 187.957 116.76 187.577 116.76 186.247V170.458L118.719 169.319L121.011 171.127C121.629 171.648 121.724 172.076 121.724 172.883L121.773 185.818C121.773 187.243 122.203 188.052 123.156 188.623L125.164 189.814L130.368 186.769ZM99.5796 186.057L99.2947 186.105L95.3772 183.821C94.7113 183.441 94.5647 183.013 94.5647 182.156L94.6152 169.651L94.8996 169.555L98.6733 171.744C99.4353 172.172 99.5796 172.553 99.5796 173.36V186.057ZM143.612 186.563L143.324 186.612L139.921 184.397C139.252 183.966 139.012 183.628 139.012 182.766V170.507L143.276 167.907L143.612 168.101V186.563V186.563ZM150.703 184.592L150.274 183.486L148.547 184.397V164.016C148.547 161.036 147.206 159.114 145.002 157.767L142.846 156.42L136.087 160.361L137.429 160.987L139.636 159.786L141.07 160.603C142.605 161.468 143.612 163.201 143.612 164.978V165.745L132.014 172.475V173.775L133.979 172.717V184.928C133.979 185.984 134.266 186.418 134.937 186.85L140.687 190.457L150.703 184.592ZM169.345 173.15L162.874 166.035L152.859 171.898V173.245L154.92 172.093V185.41C154.92 186.177 155.207 186.659 155.686 186.996L161.007 190.457L168.529 186.08L167.956 184.735L164.025 186.85L160.479 184.397C159.998 184.062 159.952 183.822 159.952 183.197V178.87L169.345 173.15ZM164.265 174.208L159.952 176.9V169.88L160.384 169.64L164.265 174.208Z" fill="#8B8B8B"/>
<path fill-rule="evenodd" clip-rule="evenodd" d="M169.208 76.7354H325.7V113.45H169.208V76.7354Z" fill="#8B8B8B"/>
<path fill-rule="evenodd" clip-rule="evenodd" d="M258.78 88.8349V101.246H260.232V104.228H258.78H255.714H254.262V101.246H255.714V88.8349H254.262V85.9934H260.233V88.8349H258.78ZM192.971 87.7617C192.971 87.2707 192.737 86.8291 192.35 86.5095C191.963 86.19 191.422 85.9926 190.809 85.9926H181.146V88.8341H182.58V101.245L181.146 101.243V104.228H191.044C191.897 104.228 192.378 103.945 192.647 103.489C192.915 103.031 192.971 102.401 192.971 101.705L192.965 101.703H192.971V87.7617ZM189.808 88.8349V101.246H185.645V88.8349H189.808ZM278.636 101.246H283.02V96.0712H280.139V93.4138H286.087V96.0712H286.086V104.228H283.02H277.459C276.762 104.227 276.29 104.049 275.99 103.733C275.69 103.416 275.569 102.957 275.569 102.392L275.554 87.7676H275.553C275.553 87.7508 275.554 87.7341 275.554 87.7174V87.7082H275.555C275.594 86.7856 276.512 86.0411 277.659 85.9943V85.9934H277.698C277.724 85.9926 277.75 85.9926 277.775 85.9926H283.887C285.113 85.9926 286.091 86.7889 286.091 87.7701H286.087V91.4631H283.021V88.8366H278.637V101.246H278.636ZM241.305 85.9934H251.054V85.9926C251.08 85.9926 251.106 85.9926 251.131 85.9934H251.166V85.9943C252.259 86.0377 253.144 86.7128 253.262 87.5727H253.275V87.7684V94.292V94.2937C253.275 95.2749 252.282 96.0712 251.054 96.0712H245.806V101.246H247.258V104.228H245.806H242.74H241.288V101.246H242.74V88.8349H241.305V85.9934H241.305ZM250.21 88.8349L245.805 88.8341V93.2289H250.21V88.8349ZM239.317 102.157C239.317 102.73 239.105 103.247 238.763 103.621C238.421 103.997 237.949 104.229 237.427 104.229H230.67C230.148 104.229 229.676 103.998 229.335 103.621C229.012 103.268 228.802 102.786 228.78 102.252V102.201V97.9274H231.846V101.246H236.251V96.0712H228.783V93.2916L228.78 87.5258H228.783C228.783 87.0917 229.007 86.6994 229.366 86.415C229.727 86.1306 230.225 85.9541 230.776 85.9541L230.78 85.9784V85.9541H237.323V86.0009L237.327 85.9541C237.877 85.9541 238.376 86.1298 238.737 86.415C239.097 86.7002 239.32 87.0934 239.32 87.5283L239.317 87.5292V91.3351H236.251L236.251 88.8332H231.845L231.908 93.228H239.317V102.157ZM216.319 101.246H217.771C217.771 99.52 217.771 97.7952 217.771 96.0712H213.366V101.246H214.818V104.228C212.828 104.228 210.838 104.228 208.848 104.228V101.246H210.3V88.8349H208.865V85.9934H218.614V85.9926C218.64 85.9926 218.666 85.9926 218.692 85.9934H218.726V85.9943C219.295 86.0168 219.807 86.2101 220.185 86.5129C220.588 86.8341 220.836 87.2791 220.836 87.7692V88.0829V88.2059V93.0683V93.2138H220.829C220.785 93.6463 220.548 94.0352 220.186 94.3255C219.954 94.5104 219.673 94.6551 219.357 94.7437C219.672 94.8324 219.954 94.978 220.186 95.1628C220.587 95.484 220.835 95.9265 220.836 96.4167V96.4183V101.246H222.289V104.228H216.318V101.246H216.319ZM217.771 88.8349H213.366V93.2289L217.771 93.213V88.8349ZM195.086 101.246H196.735V88.8349H195.086V85.9934H207.048L207.047 91.4288H203.998V88.8349H199.8V93.2289H205.247V96.0712H199.8V101.246H204V97.9274H207.065V104.228L195.087 104.225V101.246H195.086ZM261.733 101.246H263.382V88.8349H261.733V85.9934H273.695L273.688 91.4288H270.645V88.8349H266.447V93.2289H271.893V96.0712H266.447V101.246H270.635V97.9274H273.7L273.699 104.228L261.732 104.225V101.246H261.733ZM288.077 101.246H289.726V88.8349H288.077V85.9934H300.039L300.038 91.4397L296.988 91.4288V88.8349H292.791V93.2289H298.237V96.0712H292.791V101.246H296.99V97.9274H300.056V104.228L288.077 104.225V101.246ZM302.232 101.246H303.882V88.8349H302.232V85.9934H308.203V88.8349H306.947V101.246H311.135V97.9274H314.2V104.228L302.232 104.225V101.246Z" fill="#8B8B8B"/>
<path fill-rule="evenodd" clip-rule="evenodd" d="M256.224 88.8351V101.246H257.677V104.229H256.224H253.159H251.707V101.246H253.159V88.8351H251.707V85.9936H257.678V88.8351H256.224ZM190.416 87.7619C190.416 87.2708 190.182 86.8292 189.795 86.5097C189.408 86.1901 188.867 85.9927 188.254 85.9927H178.59V88.8342H180.025V101.245L178.591 101.243V104.228H188.489C189.341 104.228 189.822 103.945 190.092 103.489C190.36 103.032 190.416 102.401 190.416 101.705L190.409 101.703H190.416V87.7619ZM187.253 88.8351V101.246H183.09V88.8351H187.253ZM276.082 101.246H280.466V96.0714H277.583V93.4139H283.531V96.0714H283.531V104.229H280.466H274.904C274.207 104.227 273.736 104.049 273.435 103.733C273.136 103.416 273.015 102.957 273.015 102.392L272.999 87.7677H272.998C272.998 87.751 272.999 87.7343 272.999 87.7175V87.7083H272.999C273.039 86.7857 273.956 86.0412 275.105 85.9944V85.9936H275.143C275.168 85.9927 275.194 85.9927 275.219 85.9927H281.332C282.559 85.9927 283.537 86.789 283.537 87.7702H283.531V91.4633H280.467V88.8367H276.083V101.246H276.082ZM238.749 85.9936H248.499V85.9927C248.525 85.9927 248.551 85.9927 248.576 85.9936H248.61V85.9944C249.704 86.0379 250.589 86.7129 250.707 87.5728H250.721V87.7685V94.2922V94.2939C250.721 95.275 249.726 96.0714 248.499 96.0714H243.25V101.246H244.702V104.229H243.25H240.184H238.732V101.246H240.184V88.8351H238.749V85.9936ZM247.654 88.8351L243.25 88.8342V93.229H247.655V88.8351H247.654ZM236.762 102.158C236.762 102.73 236.55 103.247 236.208 103.621C235.866 103.997 235.393 104.229 234.871 104.229H228.114C227.592 104.229 227.121 103.998 226.779 103.621C226.456 103.268 226.247 102.787 226.224 102.252V102.201V97.9275H229.29V101.246H233.695V96.0714H226.227V93.2918L226.226 87.5268H226.228C226.229 87.0927 226.452 86.7004 226.811 86.416C227.173 86.1316 227.67 85.9551 228.221 85.9551L228.226 85.9793V85.9551H234.768V86.0019L234.772 85.9551C235.322 85.9551 235.82 86.1307 236.181 86.416C236.542 86.7012 236.765 87.0943 236.765 87.5293L236.762 87.5302V91.3361H233.696L233.695 88.8342H229.29L229.352 93.229H236.762V102.158ZM213.763 101.246H215.215C215.215 99.5201 215.215 97.7953 215.215 96.0714H210.81V101.246H212.262V104.229C210.273 104.229 208.283 104.229 206.292 104.229V101.246H207.744V88.8351H206.309V85.9936H216.058V85.9927C216.084 85.9927 216.11 85.9927 216.136 85.9936H216.17V85.9944C216.739 86.017 217.252 86.2102 217.63 86.513C218.032 86.8342 218.281 87.2792 218.281 87.7694V88.0831V88.206V93.0684V93.214H218.273C218.23 93.6464 217.992 94.0354 217.63 94.3256C217.399 94.5105 217.117 94.6552 216.802 94.7439C217.117 94.8325 217.399 94.9781 217.63 95.163C218.031 95.4842 218.28 95.9266 218.281 96.4168V96.4185V101.246H219.733V104.229H213.762V101.246H213.763ZM215.215 88.8351H210.81V93.229L215.215 93.2131V88.8351ZM192.531 101.246H194.18V88.8351H192.531V85.9936H204.492L204.492 91.4289H201.443V88.8351H197.245V93.229H202.692V96.0714H197.245V101.246H201.444V97.9275H204.509V104.229L192.531 104.225V101.246ZM259.178 101.246H260.827V88.8351H259.178V85.9936H271.14L271.133 91.4289H268.089V88.8351H263.892V93.229H269.338V96.0714H263.892V101.246H268.079V97.9275H271.145L271.144 104.229L259.178 104.225V101.246H259.178ZM285.522 101.246H287.171V88.8351H285.522V85.9936H297.484L297.483 91.4398L294.434 91.4289V88.8351H290.236V93.229H295.682V96.0714H290.236V101.246H294.435V97.9275H297.501V104.229L285.522 104.225V101.246ZM299.678 101.246H301.327V88.8351H299.677V85.9936H305.648V88.8351H304.392V101.246H308.58V97.9275H311.645V104.229L299.678 104.225V101.246Z" fill="#E0F5FF"/>
<path d="M29.5693 234.231C29.5693 230.753 26.2646 229.884 23.6556 229.884V230.405C25.221 230.405 26.4385 230.927 26.4385 232.144C26.4385 232.84 25.9167 233.883 24.3514 233.883C23.1339 233.883 20.5249 233.187 18.6117 232.492C16.3506 231.623 14.2634 230.927 12.5241 230.927C9.0455 230.927 6.61048 233.535 6.61048 236.491C6.61048 239.099 8.52371 239.968 9.21943 240.316L9.39336 239.968C9.0455 239.621 8.52371 239.273 8.52371 238.23C8.52371 237.534 9.21943 236.317 10.9587 236.317C12.5241 236.317 14.6113 237.013 17.3942 237.882C19.8292 238.577 22.4381 239.099 23.8296 239.273V244.663L21.2206 246.923V247.097L23.8296 249.358V256.834C22.4381 257.703 20.8728 257.877 19.4813 257.877C16.8724 257.877 14.6113 257.182 12.698 255.095L19.8292 251.618V239.621L11.1327 243.446C11.8284 241.186 13.7416 239.621 15.6549 238.577L15.4809 238.056C10.263 239.447 5.56689 244.315 5.56689 250.227C5.56689 257.182 11.3066 262.398 17.742 262.398C24.6992 262.398 29.2214 256.834 29.2214 251.096H28.8736C27.83 253.357 26.2646 255.443 24.3514 256.486V249.358L27.1343 247.097V246.923L24.3514 244.663V239.273C26.9603 239.273 29.5693 237.534 29.5693 234.231ZM14.4373 253.357L12.3502 254.4C11.1327 252.835 10.4369 250.749 10.4369 247.793C10.4369 246.576 10.4369 245.185 10.7848 244.141L14.4373 242.577V253.357ZM32.874 257.356L30.6129 259.094L30.9607 259.442L32.0043 258.573L35.8308 262.05L41.0487 258.573L40.8748 258.225L39.4833 259.094L37.744 257.356V245.532L39.1354 244.489L42.0923 246.923V257.53C42.0923 264.137 40.7008 265.18 37.744 266.223V266.745C42.6141 266.919 47.1362 265.354 47.1362 256.834V245.358L48.7016 244.141L48.3538 243.794L46.9623 244.837L42.6141 241.186L37.744 244.837V230.579H37.3961L31.3086 234.752V235.1C32.0043 235.448 33.0479 235.795 33.0479 237.708L32.874 257.356ZM64.7032 255.443L60.3549 258.747L56.0067 255.269V253.183L64.1814 247.619V247.445L60.0071 241.186L50.9627 246.054V257.53L49.2234 258.921L49.5713 259.268L51.1366 258.051L57.0503 262.398L64.8771 256.139L64.7032 255.443ZM56.0067 252.487V243.968L56.3546 243.794L60.181 249.879L56.0067 252.487ZM97.9239 232.666C97.9239 232.144 97.75 231.623 97.576 231.101H97.2282C96.7064 232.492 96.0107 233.187 94.2714 233.187C92.706 233.187 91.6624 232.318 90.9667 231.623L85.9227 237.36L86.2706 237.708L88.0099 236.143C89.0535 237.013 89.9231 237.708 92.3581 237.882V252.313L82.0962 234.752C81.2266 233.361 80.0091 231.449 77.5741 231.449C74.7912 231.449 72.3561 233.883 72.704 237.708H73.2258C73.3997 236.665 73.9215 235.448 75.139 235.448C76.0087 235.448 76.8783 236.317 77.4001 237.186V242.924C74.2694 242.924 72.1822 244.315 72.1822 246.923C72.1822 248.314 72.8779 250.401 74.9651 250.922V250.575C74.6172 250.227 74.4433 249.879 74.4433 249.358C74.4433 248.488 75.139 247.793 76.3565 247.793H77.2262V255.095C73.5737 255.095 70.6168 257.182 70.6168 260.659C70.6168 263.963 73.3997 265.528 76.5305 265.354V265.006C74.6172 264.832 73.7476 263.963 73.7476 262.746C73.7476 261.181 74.7912 260.485 76.1826 260.485C77.5741 260.485 78.7916 261.355 79.6612 262.398L84.7052 256.834L84.3573 256.486L83.1398 257.877C81.2266 256.139 80.183 255.617 77.9219 255.269V237.882L91.8363 262.224H92.8799V237.882C95.4889 237.708 97.9239 235.622 97.9239 232.666ZM110.621 255.443L106.273 258.747L101.924 255.269V253.183L110.099 247.619V247.445L105.925 241.186L96.8803 246.054V257.53L95.141 258.921L95.4889 259.268L97.0542 258.051L102.968 262.398L110.795 256.139L110.621 255.443ZM101.924 252.487V243.968L102.272 243.794L106.099 249.879L101.924 252.487ZM138.971 243.098L137.754 243.968L134.449 241.186L130.623 244.663L132.188 246.228V259.268L128.014 256.66V245.88L129.405 245.011L125.405 241.186L121.578 244.663L123.144 246.228V258.747L122.622 259.094L118.969 256.486V246.054C118.969 243.62 117.752 242.924 116.361 242.055C115.143 241.186 114.447 240.664 114.447 239.447C114.447 238.404 115.491 237.882 116.013 237.534V237.186C114.621 237.186 110.969 238.577 110.969 241.881C110.969 243.62 111.838 244.315 112.708 245.185C113.578 246.054 114.447 246.749 114.447 248.314V258.399L112.534 259.79L112.882 260.138L114.621 258.747L118.622 262.224L122.97 259.268L127.84 262.224L137.058 256.834V245.185L139.319 243.446L138.971 243.098ZM171.323 233.535L169.583 235.1L165.757 231.623L160.017 235.795V231.97H159.495L159.669 260.138C159.147 260.138 157.582 259.79 156.364 259.442L156.017 235.969C156.017 234.231 154.799 231.796 151.668 231.796C148.538 231.796 146.45 234.231 146.45 236.665H146.972C147.146 235.622 147.668 234.752 148.712 234.752C149.755 234.752 150.625 235.448 150.625 237.708V244.489C147.494 244.663 145.581 246.402 145.581 248.662C145.581 250.053 146.277 252.14 148.364 252.14V251.792C147.668 251.444 147.494 250.922 147.494 250.575C147.494 249.531 148.364 249.184 149.755 249.184H150.451V259.964C147.842 260.833 146.798 262.746 146.798 264.832C146.798 267.788 149.059 269.875 152.538 269.875C154.973 269.875 157.06 269.527 159.147 269.005C160.887 268.657 163.148 268.136 164.191 268.136C165.583 268.136 166.105 268.831 166.105 269.701C166.105 270.918 165.583 271.439 164.887 271.613V271.961C167.67 271.439 169.409 269.701 169.409 267.093C169.409 264.485 166.8 262.92 164.017 262.92C162.626 262.92 159.669 263.441 157.582 263.789C155.147 264.311 152.712 264.658 152.016 264.658C150.799 264.658 149.407 264.137 149.407 262.398C149.407 261.007 150.625 259.79 153.582 259.79C155.147 259.79 157.06 259.964 158.973 260.485C161.061 261.007 162.974 261.529 164.713 261.529C167.322 261.529 169.583 260.659 169.583 257.008V235.622L171.67 233.883L171.323 233.535ZM164.191 244.141C163.67 244.663 162.974 245.185 162.104 245.185C161.235 245.185 160.365 244.663 160.017 244.141V236.491L161.756 235.274L164.191 237.534V244.141ZM164.191 249.358C163.843 249.01 162.974 248.488 162.104 248.488C161.235 248.488 160.365 249.01 160.017 249.358V244.837C160.365 245.185 161.235 245.706 162.104 245.706C162.974 245.706 163.843 245.185 164.191 244.837V249.358ZM164.191 257.53C164.191 258.921 163.322 260.312 161.408 260.312H160.017V250.053C160.365 249.705 161.235 249.184 162.104 249.184C162.974 249.184 163.67 249.705 164.191 250.053V257.53ZM188.02 245.185L182.454 241.186L173.931 246.054V257.356L172.192 258.747L172.366 259.094L173.758 258.051L179.323 262.224L188.02 257.008V245.185ZM178.628 256.139V243.62L182.976 246.749V259.094L178.628 256.139ZM204.543 241.533H204.195C203.674 241.881 203.152 242.229 202.63 242.229C201.934 242.229 201.065 241.881 200.717 241.359H200.369L197.412 244.663L194.455 241.359L189.237 244.837L189.411 245.185L190.803 244.315L192.542 246.228V257.182L190.281 258.921L190.629 259.268L191.672 258.399L195.847 261.876L201.239 258.225L201.065 257.877L199.499 258.747L197.412 257.008V244.837C198.282 245.706 199.325 246.576 200.543 246.576C202.978 246.749 204.369 244.315 204.543 241.533ZM225.415 258.225L219.501 262.224L211.5 250.053L217.24 241.186H217.588C218.284 241.881 219.327 242.577 220.545 242.577C221.762 242.577 222.632 241.881 223.154 241.186H223.502C223.328 244.663 220.893 246.749 219.153 246.749C217.414 246.749 216.544 245.88 215.501 245.358L214.979 246.228L223.676 259.094L225.415 258.051V258.225ZM206.283 257.356L204.021 259.094L204.369 259.442L205.413 258.573L209.239 262.05L214.457 258.573L214.109 258.225L212.718 259.094L210.979 257.356V230.579H210.805L204.543 234.752V235.1C205.239 235.448 206.283 235.622 206.283 237.708V257.356ZM254.287 234.231C254.287 230.753 250.983 229.884 248.374 229.884V230.405C249.939 230.405 251.157 230.927 251.157 232.144C251.157 232.84 250.635 233.883 249.069 233.883C247.852 233.883 245.243 233.187 243.33 232.492C241.069 231.796 238.981 231.101 237.242 231.101C233.763 231.101 231.328 233.709 231.328 236.665C231.328 239.273 233.242 240.142 233.937 240.49L234.111 240.142C233.59 239.795 233.068 239.447 233.068 238.404C233.068 237.708 233.763 236.491 235.503 236.491C237.068 236.491 239.155 237.186 241.938 238.056C244.373 238.751 246.982 239.273 248.374 239.447V244.837L245.765 247.097V247.271L248.374 249.531V257.008C246.982 257.877 245.417 258.051 244.025 258.051C241.416 258.051 239.155 257.356 237.242 255.269L244.373 251.792V239.621L235.677 243.446C236.546 241.186 238.46 239.621 240.199 238.404L240.025 238.056C234.807 239.447 230.111 244.141 230.111 250.053C230.111 257.008 235.851 262.224 242.286 262.224C249.243 262.224 253.765 256.66 253.765 250.922H253.418C252.374 253.183 250.809 255.269 248.895 256.312V249.184L251.678 246.923V246.749L249.069 244.489V239.273C251.678 239.273 254.287 237.534 254.287 234.231ZM239.155 253.357L237.068 254.4C235.851 252.835 235.155 250.749 235.155 247.793C235.155 246.576 235.329 245.185 235.677 244.141L239.329 242.577L239.155 253.357ZM260.375 232.492H260.201L256.722 235.448V235.622L259.679 238.925H260.027L263.506 235.969V235.795L260.375 232.492ZM265.593 258.225L264.201 259.094L262.462 257.356V245.358L264.201 244.141L263.853 243.794L262.636 244.837L259.505 241.186L254.461 244.663L254.809 245.185L256.027 244.315L257.592 246.228V257.53L255.331 259.268L255.505 259.616L256.722 258.747L260.549 262.224L265.767 258.747L265.593 258.225ZM294.639 258.051L293.422 258.921L291.508 257.182V245.358L293.248 243.968L292.9 243.62L291.508 244.837L287.508 241.186L282.29 244.837L278.29 241.186L273.42 244.837L270.289 241.186L265.245 244.663L265.419 245.185L266.636 244.315L268.376 246.228V257.53L266.984 258.921L270.985 262.224L274.811 258.747L273.246 257.182V245.358L274.811 244.315L277.42 246.749V257.182L276.029 258.573L280.029 261.876L283.855 258.399L282.29 256.834V245.358L283.681 244.489L286.464 246.923V257.356L285.247 258.573L289.247 262.224L294.639 258.573V258.051ZM309.771 255.443L305.423 258.747L301.075 255.269V253.183L309.249 247.619V247.445L305.075 241.186L296.031 246.054V257.877L302.118 262.224L309.945 255.965L309.771 255.443ZM301.075 252.487V243.968L301.422 243.794L305.249 249.879L301.075 252.487ZM325.599 250.922L322.294 248.314C324.555 246.402 325.425 243.794 325.425 242.055V241.012H325.077C324.729 241.881 324.033 242.75 322.642 242.75C321.25 242.75 320.381 242.055 319.511 241.012L311.684 245.358V251.618L314.641 253.878C311.684 256.486 311.162 258.225 311.162 259.616C311.162 261.355 312.032 262.572 313.424 263.094L313.598 262.746C313.25 262.398 312.902 262.224 312.902 261.355C312.902 260.833 313.598 259.964 314.989 259.964C316.728 259.964 317.772 261.181 318.294 261.703L325.773 257.182V250.922H325.599ZM323.685 245.706C322.468 247.793 319.859 249.879 318.294 250.922L316.38 249.358V243.272C317.076 245.011 318.989 246.402 320.903 246.402C322.12 246.402 322.816 246.228 323.685 245.706ZM320.729 259.616C319.859 257.703 317.772 256.312 315.685 256.312C315.163 256.312 313.771 256.312 312.38 257.182C313.25 255.791 315.511 253.357 318.468 251.618L320.555 253.357L320.729 259.616Z" fill="#8B8B8B"/>
<path d="M247.376 150.895V165.746H232.525V195.449H217.673V165.746H202.822V150.895H247.376Z" fill="#8B8B8B"/>
<path d="M291.932 150.895H262.229V165.746H291.932V150.895Z" fill="#8B8B8B"/>
<path d="M291.932 180.598V195.449H247.377V165.746H262.229V180.598H291.932Z" fill="#8B8B8B"/>
</svg>
