<svg width="262" height="228" viewBox="0 0 262 228" fill="none" xmlns="http://www.w3.org/2000/svg">
<path d="M237.518 120.469C237.423 120.421 237.328 120.374 237.185 120.279C230.062 115.913 221.609 114.253 213.489 112.165C205.938 110.219 197.485 107.61 191.644 101.868C184.568 94.8931 185.566 85.2608 188.32 76.53C191.169 67.3247 193.829 58.1194 192.546 48.3922C191.122 37.2889 186.325 26.5652 178.727 18.214C166.998 5.2602 148.715 -1.62004 131.191 0.325409C107.685 2.93516 88.4044 19.8273 73.7305 38.2379C64.0903 50.2902 58.4392 63.9558 47.4694 75.3912C36.642 86.6843 24.4375 96.886 15.3198 109.65C3.16273 126.59 -2.72583 148.322 1.2157 168.82C5.15724 189.318 19.5462 207.966 39.2539 215.321C51.8383 220.019 65.6099 220.161 79.0492 220.161C106.925 220.256 134.896 220.303 162.676 218.121C181.007 216.65 199.527 214.135 216.196 206.543C232.864 198.951 247.633 185.617 253.094 168.298C258.555 151.074 252.904 130.054 237.518 120.469Z" fill="white"/>
<path d="M120.745 23.5283C120.223 23.1487 119.51 22.7691 119.32 22.1523C118.988 21.1084 120.128 20.017 119.795 18.9257C119.558 18.0241 118.513 17.692 117.563 17.5496C116.661 17.4073 115.569 17.3124 115.094 16.5057C114.666 15.8414 114.761 15.0348 114.666 14.2756C114.476 12.7097 113.289 11.3337 111.817 10.9541C110.25 10.527 108.825 11.9505 107.496 12.5674C106.071 13.2317 105.169 14.4654 104.836 15.9838C104.551 17.4547 104.741 19.0206 105.074 20.539C105.406 22.1048 105.834 23.5283 105.976 25.0467C106.118 26.7549 105.739 28.2259 105.264 29.8866C104.979 30.978 104.884 32.5438 105.454 33.5403C106.071 34.5367 107.163 34.9638 108.255 35.3434C110.392 35.9602 112.624 36.2924 114.856 35.9602C116.946 35.6755 118.988 34.6791 120.317 33.0658C121.267 32.2591 122.027 31.2152 122.502 30.0764C123.214 27.7039 122.644 24.9044 120.745 23.5283Z" fill="#0A213E"/>
<path d="M109.68 15.794C109.918 16.743 109.823 17.7395 109.348 18.5936C109.205 18.8783 108.968 19.163 108.588 19.163C108.256 19.1155 108.066 18.7359 107.876 18.4038C107.591 17.4548 107.401 16.4583 107.258 15.4619C107.211 14.845 107.306 13.7062 108.208 13.9909C109.015 14.0384 109.538 15.1772 109.68 15.794Z" fill="#0069BF"/>
<path d="M109.68 30.7881C109.015 33.0183 105.406 34.1096 103.364 31.5473C103.126 31.2626 102.889 30.883 102.604 30.5509C100.372 30.9779 97.0004 31.9744 95.5283 33.8249C95.0534 34.4418 94.7685 35.1535 94.5785 35.9127C93.7712 38.6174 93.1539 41.322 92.6315 44.0741C92.584 44.3588 92.5365 44.7384 92.6315 45.0231C92.774 45.3553 93.1064 45.64 93.4388 45.8772C96.573 48.2972 97.3328 52.283 98.3776 55.9366C99.8972 61.3934 100.657 68.9379 102.177 74.3946C107.258 74.7742 128.485 69.9818 131.002 67.7042C127.346 61.1087 124.354 49.1513 123.214 40.8475C122.739 37.3362 121.314 33.9673 119.985 30.6932C119.7 29.934 119.367 28.1784 118.798 27.6564C117.99 26.9922 110.63 28.0835 109.822 28.1309C109.87 28.558 109.87 29.0325 109.87 29.4121C110.012 29.8866 109.87 30.3136 109.68 30.7881Z" fill="#FC682D"/>
<path d="M102.177 27.1818C101.94 26.3752 101.56 25.616 101.18 24.9991C102.462 24.9517 103.602 24.5721 104.646 23.8129C105.121 23.4807 105.596 23.0062 106.024 22.5792C106.166 22.4368 106.403 22.0098 106.688 21.7251C106.356 22.1047 107.163 24.3348 107.353 24.7619C107.686 25.7109 108.208 26.6599 108.825 27.4191C109.49 28.1783 109.918 28.2732 110.06 29.3645C110.203 30.4559 109.965 31.6896 109.585 32.7335C109.348 33.3978 108.968 34.0146 108.445 34.4417C107.733 34.8687 106.926 34.8213 106.118 34.6315C104.789 34.2993 102.984 33.208 102.557 31.7845C102.319 31.0253 102.604 30.6931 102.652 29.9339C102.652 28.9849 102.414 28.0359 102.177 27.1818Z" fill="#FFC1A6"/>
<path d="M102.604 29.5069C102.604 29.4594 102.604 29.3645 102.604 29.3171C102.557 28.5579 102.414 27.8936 102.177 27.1818C101.94 26.3752 101.56 25.616 101.18 24.9991C102.462 24.9517 103.602 24.5721 104.646 23.8129C105.121 23.4807 105.596 23.0062 106.024 22.5792C106.166 22.4368 106.403 22.0098 106.688 21.7251C106.736 22.1047 106.783 22.5317 106.831 22.9113C106.688 25.5685 104.884 28.3206 102.604 29.5069Z" fill="#E3856D"/>
<path d="M94.2458 20.0646C94.7207 22.105 95.9079 24.003 97.57 25.3316C97.9974 25.6637 98.5198 26.0433 99.0421 26.1857C99.5645 26.328 100.229 26.2806 100.657 25.901C101.322 25.4265 101.417 24.4775 101.464 23.6708C101.559 22.105 101.607 20.5866 101.322 19.1156C101.037 17.6447 100.372 16.1263 99.2796 15.0824C98.3298 14.2283 95.8604 12.9946 94.7207 14.1808C93.581 15.4145 93.8659 18.5937 94.2458 20.0646Z" fill="#0A213E"/>
<path d="M95.5279 16.5057C95.7178 15.0822 97.3799 16.1736 98.7096 15.5093C99.8493 14.9399 100.752 14.5128 102.034 14.6077C103.173 14.7026 104.313 15.1771 105.168 15.9838C105.358 16.221 105.548 16.4108 105.785 16.6955C106.26 17.5496 106.783 18.4512 107.115 19.3527V19.4002C107.21 21.2507 106.783 22.9589 105.928 24.5248C105.073 25.9483 103.553 26.9922 101.891 26.9447C100.989 26.9447 100.087 26.66 99.3269 25.9483C98.5671 25.2365 97.9498 24.335 97.4274 23.4334C96.5726 22.0574 95.2904 18.0716 95.5279 16.5057Z" fill="#FFC1A6"/>
<path d="M101.844 19.1627C100.277 18.8306 98.6627 18.5459 97.238 17.8816C96.1933 17.4071 95.196 16.5055 94.7686 15.4142C94.2937 14.3228 94.6262 13.5162 95.2435 12.5197C96.1458 11.1437 97.6179 10.1472 99.185 9.67272C100.752 9.29312 102.747 9.86252 104.266 10.4319C105.311 10.7641 106.356 11.3809 107.021 12.2825C108.255 13.7534 108.683 16.4106 108.588 18.3086C108.54 19.1153 108.35 19.8745 108.113 20.6336C107.923 21.2979 107.638 21.9622 106.878 22.0571C106.403 22.1046 105.359 20.6811 104.836 20.349C104.029 19.8745 103.127 19.4949 102.177 19.2576C102.129 19.2576 101.987 19.2102 101.844 19.1627Z" fill="#0A213E"/>
<path d="M107.164 19.2583C107.259 20.2076 106.546 21.0145 105.691 21.1094C104.741 21.2043 103.981 20.4924 103.839 19.638C103.744 18.6888 104.456 17.8819 105.311 17.787C106.309 17.692 107.069 18.3091 107.164 19.2583Z" fill="#FFC1A6"/>
<path d="M190.457 215.938H66.0377C63.8533 215.938 62.0962 214.182 62.0962 211.999V140.825C62.0962 138.642 63.8533 136.886 66.0377 136.886H190.505C192.689 136.886 194.446 138.642 194.446 140.825V211.952C194.446 214.182 192.689 215.938 190.457 215.938Z" fill="#215CAB"/>
<path d="M204.182 216.08H52.314C52.314 219.591 55.1633 222.438 58.6299 222.438H197.913C201.38 222.391 204.182 219.544 204.182 216.08Z" fill="#114D8E"/>
<path d="M188.178 213.47H68.3651C66.6555 213.47 65.2783 212.047 65.2783 210.386V143.055C65.2783 141.347 66.703 139.97 68.3651 139.97H188.131C189.84 139.97 191.218 141.394 191.218 143.055V210.339C191.265 212.047 189.888 213.47 188.178 213.47Z" fill="#0A213E"/>
<path d="M130.006 138.357C130.006 138.879 129.531 139.354 129.008 139.354C128.486 139.354 128.011 138.879 128.011 138.357C128.011 137.835 128.486 137.361 129.008 137.361C129.578 137.361 130.006 137.788 130.006 138.357Z" fill="#333333"/>
<path d="M76.3906 51.334V213.043H185.899V51.334H76.3906Z" fill="#F2F2F2"/>
<path d="M133.757 205.024L118.56 185.997L105.311 203.031L93.8188 190.552L95.3385 189.129L105.169 199.852L118.513 182.628L133.377 201.181L141.972 183.482L160.208 180.255L160.588 182.296L143.397 185.38L133.757 205.024Z" fill="#0069BF"/>
<path d="M162.914 181.347C162.914 179.876 161.727 178.689 160.255 178.689C158.783 178.689 157.596 179.876 157.596 181.347C157.596 182.818 158.783 184.004 160.255 184.004C161.727 184.004 162.914 182.818 162.914 181.347Z" fill="#FC682D"/>
<path d="M136.273 203.126C136.273 201.655 135.086 200.469 133.614 200.469C132.142 200.469 130.955 201.655 130.955 203.126C130.955 204.597 132.142 205.783 133.614 205.783C135.086 205.783 136.273 204.597 136.273 203.126Z" fill="#FC682D"/>
<path d="M144.964 184.478C144.964 183.008 143.777 181.821 142.304 181.821C140.832 181.821 139.645 183.008 139.645 184.478C139.645 185.949 140.832 187.136 142.304 187.136C143.777 187.136 144.964 185.949 144.964 184.478Z" fill="#FC682D"/>
<path d="M118.418 187.136C119.89 187.136 121.077 185.949 121.077 184.478C121.077 183.008 119.89 181.821 118.418 181.821C116.946 181.821 115.758 183.008 115.758 184.478C115.758 185.949 116.993 187.136 118.418 187.136Z" fill="#FC682D"/>
<path d="M105.549 203.743C107.021 203.743 108.208 202.557 108.208 201.086C108.208 199.615 107.021 198.429 105.549 198.429C104.076 198.429 102.889 199.615 102.889 201.086C102.889 202.557 104.076 203.743 105.549 203.743Z" fill="#FC682D"/>
<path d="M97.7606 190.362C97.7606 188.891 96.5734 187.705 95.1012 187.705C93.6291 187.705 92.4419 188.891 92.4419 190.362C92.4419 191.833 93.6291 193.019 95.1012 193.019C96.5259 193.019 97.7606 191.786 97.7606 190.362Z" fill="#FC682D"/>
<path d="M104.456 123.743H92.6313V148.606H104.456V123.743Z" fill="#FC682D"/>
<path d="M122.692 111.595H110.867V148.606H122.692V111.595Z" fill="#0069BF"/>
<path d="M124.877 78.2378L124.26 80.1363L124.022 79.282L123.167 79.1396L124.877 78.2378Z" fill="#485070"/>
<path d="M141.449 89.9106H128.58V148.511H141.449V89.9106Z" fill="#FC682D"/>
<path d="M159.21 118.333H147.386V148.654H159.21V118.333Z" fill="#0069BF"/>
<path d="M163.912 153.826H92.4419V157.479H163.912V153.826Z" fill="white"/>
<path d="M149.617 82.2239H106.688V85.8775H149.617V82.2239Z" fill="white"/>
<path d="M163.817 75.9131H92.394V79.5667H163.864V75.9131H163.817Z" fill="white"/>
<path d="M163.912 160.469H92.4419V164.122H163.912V160.469Z" fill="white"/>
<path d="M163.912 167.112H92.4419V170.765H163.912V167.112Z" fill="white"/>
<path d="M115.521 27.7512C114.618 27.941 113.669 28.1782 112.814 28.5104C112.671 28.5578 112.529 28.6053 112.386 28.7002C112.244 28.8425 112.196 29.0323 112.149 29.317C111.532 32.2115 112.339 36.0549 114.238 38.3325C114.761 39.0443 115.473 39.6137 116.091 40.3254C116.708 40.9897 117.468 41.5591 118.038 42.2709C118.702 43.0775 118.94 44.3587 119.225 45.3077C119.89 47.4904 120.317 49.7205 120.459 52.0456C120.554 53.5165 120.602 55.2722 121.789 56.2686C122.929 57.2176 124.781 56.9804 125.968 56.0788C127.155 55.1298 127.82 53.7538 128.343 52.2828C129.625 48.5817 130.385 44.6908 130.195 40.7525C130.052 37.1937 128.96 32.8758 126.633 30.0762C125.113 28.1783 122.596 27.3242 120.127 27.2767C118.465 27.1818 116.993 27.4191 115.521 27.7512Z" fill="#FC682D"/>
<path d="M120.08 35.3433L117.563 49.1037L117.943 49.1986L120.46 35.4382L120.08 35.3433Z" fill="#C64012"/>
<path d="M118.798 36.1499L118.418 36.2923L119.273 38.5231L119.653 38.3807L118.798 36.1499Z" fill="#C64012"/>
<path d="M101.417 58.9734C101.702 58.8785 102.082 58.7836 102.414 58.7836C105.501 58.7361 108.493 58.404 111.627 58.0718C113.716 57.882 115.806 57.7397 117.848 57.7397C119.51 57.7397 121.457 58.0718 123.119 57.6448C124.829 57.1703 125.968 56.6483 126.871 55.2723C127.25 54.5605 127.678 53.8963 128.01 53.1371C128.2 52.71 128.39 52.2355 128.295 51.8559C128.153 51.1916 127.44 50.8595 126.823 50.6222C125.398 50.0528 124.496 49.2936 122.834 49.0564C121.172 48.914 119.367 49.1038 117.705 49.436C114.381 50.1477 111.104 50.4324 107.875 51.3814C104.219 52.4728 100.704 54.0386 97.2853 55.557C96.0031 56.1264 94.7209 56.7432 93.7711 57.6922C92.394 59.1157 92.204 61.3459 93.4387 62.6745C93.7711 63.0541 94.341 63.4337 94.9109 63.3388C95.5282 63.2439 95.9081 62.4372 95.3858 62.2C98.615 63.3862 98.7099 59.9698 101.417 58.9734Z" fill="#FFC1A6"/>
<path d="M91.5868 72.8761V72.6863C91.5393 72.8287 91.4918 72.9236 91.4443 73.066C91.5393 72.9711 91.5868 72.9236 91.5868 72.8761Z" fill="#FF6EA1"/>
<path d="M99.6601 33.5877C99.4701 33.2555 99.2327 32.9234 98.8053 32.6861C97.713 32.0218 95.4811 33.0183 94.4838 33.5877C94.2939 33.6826 94.1039 33.8249 93.8665 33.9672C92.6793 34.7264 91.682 35.7229 90.7797 36.7193C90.4948 37.0515 90.1624 37.4311 89.8774 37.7632C85.4135 42.9353 82.5167 48.6767 83.2291 55.6044C83.3715 57.0754 83.6565 58.6887 84.7487 59.6851C85.651 60.4918 86.9332 60.729 88.0729 60.5392C89.1651 60.3494 90.2099 59.7326 91.0172 58.9259L90.9697 59.2106C91.0172 59.0683 91.0647 58.9734 91.1121 58.831C92.9167 57.0754 93.2966 54.7503 93.724 52.4253C95.1012 48.9614 96.5258 45.4976 97.9505 42.0337C98.7103 40.4204 100.847 35.9127 99.6601 33.5877Z" fill="#FC682D"/>
<path d="M92.5366 84.9759C94.4836 81.7968 90.9695 81.2748 90.4471 78.4753C90.3996 78.1431 90.3996 77.7635 90.4471 77.4314C90.922 74.3471 91.1594 71.3103 91.3969 68.1312C91.5393 66.0434 91.7768 63.9556 92.1567 61.8678C92.3941 60.4918 92.964 58.9259 93.0115 57.455C92.964 57.0279 92.9165 56.506 92.869 56.0789C92.3466 55.035 91.3969 54.1809 89.9247 53.7064C88.2626 53.137 86.2206 53.5641 84.891 54.7029C84.5585 55.2723 84.2261 55.7942 83.9412 56.4111C83.6088 57.882 83.5138 59.4953 83.5613 61.0612C83.6563 64.4301 83.3713 67.7991 83.7512 71.168C84.1786 74.964 85.1284 78.6651 86.1257 82.3187C86.4581 83.6473 86.8855 85.0708 87.6453 86.1147C88.88 87.728 91.0645 88.1551 92.6791 87.1112C93.1065 86.8265 93.6288 86.3045 93.6288 85.7351C93.6288 85.0234 92.8215 84.454 92.5366 84.9759Z" fill="#FFC1A6"/>
<path d="M53.9285 134.419C56.113 136.934 56.9678 140.255 57.6801 143.387C58.6299 147.42 59.5796 151.453 60.5294 155.534C60.7668 156.483 61.0043 157.432 61.0043 158.381C61.0518 159.947 60.5769 161.94 60.2445 163.411C59.7696 165.356 58.6299 165.214 56.9203 165.024C54.2134 164.739 50.5093 163.933 48.7048 161.703C47.85 160.659 47.5651 159.235 47.2801 157.907C46.9002 156.056 46.6153 154.158 46.2354 152.355C44.8107 144.763 43.4336 136.981 45.0007 129.437C48.8947 130.053 51.744 131.904 53.9285 134.419Z" fill="#6CCEFF"/>
<path d="M57.9653 158.381C59.2 158.95 60.2923 159.71 61.432 160.374C63.284 161.465 65.1836 162.272 67.0356 163.268C67.558 163.553 68.1278 163.838 68.6977 163.933C69.695 164.122 70.7872 163.743 71.7845 163.885C73.1616 164.075 74.2538 165.309 74.7762 166.874C75.5835 169.532 73.684 168.535 72.4018 168.345C71.4045 168.156 70.4073 167.966 69.41 167.823C65.4685 167.112 61.7169 166.732 57.6804 166.542C55.4959 166.4 51.6494 166.495 49.9873 164.502C49.18 163.553 48.3252 159.282 49.3699 158.239C49.5599 158.049 49.8448 157.954 50.0348 157.859C52.1243 157.195 54.2612 157.147 56.3032 157.764C56.8731 157.906 57.443 158.096 57.9653 158.381Z" fill="#9C5240"/>
<path d="M56.5406 189.556H18.2174C16.9352 189.556 15.938 188.512 15.938 187.278C15.938 185.997 16.9827 185 18.2174 185H56.5406C57.8227 185 58.82 186.044 58.82 187.278C58.82 188.559 57.7752 189.556 56.5406 189.556Z" fill="#473F47"/>
<path d="M46.2825 159.662H43.9556V187.468H46.2825V159.662Z" fill="#485070"/>
<path d="M57.0628 188.417H54.7358V222.154H57.0628V188.417Z" fill="#485070"/>
<path d="M37.112 188.394H34.5894V220.172H37.112V188.394Z" fill="#473F47"/>
<path d="M44.9328 221.181C45.6293 221.181 46.1938 220.616 46.1938 219.92C46.1938 219.224 45.6293 218.659 44.9328 218.659L26.7692 218.659C26.0727 218.659 25.5081 219.224 25.5081 219.92C25.5081 220.616 26.0727 221.181 26.7692 221.181L44.9328 221.181Z" fill="#473F47"/>
<path d="M80.2368 200.279C78.9071 200.564 78.0048 200.659 76.4852 200.801C74.2057 201.133 71.9738 201.371 69.6943 201.56C70.2642 205.641 70.8341 209.295 70.9765 210.007C71.5464 213.138 71.2615 221.062 72.6386 224.004C74.3482 224.242 75.8203 223.909 77.3875 223.814C78.2422 215.985 78.9071 208.061 80.2368 200.279Z" fill="#924D42"/>
<path d="M68.4124 207.159C68.4124 207.776 68.4124 208.488 68.5548 209.057C70.3594 210.955 73.0187 211.952 75.6306 212.047C77.1502 212.142 78.6224 211.857 79.952 211.477C80.142 208.393 80.332 205.356 80.4744 202.272C80.7593 198.286 80.9493 194.253 81.4242 190.267C81.6616 188.511 81.8991 183.292 81.4717 179.496C80.4744 175.605 77.8626 174.561 77.8626 174.561C77.8626 174.561 70.6443 171.714 65.1357 170.481C58.3448 168.962 51.459 167.871 44.6207 166.4C41.344 165.688 35.8353 165.83 34.1733 169.389C32.2262 173.565 36.1203 179.116 39.302 181.536C42.5787 184.051 46.5677 185.285 50.5567 186.186C56.2079 187.42 62.0014 187.99 67.8425 187.847C67.6526 187.8 68.4124 205.688 68.4124 207.159Z" fill="#0069BF"/>
<path d="M67.8426 187.847C67.8426 187.847 67.8901 187.847 67.8426 187.847C66.6079 186.566 65.4682 185.19 64.186 184.004C62.2865 182.153 60.4819 180.208 58.6299 178.31C54.9258 174.561 51.2217 170.86 47.6126 167.017C46.6628 166.827 45.713 166.59 44.7633 166.447C41.4866 165.736 35.9779 165.878 34.3158 169.437C32.3688 173.612 36.2629 179.164 39.4446 181.584C42.7213 184.099 46.7103 185.333 50.6993 186.234C56.2555 187.42 62.0491 187.942 67.8426 187.847C67.8426 187.847 67.8426 187.8 67.8426 187.847Z" fill="#005C9B"/>
<path d="M72.5438 172.806C67.7 171.192 63.2835 169.816 56.1128 168.82" stroke="#485070" stroke-width="0.75" stroke-miterlimit="10"/>
<path d="M87.313 227.99H72.2117C71.9743 227.99 71.7368 227.8 71.7368 227.516V226.234H87.2655V227.99H87.313Z" fill="#E6EDFF"/>
<path d="M87.0756 226.756C87.1231 226.661 87.1706 226.614 87.2181 226.519C87.598 225.712 87.1706 224.716 86.4583 224.099C85.7459 223.482 84.7962 223.245 83.8939 222.96C81.9469 222.438 80.0473 221.869 78.0528 221.584C77.5305 221.489 71.8793 221.015 71.9268 220.73C71.8318 222.201 71.7369 223.577 71.6419 225.048C71.5944 225.618 71.4519 226.234 71.6419 226.709H87.0756V226.756Z" fill="#0069BF"/>
<path d="M74.491 219.544C75.3458 218.832 76.7229 218.832 77.6252 219.449C78.575 220.066 79.0499 221.205 79.0499 222.344C79.0499 222.581 79.0024 222.818 78.8599 222.913C78.7174 223.055 78.48 223.055 78.29 223.055C77.3878 223.055 76.533 223.055 75.6307 223.103C75.1083 223.103 74.3485 223.245 73.9686 222.723C73.1613 221.869 73.7786 220.208 74.491 219.544Z" fill="#0069BF"/>
<path d="M80.3324 222.011C79.8098 221.964 79.2398 222.296 79.0498 222.771" stroke="#B3B3B3" stroke-width="0.75" stroke-miterlimit="10" stroke-linecap="round"/>
<path d="M80.6641 223.388C80.9491 222.913 81.4241 222.628 81.9941 222.628" stroke="#B3B3B3" stroke-width="0.75" stroke-miterlimit="10" stroke-linecap="round"/>
<path d="M82.6113 223.577C82.7538 223.245 83.0863 223.055 83.4189 223.055" stroke="#B3B3B3" stroke-width="0.75" stroke-miterlimit="10" stroke-linecap="round"/>
<path d="M54.4982 198.144C52.5037 198.429 50.5092 198.666 48.5146 198.808C49.9868 206.258 50.7466 213.897 51.9338 221.395C53.6434 221.395 55.2105 221.015 57.0151 221.062C57.395 218.785 58.0598 205.262 59.1046 197.337C57.3 197.859 56.3502 197.859 54.4982 198.144Z" fill="#924D42"/>
<path d="M48.7992 208.773C49.2266 210.434 49.7015 211.477 51.3161 212.142C52.7408 212.711 54.3079 212.948 55.8275 212.759C57.917 212.521 59.5791 211.05 59.5791 211.05C59.5791 211.05 61.7161 179.164 59.1042 175.083C55.8275 170.101 48.7517 169.057 43.2431 167.824C38.3993 166.78 33.4605 165.926 28.6167 164.977C27.4295 169.532 28.2842 174.894 30.0413 179.069C30.0413 179.069 30.0413 179.117 30.0888 179.117C31.466 182.391 34.6002 184.668 38.1143 184.953C40.6787 185.19 43.2906 185.285 45.9024 185.19C45.8075 185.143 47.3271 202.747 48.7992 208.773Z" fill="#0069BF"/>
<path d="M67.083 227.753H51.9817C51.7443 227.753 51.5068 227.563 51.5068 227.278V225.997H67.0355V227.753H67.083Z" fill="#E6EDFF"/>
<path d="M66.893 226.519C66.9405 226.424 66.988 226.377 67.0355 226.282C67.4154 225.475 66.988 224.479 66.2756 223.862C65.5633 223.292 64.6136 223.008 63.7113 222.723C61.7643 222.201 59.8647 221.632 57.8702 221.347C57.3478 221.252 51.6967 220.778 51.7442 220.493C51.6492 221.964 51.5543 223.34 51.4593 224.811C51.4118 225.38 51.2693 225.997 51.4593 226.472H66.893V226.519Z" fill="#0069BF"/>
<path d="M54.2138 219.307C55.0686 218.595 56.4457 218.595 57.348 219.212C58.2978 219.829 58.7727 220.968 58.7727 222.106C58.7727 222.344 58.7252 222.581 58.5827 222.676C58.4402 222.818 58.2028 222.818 58.0129 222.818C57.1106 222.818 56.2558 222.818 55.3535 222.866C54.8311 222.866 54.0713 223.008 53.6914 222.486C52.9316 221.679 53.5489 219.971 54.2138 219.307Z" fill="#0069BF"/>
<path d="M60.1019 221.727C59.5794 221.679 59.0093 222.011 58.8193 222.486" stroke="#B3B3B3" stroke-width="0.75" stroke-miterlimit="10" stroke-linecap="round"/>
<path d="M60.4341 223.103C60.7191 222.628 61.1941 222.344 61.7641 222.344" stroke="#B3B3B3" stroke-width="0.75" stroke-miterlimit="10" stroke-linecap="round"/>
<path d="M62.3813 223.34C62.5239 223.008 62.8564 222.818 63.1889 222.818" stroke="#B3B3B3" stroke-width="0.75" stroke-miterlimit="10" stroke-linecap="round"/>
<path d="M27.9523 171.098C28.0948 171.809 28.2372 172.569 28.3797 173.28C30.8966 171.952 33.8884 172.236 36.7377 172.236C42.9586 172.236 49.2271 170.623 54.6883 167.729C54.3558 166.163 54.0234 164.692 54.0234 163.079C54.0234 161.465 53.3586 159.947 53.3586 158.334C53.2636 156.151 53.3586 154.016 53.4536 151.833C53.6435 147.752 53.9285 143.624 53.1686 139.591C52.6938 136.981 51.744 134.419 50.1294 132.284C49.4171 131.287 48.4198 130.006 47.2801 129.484C46.0929 128.915 44.3358 129.057 43.0536 128.962C42.1038 128.867 41.1066 128.772 40.1568 128.962C38.9696 129.152 37.8774 129.721 36.8801 130.386C31.419 133.707 30.7541 139.022 29.0445 144.81C28.2372 147.657 26.9076 150.41 26.1003 153.257C25.6254 154.87 25.4829 156.531 25.4829 158.191C25.5304 159.71 26.1003 161.038 26.3852 162.509C26.8601 165.309 27.4299 168.203 27.9523 171.098Z" fill="#6CCEFF"/>
<path d="M48.0874 128.06C48.3249 127.301 48.6573 126.542 49.0847 125.878C47.85 125.83 46.7103 125.403 45.713 124.691C45.2381 124.312 44.7632 123.932 44.3358 123.458C44.1934 123.315 43.9559 122.936 43.7185 122.651C43.4336 125.356 42.4363 127.966 40.1094 129.579C40.8692 131.05 42.2464 132.141 43.6235 132.948C44.8582 133.66 47.85 135.036 47.8975 132.521C47.8975 131.714 47.5651 130.955 47.66 130.148C47.7075 129.484 47.85 128.772 48.0874 128.06Z" fill="#924D42"/>
<path d="M47.6124 130.385C47.6124 130.291 47.6124 130.243 47.6124 130.148C47.6599 129.436 47.8499 128.725 48.0398 128.06C48.2773 127.301 48.6097 126.542 49.0371 125.878C47.8024 125.83 46.6627 125.403 45.6654 124.691C45.1905 124.312 44.7157 123.932 44.2883 123.458C44.1458 123.315 43.9084 122.936 43.6709 122.651C43.6234 123.078 43.5759 123.458 43.481 123.837C43.6234 126.495 45.428 129.247 47.6124 130.385Z" fill="#723731"/>
<path d="M29.8044 134.419C27.62 136.933 26.7652 140.255 26.0528 143.387C25.1031 147.42 24.1533 151.453 23.2035 155.534C22.8711 156.957 22.3488 158.855 22.6812 160.279C23.0136 161.845 24.1058 163.268 25.483 164.075C26.9076 164.929 29.0921 165.356 30.6592 164.597C32.1788 163.885 33.9359 163.126 35.0756 161.797C35.9304 160.753 36.2154 159.33 36.5003 158.001C36.8802 156.151 37.1651 154.253 37.545 152.45C38.9697 144.858 40.3468 137.076 38.7797 129.531C34.9332 130.053 32.0364 131.904 29.8044 134.419Z" fill="#6CCEFF"/>
<path d="M34.5529 159.093C36.215 159.472 37.8771 159.994 39.5392 160.516C42.151 161.323 44.8104 161.797 47.4697 162.462C48.2295 162.651 48.9894 162.889 49.7967 162.889C51.1738 162.889 52.4085 162.367 53.7857 162.367C55.5902 162.319 57.3473 163.316 58.2971 164.834C59.9117 167.396 57.2049 166.685 55.4953 166.637C54.1181 166.637 52.8359 166.59 51.4588 166.59C46.235 166.495 41.2488 166.78 35.9775 167.207C33.1282 167.444 28.0945 168.108 25.5776 166.447C24.3429 165.641 22.3009 161.607 23.4406 160.374C23.678 160.137 23.9155 159.994 24.2479 159.899C26.8123 158.855 29.6141 158.476 32.3684 158.76C33.1282 158.808 33.8406 158.903 34.5529 159.093Z" fill="#924D42"/>
<path d="M78.8121 173.945H43.7182C43.3858 173.945 43.1958 173.707 43.1958 173.423V172.901C43.1958 172.568 43.4332 172.379 43.7182 172.379H78.8121C79.1445 172.379 79.3345 172.616 79.3345 172.901V173.423C79.3345 173.66 79.1445 173.945 78.8121 173.945Z" fill="#473F47"/>
<path d="M82.9911 173.945H52.0762L54.7355 156.104C54.8305 155.487 55.3529 155.012 55.9702 155.012H84.4158C85.1281 155.012 85.6979 155.677 85.603 156.436L82.9911 173.945Z" fill="#757E96"/>
<path d="M70.1221 166.163C71.2618 166.163 72.1641 165.261 72.1641 164.122C72.1641 162.984 71.2618 162.082 70.1221 162.082C68.9824 162.082 68.0801 162.984 68.0801 164.122C68.0801 165.214 69.0298 166.163 70.1221 166.163Z" fill="white"/>
<path d="M54.2132 116.72C53.8333 115.296 52.3612 116.53 51.0315 116.103C49.8443 115.676 48.942 115.344 47.7548 115.581C46.6151 115.771 45.5703 116.34 44.858 117.242C44.6681 117.479 44.4781 117.764 44.3831 117.954C43.9557 118.808 43.6233 119.709 43.3384 120.658V120.706C43.3859 122.509 44.0032 124.217 45.0005 125.546C45.9502 126.922 47.5174 127.728 49.2269 127.538C50.0817 127.444 50.9365 127.016 51.6014 126.305C52.3137 125.546 52.7886 124.644 53.1685 123.648C53.7383 122.271 54.5931 118.238 54.2132 116.72Z" fill="#924D42"/>
<path d="M47.6597 118.096C47.6597 118.048 47.7071 117.954 47.7071 117.859C47.8496 117.289 47.9446 116.72 48.087 116.15C49.5117 117.242 51.1263 118.808 53.0258 119.424C54.4505 119.899 56.0651 119.377 56.9674 118.191C57.1573 117.954 57.2523 117.716 57.3948 117.526C57.4423 117.432 57.5847 116.957 57.6797 116.957C57.2048 117.337 56.445 117.052 56.0651 116.577C55.6377 116.103 55.4952 115.534 55.2578 114.964C54.7354 113.636 53.8331 112.402 52.6459 111.595C51.4587 110.789 49.9866 110.362 48.5619 110.504C47.6596 110.599 46.8049 110.978 46.0925 111.5C45.7126 111.785 45.4277 112.07 45.1428 112.449C45.0003 112.639 44.5254 113.541 44.7154 113.73C44.383 113.446 43.9081 113.493 43.5282 113.683C43.1483 113.92 42.9108 114.252 42.7209 114.632C41.8186 116.198 41.4862 118.048 41.7711 119.852C41.9136 120.611 42.1985 121.37 42.4359 122.082C42.6734 122.651 43.0533 123.363 43.8131 123.363C44.8103 123.363 44.7154 121.702 45.0003 120.801C45.0953 120.421 45.0953 120.041 45.4752 119.946C45.9026 119.852 46.5674 120.611 46.8998 119.994C47.0423 119.757 46.9473 119.472 46.8998 119.235C46.8523 118.95 46.8049 118.713 46.9473 118.475C46.9473 118.475 47.4697 118.475 47.5172 118.428C47.6122 118.333 47.6597 118.191 47.6597 118.096Z" fill="#0A213E"/>
<path d="M44.7632 114.964C44.7157 114.964 44.6208 114.917 44.6208 114.869C44.0984 113.636 44.1934 112.07 45.0481 110.979C45.0956 110.884 45.2381 110.884 45.2856 110.931C45.3806 110.979 45.3806 111.121 45.3331 111.168C44.6208 112.165 44.4308 113.588 44.9057 114.727C44.9532 114.822 44.9057 114.917 44.7632 114.964C44.8582 114.964 44.8107 114.964 44.7632 114.964Z" fill="#0A213E"/>
<path d="M44.479 113.826C44.4315 113.826 44.384 113.826 44.3365 113.778C43.8615 113.256 43.0539 113.161 42.5314 113.494C42.4364 113.541 42.3414 113.541 42.2939 113.446C42.2464 113.351 42.2464 113.256 42.3414 113.209C43.0539 112.734 44.0515 112.924 44.6215 113.588C44.669 113.683 44.669 113.778 44.6215 113.826C44.5265 113.826 44.479 113.826 44.479 113.826Z" fill="#0A213E"/>
<path d="M43.1484 120.611C43.1484 121.513 43.861 122.273 44.811 122.273C45.7135 122.273 46.4736 121.561 46.4736 120.611C46.4736 119.71 45.761 118.95 44.811 118.95C43.861 118.998 43.1484 119.71 43.1484 120.611Z" fill="#924D42"/>
<path d="M212.634 223.767C215.484 224.004 220.422 224.431 224.316 224.621C226.691 224.716 228.021 224.479 228.78 224.194C228.78 224.289 228.78 224.336 228.78 224.431C228.78 224.811 228.448 225.191 227.973 225.191C220.66 225.57 214.771 225.333 212.682 225.191C212.254 225.143 211.969 224.716 212.254 224.289C212.302 224.099 212.444 223.909 212.634 223.767Z" fill="#E6EDFF"/>
<path d="M224.27 224.526C220.375 224.384 215.437 223.909 212.587 223.672C215.389 220.208 224.27 217.883 224.27 217.883H226.786C228.496 220.398 228.733 222.771 228.733 224.004C227.974 224.431 226.644 224.621 224.27 224.526Z" fill="#0A213E"/>
<path d="M227.214 213.85L226.976 218.5C226.929 218.974 226.597 219.449 226.074 219.496C225.599 219.544 224.887 219.591 224.222 219.354C223.795 219.212 223.415 218.879 223.367 218.357L222.56 213.802H227.166V213.85H227.214Z" fill="url(#paint0_linear_215_22639)"/>
<path d="M259.838 224.479C261.073 224.336 261.595 223.625 261.88 223.008C262.07 223.767 261.643 224.479 260.788 224.858C259.743 225.285 258.651 225.333 257.796 225.333C256.846 225.285 256.039 224.906 255.517 224.289C256.419 224.763 257.749 224.811 259.838 224.479Z" fill="#E6EDFF"/>
<path d="M253.997 213.802H256.087C259.221 213.755 261.216 220.445 261.833 223.008C261.596 223.72 261.026 224.336 259.791 224.479C257.702 224.763 256.467 224.716 255.517 224.241C253.808 221.964 252.953 218.69 252.573 216.792C252.098 214.657 253.997 213.802 253.997 213.802Z" fill="#0A213E"/>
<path d="M255.802 209.437L256.941 214.04C257.084 214.562 256.799 215.179 256.324 215.463C255.707 215.796 254.804 216.175 253.949 216.08C253.57 216.033 253.19 215.748 253.095 215.368L251.433 210.529L255.802 209.437Z" fill="url(#paint1_linear_215_22639)"/>
<path d="M257.179 210.765C255.754 212.047 251.1 212.189 251.1 212.189C234.384 171.809 227.498 166.068 227.498 166.068C229.92 181.299 227.878 215.036 227.878 215.036C225.124 216.27 221.515 215.036 221.515 215.036C221.277 190.077 217.478 168.345 212.967 151.168C224.269 150.931 230.3 146.993 232.247 145.474C241.745 160.801 257.179 210.765 257.179 210.765Z" fill="#0A213E"/>
<path d="M229.446 99.0684C231.63 109.792 230.823 129.057 230.348 137.788C230.206 140.255 231.915 143.671 233.293 145.996C233.482 146.329 233.388 146.851 233.008 147.04C230.681 148.227 222.845 151.928 213.775 152.402C213.205 152.45 212.635 152.023 212.445 151.406C205.702 126.067 197.866 109.887 197.866 109.887C206.462 96.0316 229.446 99.0684 229.446 99.0684Z" fill="#0069BF"/>
<path d="M242.885 129.911C242.173 134.893 240.178 140.35 236.094 146.186L234.575 144.905C234.575 144.905 236.332 137.645 235.382 129.389C237.804 128.867 240.796 129.342 242.885 129.911Z" fill="#F99F93"/>
<path d="M227.023 112.307L229.445 99.0684C229.445 99.0684 245.449 111.358 242.885 129.911C240.748 129.389 237.803 128.867 235.286 129.389C234.574 123.363 232.39 116.91 227.023 112.307Z" fill="#0069BF"/>
<path d="M197.818 109.887L203.992 123.268C202.994 131.335 198.673 134.798 194.067 136.127C193.782 132.473 192.832 129.484 191.977 127.396C197.913 121.275 197.818 109.887 197.818 109.887Z" fill="#0069BF"/>
<path d="M191.93 127.491C192.785 129.579 193.687 132.521 194.02 136.222C181.625 141.062 178.301 131.667 178.301 131.667L180.628 131.287C185.851 131.762 189.413 130.101 191.93 127.491Z" fill="#F99F93"/>
<path d="M203.517 93.4219L206.509 104.383C206.841 105.617 208.171 106.281 209.358 105.806C210.64 105.332 212.255 104.573 213.632 103.813C215.104 103.007 215.579 101.109 214.677 99.6378L208.456 90.3376L203.517 93.4219Z" fill="#F99F93"/>
<path d="M172.697 124.264L249.058 152.165C252.24 153.351 253.807 157.005 252.335 160.137L252.097 160.611C250.862 163.363 247.633 164.549 244.879 163.268L170.75 128.772L172.697 124.264Z" fill="#215CAB"/>
<path d="M95.623 107.467C95.623 130.338 114.381 148.843 137.555 148.843C160.682 148.843 179.488 130.338 179.488 107.467C179.488 84.5963 160.73 66.0908 137.555 66.0908C114.381 66.0908 95.623 84.6437 95.623 107.467ZM101.797 107.467C101.797 87.9652 117.8 72.117 137.603 72.117C157.358 72.117 173.409 87.9178 173.409 107.467C173.409 126.969 157.405 142.817 137.603 142.817C117.8 142.77 101.797 126.969 101.797 107.467Z" fill="#215CAB"/>
<path d="M196.964 85.0711C196.916 85.2609 199.433 97.6453 199.433 97.6453L206.414 96.0794L205.796 84.0272C205.796 83.9797 197.438 81.8919 196.964 85.0711Z" fill="#F99F93"/>
<path d="M204.229 86.6367L205.084 92.9475C205.084 93.0424 205.084 93.0898 205.084 93.1847C205.037 93.6592 204.657 95.3674 202.947 94.8455C201.427 94.4184 200.003 94.0388 199.006 94.371C198.578 94.5133 198.293 94.9879 198.436 95.4149C198.673 96.5537 199.243 99.0685 200.05 101.204C200.193 101.631 200.668 101.868 201.142 101.726C202.472 101.346 205.226 100.445 207.316 99.2109C207.601 99.0685 207.743 98.7364 207.743 98.4042C207.696 96.8384 207.506 91.9036 207.648 90.575C207.791 89.2939 209.358 88.5347 210.023 88.25C210.26 88.1551 210.403 88.0127 210.498 87.7755C210.783 86.9688 211.257 85.1657 208.978 84.4065C208.503 84.2642 208.218 83.6948 208.456 83.2677C208.788 82.3187 208.931 80.8478 207.174 80.0411C205.369 79.2345 204.039 80.1835 203.279 80.9901C202.995 81.2748 202.472 81.3223 202.14 81.1325C201.95 80.9901 201.665 80.9427 201.332 81.1799C200.905 81.4646 200.288 81.2748 200.098 80.8003C199.67 79.8988 198.768 78.9498 197.011 79.2819C193.877 79.8039 193.497 83.3626 194.352 85.3555C195.206 87.3959 198.531 86.6367 200.24 85.5928C201.522 84.7861 203.184 85.6402 203.944 86.0673C204.039 86.1622 204.182 86.3994 204.229 86.6367Z" fill="#0A213E"/>
<path d="M207.886 92.9C207.886 92.9 206.604 89.2938 207.934 88.3923C209.263 87.4907 211.21 87.9652 210.783 90.575C210.261 93.8016 207.886 92.9 207.886 92.9Z" fill="#F99F93"/>
<path d="M235.144 144.62L227.926 144.003L224.839 146.945C224.839 146.945 225.599 147.989 227.879 147.372C230.158 146.756 233.34 146.613 233.34 146.613C233.34 146.613 236.521 148.037 236.569 145.379L235.144 144.62Z" fill="#F99F93"/>
<path d="M179.298 133.375C178.68 133.849 176.543 132.853 175.214 132.141C174.596 131.809 174.264 131.05 174.454 130.338C174.739 129.342 175.309 128.06 175.926 127.918C177.018 127.633 181.862 131.334 179.298 133.375Z" fill="#F99F93"/>
<path d="M23.133 87.2442C27.6649 87.0205 31.1572 83.1683 30.9333 78.6402C30.7094 74.112 26.8542 70.6225 22.3223 70.8462C17.7905 71.0699 14.2982 74.922 14.522 79.4502C14.7459 83.9784 18.6012 87.4678 23.133 87.2442Z" fill="white"/>
<path d="M49.8918 40.1832C52.5037 45.3078 50.4617 51.5712 45.3804 54.1809C40.2517 56.7907 33.9832 54.7503 31.3713 49.6257C28.7595 44.5011 30.8015 38.2377 35.8827 35.628C41.0115 33.0182 47.28 35.0586 49.8918 40.1832Z" stroke="white" stroke-width="8"/>
<defs>
<linearGradient id="paint0_linear_215_22639" x1="227.227" y1="216.671" x2="222.547" y2="216.671" gradientUnits="userSpaceOnUse">
<stop stop-color="#FF928E"/>
<stop offset="1" stop-color="#FEB3B1"/>
</linearGradient>
<linearGradient id="paint1_linear_215_22639" x1="256.98" y1="212.776" x2="251.387" y2="212.776" gradientUnits="userSpaceOnUse">
<stop stop-color="#FF928E"/>
<stop offset="1" stop-color="#FEB3B1"/>
</linearGradient>
</defs>
</svg>
