<svg width="308" height="161" viewBox="0 0 308 161" fill="none" xmlns="http://www.w3.org/2000/svg">
<path d="M36.4236 11.8298C37.3543 10.7039 38.1381 9.48009 39.5097 8.79475C40.3425 8.40313 41.2732 8.20732 42.3019 8.30522C43.3307 8.35418 44.3594 8.69685 45.3391 9.23533C46.2698 9.77381 47.1026 10.4592 47.7394 11.2914C48.3273 12.1235 48.7192 13.0047 48.8171 13.9348C49.16 17.4594 45.3391 19.3196 42.4979 21.3267C38.8239 23.8722 36.4236 27.5927 35.5418 31.9005C35.0519 34.544 35.003 37.5301 32.7986 39.1456C30.4962 40.81 26.3323 40.1736 23.4911 38.1175C20.6499 36.0615 19.0823 32.8796 18.8374 29.9424C18.4945 25.5856 19.7192 21.6694 23.785 19.9071C28.5857 17.7531 33.3374 15.6482 36.4236 11.8298Z" fill="#E0F5FF"/>
<path d="M278.76 126.674C285.128 124.569 289.635 119.135 292.231 113.946C294.778 108.757 295.317 103.274 294.533 98.134C293.603 91.8191 290.908 85.7979 292.476 79.2382C293.554 74.5387 296.787 69.6924 295.66 65.2866C294.337 59.9508 286.646 57.8947 279.739 59.706C267.101 63.0348 261.859 74.4408 257.157 85.6021C250.396 101.757 254.707 134.8 278.76 126.674Z" fill="#E0F5FF"/>
<path d="M238.052 99.8476C237.954 89.127 241.285 80.3644 245.841 72.8256C259.606 50.2584 277.927 39.4887 264.358 17.9984C256.667 5.85806 230.116 -4.27519 200.92 2.82298C188.38 5.85806 177.113 11.1939 166.042 16.7746C144.684 27.5442 101.38 15.6486 71.498 19.3201C49.9929 21.9636 2.18206 58.0908 92.954 113.652C191.417 173.864 238.444 145.619 238.052 99.8476Z" fill="#E0F5FF"/>
<path d="M194.17 35.8788L192.223 59.3388C191.987 61.9979 194.111 64.1844 196.706 64.1253C199.537 64.0662 200.658 66.8436 203.843 66.3708C207.265 65.8981 209.565 62.4707 208.798 59.0433L205.908 33.5742L194.17 35.8788Z" fill="#FFD0B4"/>
<path d="M187.386 15.0188C187.15 15.3734 183.257 41.1379 183.257 41.1379L197.886 43.0289L205.2 19.1553C205.318 19.2144 190.571 9.22769 187.386 15.0188Z" fill="#FFD0B4"/>
<path d="M200.363 23.292L197.532 36.1743C197.473 36.3516 197.414 36.4698 197.355 36.6471C196.883 37.5925 194.936 40.5472 192.046 38.4198C189.392 36.4698 186.914 34.8152 184.791 34.697C183.847 34.697 183.021 35.347 182.903 36.2925C182.549 38.6562 181.841 43.9746 181.959 48.6429C181.959 49.5884 182.726 50.3566 183.67 50.4748C186.501 50.6521 192.459 50.8885 197.355 49.943C198.004 49.8839 198.535 49.293 198.771 48.702C199.773 45.5701 202.9 35.9379 204.079 33.456C205.259 31.0923 208.857 30.7378 210.273 30.6196C210.804 30.6196 211.217 30.4423 211.571 30.0286C212.691 28.7286 214.874 25.4785 210.981 22.4056C210.155 21.7556 210.037 20.5147 210.745 19.8056C212.102 18.21 213.399 15.4327 210.568 12.6553C207.619 9.81884 204.374 10.7052 202.369 11.7098C201.602 12.0644 200.599 11.828 200.068 11.178C199.773 10.7643 199.242 10.4689 198.535 10.7052C197.473 10.9416 196.47 10.1734 196.411 9.05063C196.175 6.98238 195.113 4.55957 191.515 3.90954C185.027 2.72768 181.9 9.287 182.077 13.8372C182.254 18.3873 189.274 19.2737 193.344 18.5055C196.352 17.8555 199.007 20.6919 200.127 22.0511C200.363 22.1693 200.481 22.7602 200.363 23.292Z" fill="#0A213E"/>
<path d="M203.018 37.9468C203.018 37.9468 203.077 30.0284 206.321 29.2602C209.506 28.492 213.045 30.7375 210.332 35.524C206.911 41.4333 203.018 37.9468 203.018 37.9468Z" fill="#FFD0B4"/>
<path d="M126.807 33.751L118.431 55.0835C118.313 55.4381 118.431 55.8518 118.726 56.0881C120.672 57.3291 127.574 62.0565 136.009 56.3836C136.953 55.8518 137.425 54.8472 137.661 53.7244L141.141 33.9873L126.807 33.751Z" fill="#F99F93"/>
<path d="M146.98 17.9144C146.98 17.9144 148.986 37.0015 145.329 43.029C141.73 48.9383 131.526 44.2699 124.506 35.4651L124.978 15.9053L146.98 17.9144Z" fill="#F99F93"/>
<path d="M128.341 27.4282C128.695 27.4282 129.167 26.9554 129.049 26.5418C128.754 25.3008 128.4 22.7007 128.695 20.6325C128.695 20.6325 127.515 19.037 133.414 19.9233C139.194 20.8097 147.924 22.0507 151.464 18.1506C154.885 14.3686 155.062 1.48633 144.68 7.6911C144.326 7.92747 143.795 7.6911 143.677 7.27745C143.205 5.44556 141.554 1.19087 136.658 1.30905C132.116 1.42724 130.582 4.14552 130.051 5.50466C129.874 5.9774 129.403 6.15468 128.99 5.85921C127.279 4.67735 122.737 2.49091 118.667 6.45014C115.364 9.64117 115.541 12.4185 116.19 13.7777C116.367 14.2504 116.072 14.7823 115.423 14.7823C113.948 14.605 112.002 15.0777 110.94 18.1506C109.524 22.3462 114.243 23.8235 115.6 24.2371C115.836 24.2962 116.072 24.4144 116.072 24.6508C116.72 26.3054 119.552 33.692 124.802 36.5285C125.215 36.8239 125.863 36.4103 125.804 35.8785L126.217 27.96C126.217 27.6054 126.453 27.31 126.866 27.31L128.341 27.4282Z" fill="#FC682D"/>
<path d="M128.99 28.6688C128.99 28.6688 124.625 22.2276 122.855 25.4777C121.085 28.7279 126.158 32.6871 129.579 32.4507L128.99 28.6688Z" fill="#F99F93"/>
<path d="M107.577 147.505L106.87 129.954L149.281 128.418L151.464 147.564H107.577V147.505Z" fill="#1B4D8F"/>
<path d="M147.04 76.8891L161.963 93.4351C164.441 96.1534 166.21 98.6944 169.69 99.6399C172.168 100.349 177.359 100.644 178.656 98.9899C180.485 96.7444 181.606 92.9033 179.069 88.0577C177.418 84.8667 162.966 71.9844 162.966 71.9844L147.04 76.8891Z" fill="#FFBBAB"/>
<path d="M152.112 81.8528C152.171 82.6801 156.005 88.5894 156.005 88.5894L168.806 80.2573C168.806 80.2573 160.606 60.6975 154.59 59.3975L152.112 81.8528Z" fill="url(#paint0_linear_215_22147)"/>
<path d="M171.755 57.8019L171.932 51.7153L171.578 43.9742L170.516 37.5921C170.516 37.5921 170.221 36.9421 169.454 37.4148C168.746 37.8876 169.336 41.3741 169.336 41.3741L169.454 44.0333C169.454 44.0333 169.041 46.0424 168.864 45.8651C168.687 45.6879 168.216 42.1423 168.216 42.1423L166.859 34.5193C166.859 34.5193 166.564 33.692 165.738 33.9874C165.266 34.1647 164.971 34.8738 165.03 36.0557C165.089 37.2376 165.561 39.0694 165.62 39.7195C165.679 40.3695 166.033 44.0924 166.033 44.0924L163.733 35.583C163.733 35.583 163.32 32.8647 162.258 33.1601C161.196 33.5738 161.904 35.583 161.963 36.4103C162.022 37.2967 163.497 43.0878 163.438 44.6833C163.32 46.2788 163.084 45.5106 163.084 45.5106C163.084 45.5106 162.435 42.8514 162.022 40.724C161.55 38.5967 160.842 37.4148 160.016 37.2376C159.191 37.0603 160.252 41.965 160.252 41.965L161.668 48.7607L161.314 50.9471L159.898 48.9971C159.898 48.9971 159.839 46.397 158.424 45.3924C156.949 44.3287 156.595 45.5106 156.595 45.5106L159.309 55.3791C159.957 56.9746 164.087 60.1065 164.087 60.1065L164.794 70.0342L173.937 69.7978L171.755 57.8019Z" fill="#FFBBAB"/>
<path d="M166.151 92.3714L164.205 61.4658L171.991 58.8066L177.595 92.3714H166.151Z" fill="#FFBBAB"/>
<path d="M152.938 87.703L153.528 81.7937L155.593 60.1066C154.531 58.9838 150.284 57.2701 150.284 57.2701L137.661 53.7245C137.661 53.7245 137.72 56.5019 130.936 56.5019C122.914 56.6201 119.552 51.5381 119.552 51.5381C115.541 52.8381 106.752 56.2064 106.752 56.2064L103.743 84.4529L103.566 93.7305L106.221 141.182C106.221 141.182 150.579 138.937 151.405 138.818L149.281 121.681L152.938 87.703Z" fill="url(#paint1_linear_215_22147)"/>
<path opacity="0.3" d="M104.392 107.44L104.864 116.127C104.864 116.127 136.127 110.631 141.908 108.268C149.045 105.372 152.938 102.89 152.938 102.89L153.056 99.8765L104.392 107.44Z" fill="black"/>
<path d="M105.218 58.6294C105.218 58.6294 97.7266 59.8113 96.193 69.3843C95.1902 75.53 92.7127 98.2217 96.8418 105.49C101.62 113.94 144.149 104.367 144.149 104.367L145.801 95.2671L112.414 95.6216L108.226 72.5162L105.218 58.6294Z" fill="#FFBBAB"/>
<path d="M93.1846 90.7761H114.184L108.403 55.6157C108.403 55.6157 96.3699 58.0976 94.7772 70.6844C93.2436 83.3894 93.1846 90.7761 93.1846 90.7761Z" fill="url(#paint2_linear_215_22147)"/>
<path d="M166.859 93.9668L166.21 102.949L163.202 106.731L155.946 116.422L164.735 117.013C164.735 117.013 175.058 114.413 176.592 111.222C178.125 108.031 178.184 93.9668 178.184 93.9668H166.859Z" fill="#FFD0B4"/>
<path d="M184.555 148.215L235.401 147.978L227.143 99.9946L226.907 85.6941L223.604 59.7523L208.445 57.8613C208.445 57.8613 207.914 62.8842 199.892 62.766C192.046 62.6479 192.282 59.2796 192.282 59.2796L178.892 64.3616C178.892 64.3616 171.578 67.9662 170.221 71.3936C168.924 74.7619 166.328 94.1444 166.328 94.1444L177.831 94.0262L187.386 130.723L184.555 148.215Z" fill="#133869"/>
<path d="M223.25 60.1064C223.25 60.1064 228.913 60.6974 231.921 64.7157C234.752 68.3795 240.061 79.9026 239.943 80.1981C239.825 80.4935 227.261 88.7075 227.261 88.7075L224.135 82.9754L223.25 60.1064Z" fill="#133869"/>
<path d="M147.629 114.177C147.629 114.177 149.516 115.359 150.696 115.241C151.876 115.063 155.71 114.177 155.71 114.177C155.71 114.177 155.769 114.532 156.831 115.241C157.834 115.95 164.027 116.954 166.623 116.659C169.218 116.363 173.583 114.827 173.583 114.827L172.285 107.736L160.665 109.45L147.747 112.286V113.35V114.118H147.629V114.177Z" fill="#924D42"/>
<path d="M154.059 110.513C154.059 110.513 153.174 114.532 153.646 115.122C154.118 115.713 154.708 115.832 155.062 115.063C155.415 114.295 156.005 111.518 156.005 111.518L156.418 110.513C156.418 110.513 155.828 117.132 157.008 117.486C158.07 117.841 158.719 117.486 158.719 117.486C158.719 117.486 160.901 119.2 161.019 116.482C161.196 113.763 161.963 110.513 161.963 110.513L162.494 109.686V111.163C162.494 111.163 161.373 114.709 161.963 115.182C162.612 115.654 163.261 116.009 163.674 115.418C164.087 114.827 165.974 110.69 166.387 109.272C166.387 109.272 167.685 111.163 169.454 111.222C170.811 111.222 171.637 110.631 171.106 109.745C170.516 108.859 169.1 108.09 169.1 108.09L167.272 103.658L162.789 102.536H157.657L154.059 110.513Z" fill="#FFD0B4"/>
<path d="M143.146 106.553C143.146 106.553 148.042 108.444 150.342 108.976C152.643 109.508 164.853 108.444 164.735 107.617C164.617 106.849 163.024 106.14 161.904 106.021C160.783 105.844 157.598 105.312 157.598 105.312H166.21L170.398 107.972C170.398 107.972 171.872 107.381 171.401 106.14C171.165 105.49 167.861 102.949 167.861 102.949L159.78 100.999L145.977 100.821L143.146 106.553Z" fill="#EFA884"/>
<path d="M145.742 95.208C145.742 95.208 161.786 97.9263 162.081 98.2218C162.376 98.5172 165.797 101.767 165.797 101.767C165.797 101.767 171.106 103.481 170.339 104.308C169.572 105.136 168.039 104.486 168.039 104.486C168.039 104.486 170.044 107.204 168.982 107.618C167.98 108.09 166.859 107.677 166.151 106.849C165.443 106.081 163.32 103.126 163.32 103.126C163.32 103.126 164.853 108.918 163.851 109.036C162.907 109.154 161.432 109.095 160.901 107.618C160.37 106.14 160.311 105.313 160.311 105.313L157.539 101.472C157.539 101.472 158.306 108.149 157.539 108.681C157.539 108.681 155.71 108.977 155.18 107.795C154.59 106.613 153.941 103.895 153.941 103.895L152.643 100.881L152.348 102.713C152.348 102.713 153.351 106.199 152.584 106.377C151.817 106.554 150.756 106.258 150.284 105.431C149.812 104.604 149.222 103.658 149.045 102.89C148.927 102.417 148.16 100.822 148.16 100.822L144.208 100.172L145.742 95.208Z" fill="#FFBBAB"/>
<path opacity="0.3" d="M177.241 118.077C178.243 118.077 216.29 115.241 216.29 115.241L229.68 112.463L226.377 97.5718L177.359 113.409L177.241 118.077Z" fill="black"/>
<path d="M172.168 107.736L207.383 99.9947C207.383 99.9947 239.413 82.1486 239.885 81.8532C240.415 81.4986 237.407 99.9947 237.407 99.9947C237.407 99.9947 216.821 109.095 210.922 110.395C207.678 111.104 172.404 115.123 172.404 115.123L172.168 107.736Z" fill="#924D42"/>
<path d="M218.118 112.463L210.981 94.4985L231.508 80.198L238.469 79.0752L236.64 104.544L218.118 112.463Z" fill="#2A74D8"/>
<path d="M264.836 31.4464C272.091 28.3145 292.087 41.0195 285.953 48.6425C284.006 51.8335 290.731 63.7112 283.829 62.7657C285.127 72.1615 280.467 65.7794 277.872 68.6159C285.54 82.3846 236.817 76.5935 231.39 71.2751C225.256 67.1977 220.242 62.0566 221.245 54.9063C226.081 49.8834 224.725 36.0556 231.567 33.9874C224.725 28.4326 258.465 14.9004 264.836 31.4464Z" fill="#0A213E"/>
<path d="M263.892 59.2202L262.653 80.0209C262.771 80.3164 262.653 80.7301 262.359 80.9073C260.589 82.0301 255.811 89.3576 248.202 84.2166C247.376 83.6847 246.904 82.7983 246.727 81.7937L253.57 62.3521L263.892 59.2202Z" fill="#924D42"/>
<path d="M238.882 41.3151C238.882 41.3151 238.882 63.475 243.719 70.2116C247.022 76.0027 254.041 74.4072 265.013 58.0384L264.6 40.5469L238.882 41.3151Z" fill="#924D42"/>
<path d="M232.747 52.1876C232.806 50.9467 233.16 49.7648 234.104 48.8193C234.576 48.3466 235.166 47.933 235.578 47.4011C236.463 46.2193 236.345 44.6237 236.758 43.2646C237.289 41.4327 238.705 39.9554 240.474 39.2463C242.008 38.7144 243.719 38.7735 245.075 38.0053C246.078 37.4735 246.904 36.528 247.966 36.0553C250.089 35.1098 252.508 36.1734 254.513 37.2962C254.926 38.8326 253.923 40.1918 252.979 41.3736C252.036 42.6737 250.443 43.501 248.791 43.5601C247.553 43.6192 246.078 43.3828 245.193 44.2101C244.308 45.1556 244.662 46.7511 243.837 47.7557C242.716 49.233 240.238 48.7012 238.646 49.6467C237.407 50.3558 236.817 51.8331 236.227 53.1331C235.578 54.4332 234.458 55.7332 233.042 55.6741C232.924 54.6105 232.629 53.3695 232.747 52.1876Z" fill="#0A213E"/>
<path d="M261.65 37.4746C265.838 39.602 268.729 43.5612 271.914 46.9295C272.858 47.9932 273.802 49.0568 273.979 50.3569C274.097 51.4796 273.684 52.6024 273.094 53.4888C271.442 56.5025 270.911 57.3889 268.08 59.5754L265.308 60.6981C262.358 58.2753 261.002 55.0843 262.476 52.5433C260.648 50.416 260.176 47.4613 261.296 45.1567C260.058 43.2066 260.766 39.5429 261.65 37.4746Z" fill="#0A213E"/>
<path d="M273.271 81.5574L263.066 77.6572C263.066 77.6572 256.283 82.5029 250.207 81.4983C247.789 81.2028 247.789 78.78 247.789 78.78L238.41 79.1346C238.41 79.1346 229.857 86.2257 228.087 93.4941C227.025 97.8079 226.79 103.363 226.79 108.267C226.79 110.217 230.388 118.845 230.388 118.845L231.567 130.841V148.037H269.201L274.864 96.1533L273.271 81.5574Z" fill="#2A74D8"/>
<path opacity="0.3" d="M240.651 103.481C240.651 103.481 247.73 129.718 251.682 134.505C255.634 139.35 257.757 140.71 263.833 141.182C269.909 141.655 272.15 134.623 273.507 131.905C274.864 129.127 274.628 125.05 274.628 125.05L266.37 120.382L259.822 131.196L242.893 102.949L240.651 103.481Z" fill="black"/>
<path d="M241.772 106.849C241.772 106.849 248.968 123.631 254.159 133.263C258.524 141.418 267.431 140.473 270.321 135.982C273.153 131.432 277.872 117.899 277.872 117.899L266.192 115.831L263.066 125.936L249.735 105.49L241.772 106.849Z" fill="#924D42"/>
<path d="M254.041 104.486L252.921 99.4628C252.921 99.4628 252.39 98.0446 251.564 99.2855C250.738 100.526 251.092 102.831 251.092 102.831C251.092 102.831 249.499 90.8943 248.143 89.5943C247.612 89.1215 246.963 89.7715 246.963 89.7715C246.963 89.7715 246.786 87.4078 246.078 87.4669C245.37 87.4669 244.663 89.2397 244.663 89.2397C244.663 89.2397 243.778 88.767 243.011 89.5943C242.362 90.3625 242.362 96.8627 242.362 96.8627C242.362 96.8627 241.772 91.4852 240.769 91.1307C239.236 90.5988 239.236 92.608 239.236 92.608L239.708 99.5219C239.708 99.5219 240.534 104.308 241.595 107.263C242.657 110.277 243.247 110.277 243.247 110.277L250.089 110.1C250.089 110.1 251.623 108.681 252.862 107.559C253.923 106.79 254.336 105.668 254.041 104.486Z" fill="#924D42"/>
<path d="M271.619 81.085C271.619 81.085 279.818 82.7987 281.883 92.0763C283.77 100.645 283.181 118.845 283.181 118.845L260.825 114.886L266.31 83.8032L271.619 81.085Z" fill="url(#paint3_linear_215_22147)"/>
<path d="M92.5947 41.67C92.0638 37.9471 90.4712 34.9334 87.9938 32.0969C86.932 30.915 85.8113 29.7923 84.4546 28.9059C81.6822 27.0149 79.9716 25.774 75.6656 25.1239C75.0167 25.0058 74.3679 25.183 73.778 25.3012L72.0674 26.3649C77.6121 27.724 84.2776 30.5605 87.05 35.5243C89.8813 40.4881 90.7661 46.4565 89.8813 52.1294C89.2915 55.8523 87.9348 59.3388 86.932 62.9434C85.9292 66.5481 85.2214 70.3301 85.9292 73.9938C88.9965 72.812 88.1117 74.8211 89.4094 71.8074C90.7072 68.7937 91.356 62.1752 92.1228 58.9842C93.3026 53.7249 93.3616 46.8111 92.5947 41.67Z" fill="#2D9EE0"/>
<path d="M86.9318 34.1064C82.2129 26.838 74.7216 26.9562 74.7216 26.9562C67.1123 26.9562 55.197 35.111 53.6043 46.2796C52.6016 53.1935 56.3177 74.9988 56.3177 74.9988L60.2698 76.417H85.988C85.988 75.9443 87.8166 71.985 88.2885 70.685C90.471 59.1028 92.6535 42.084 86.9318 34.1064Z" fill="#473F47"/>
<path d="M76.5505 26.9561C83.393 31.6244 85.5755 38.2428 86.6373 47.1659C87.3451 53.1933 86.6373 60.2845 84.7497 63.5346C80.7976 70.4485 69.0592 64.421 62.5117 54.8479L64.9302 33.929L76.5505 26.9561Z" fill="#FFC19D"/>
<path d="M77.7301 65.3658L78.7918 81.5573C78.7918 81.8528 78.6739 82.2073 78.3789 82.3255C76.7863 83.0937 70.9466 85.9893 65.8148 80.0209C65.2249 79.43 65.0479 78.4845 65.1069 77.539L66.5816 59.4565L77.7301 65.3658Z" fill="#FFC19D"/>
<path d="M61.8035 49.4702C61.8035 49.4702 68.7049 54.8477 72.1261 39.8971C74.2497 29.4968 84.6903 36.0561 84.6903 36.0561L78.7916 26.9558C78.7916 26.9558 77.199 26.0694 75.0755 26.483C70.4745 27.3694 63.2781 29.9695 63.1602 30.0877C62.9832 30.265 60.1519 36.2334 60.1519 36.2334L61.8035 49.4702Z" fill="#473F47"/>
<path d="M63.3372 48.8793C63.3962 48.2293 62.6883 46.6928 62.0985 46.5747C60.4468 46.2201 57.3795 46.2201 57.1436 50.4748C56.7897 56.325 62.7473 55.4977 62.8063 55.3204C62.7473 55.2022 63.2192 51.1248 63.3372 48.8793Z" fill="#FFC19D"/>
<path d="M61.0371 53.0155C61.0371 53.0155 60.9191 53.0746 60.7421 53.1337C60.5652 53.1928 60.2702 53.2519 59.9753 53.1337C59.3854 52.8973 58.9136 51.8337 58.9136 50.77C58.9136 50.2382 59.0905 49.7063 59.2675 49.2927C59.4444 48.879 59.7394 48.5836 60.0933 48.5245C60.3882 48.4654 60.6242 48.6427 60.6831 48.8199C60.7421 48.9972 60.6831 49.1154 60.7421 49.1154C60.7421 49.1154 60.8601 48.9972 60.8601 48.7608C60.8601 48.6427 60.8011 48.5245 60.6242 48.4063C60.5062 48.2881 60.2702 48.229 60.0933 48.229C59.6214 48.229 59.2085 48.6427 58.9725 49.0563C58.7366 49.529 58.5596 50.0609 58.5006 50.6518C58.4417 51.8337 59.0315 52.9564 59.8573 53.2519C60.2702 53.3701 60.6242 53.2519 60.8011 53.1337C61.0371 53.1337 61.0961 53.0155 61.0371 53.0155Z" fill="#FF9C6A"/>
<path d="M49.5937 147.919C49.5937 147.919 49.0628 143.014 52.1891 134.918C54.7255 128.3 54.7845 124.577 54.7845 124.577L93.7157 121.918L95.9572 147.919H49.5937Z" fill="#0A213E"/>
<path d="M94.4823 115.004C94.7183 111.104 95.2491 100.408 96.4879 96.4485C98.3754 90.5392 97.0777 84.0981 93.1256 79.3707L87.8168 73.1068L79.0868 71.7477C79.0868 71.7477 79.0868 77.8342 74.4859 78.8979C66.6996 80.6116 61.5678 71.2158 61.5678 71.2158C60.8009 71.2158 49.7115 73.5795 46.1723 76.9478C42.5151 80.4343 36.5574 89.5937 34.8468 92.1938C34.8468 92.1938 23.1085 109.39 21.3979 114.058C20.1002 117.604 21.2799 120.322 21.9877 121.445C22.3417 122.509 36.1445 138.109 44.5206 144.314L45.1695 143.073L49.5345 135.627L35.3187 117.072L48.3548 103.185L50.9502 100.762L51.717 104.072L56.4949 119.436C56.4949 119.436 51.4811 132.141 50.5963 138.7C50.5963 138.7 79.3817 148.273 98.6114 142.955C98.6114 142.837 93.9514 123.986 94.4823 115.004Z" fill="url(#paint4_linear_215_22147)"/>
<path d="M64.6352 132.141C64.6352 132.141 59.3264 130.723 58.7955 131.019C58.2647 131.314 54.3126 133.382 54.3126 133.382C54.3126 133.382 53.0738 134.86 52.425 135.391C52.425 135.391 51.0683 136.691 50.1245 136.751C49.1807 136.81 48.6498 136.573 48.6498 136.573L44.9927 142.955C44.9927 142.955 47.1752 145.024 48.2959 145.024C49.4167 145.024 55.7872 142.305 55.7872 142.305L57.3209 141.951C57.3209 141.951 63.1016 142.778 63.5145 141.064L63.5735 140.592L57.9107 139.469L55.7282 139.587L59.5624 138.582C59.5624 138.582 64.9891 138.819 65.461 138.76C65.9919 138.701 66.6408 137.932 66.4638 137.519L65.3431 137.282C65.3431 137.282 66.6408 136.573 66.6998 135.805L61.6859 134.446C61.9218 134.505 65.1071 133.264 64.6352 132.141Z" fill="#FFC19D"/>
<path d="M121.439 94.6759L100.971 79.3117L93.3029 74.2297L87.6401 73.1069L90.0586 97.0396H95.3674L118.254 107.026L146.332 109.39L146.745 100.703L121.439 94.6759Z" fill="url(#paint5_linear_215_22147)"/>
<path d="M84.1004 30.6191C65.7555 24.5916 64.3989 41.0195 62.6882 53.4881C60.2108 71.216 73.1879 75.0571 73.1879 75.0571L57.0845 72.0433C57.0845 72.0433 49.2983 68.3205 49.3573 58.5701C49.4163 50.4744 50.8909 41.6104 57.1435 32.9238C60.0928 28.7872 64.5168 25.8917 69.4717 25.1235C79.8534 23.528 83.4515 30.0873 84.1004 30.6191Z" fill="#2D9EE0"/>
<path d="M90.2942 71.2162C89.2915 70.3298 89.7044 69.9753 86.932 69.7389C83.8057 69.4434 80.3255 71.4526 77.1992 71.8662C74.0729 72.2799 70.7697 71.8662 68.1153 70.0935C65.048 68.0252 63.3373 64.4796 61.8627 61.1704L52.0119 64.8933C50.5372 66.1342 49.4165 69.0889 49.4165 72.6344C49.4165 73.0481 49.6524 74.23 49.7704 74.4072C50.2423 75.0573 55.846 72.3981 56.4949 72.8117C59.9751 75.2345 61.4498 79.0756 64.5761 81.853C68.2922 85.1622 71.6545 87.7623 74.3089 87.6441C76.9043 87.5259 81.6822 84.7485 83.4518 81.6166C85.0444 78.6619 86.4601 76.4755 87.6988 74.23C88.3477 73.0481 90.6482 74.7027 90.9431 73.2845C91.1201 72.4572 90.8251 71.6299 90.2942 71.2162Z" fill="#2D9EE0"/>
<g opacity="0.3">
<path opacity="0.3" d="M61.3318 37.5331C61.4498 37.1194 61.5088 36.7649 61.5678 36.3512C61.6858 35.583 60.565 35.3466 60.3291 36.0558C59.5033 38.3013 58.6185 40.6059 57.7926 42.7924C56.082 47.2834 54.3714 51.8336 54.3124 56.6201C54.1945 61.4067 55.7281 66.6659 59.7982 69.2069L58.6185 67.1387C55.5512 62.9431 55.4922 57.3292 56.6719 52.2472C57.7926 47.2834 60.0931 42.556 61.3318 37.5331Z" fill="black"/>
</g>
<g opacity="0.3">
<path opacity="0.3" d="M86.2243 74.7023C81.2694 76.8887 75.7837 77.716 70.4159 77.0069C65.0481 76.2978 60.6241 74.7614 56.436 71.334C56.436 71.334 63.1015 75.2341 73.5422 75.2932C82.2132 75.4114 86.2243 74.7023 86.2243 74.7023Z" fill="black"/>
</g>
<path d="M260.707 55.2017C260.707 55.2017 265.366 48.3469 267.254 51.8334C269.142 55.3199 265.838 59.5155 262.24 59.2791L260.707 55.2017Z" fill="#924D42"/>
<path d="M249.853 73.0478C249.853 73.0478 255.87 71.0387 259.527 65.3657C259.527 65.3657 257.227 72.0432 249.086 75.2343L249.853 73.0478Z" fill="#66312B"/>
<path d="M139.076 45.5701C139.076 45.5701 132.765 44.1518 128.458 39.0107C128.458 39.0107 130.346 44.9791 138.84 47.0474L139.076 45.5701Z" fill="#E88880"/>
<path d="M77.7891 66.3703C77.7891 66.3703 71.4775 65.2475 66.9355 60.2246C66.9355 60.2246 69.354 66.193 77.9071 67.9067L77.7891 66.3703Z" fill="#EFA884"/>
<rect y="148.005" width="308" height="12.5203" fill="url(#paint6_linear_215_22147)"/>
<rect y="146.753" width="308" height="1.66938" rx="0.834689" fill="#2D9EE0"/>
<defs>
<linearGradient id="paint0_linear_215_22147" x1="158.103" y1="62.4432" x2="162.195" y2="95.0155" gradientUnits="userSpaceOnUse">
<stop stop-color="#2E96E3"/>
<stop offset="1" stop-color="#0B2343"/>
</linearGradient>
<linearGradient id="paint1_linear_215_22147" x1="128.082" y1="56.5271" x2="133.387" y2="139.219" gradientUnits="userSpaceOnUse">
<stop stop-color="#2E96E3"/>
<stop offset="1" stop-color="#0B2343"/>
</linearGradient>
<linearGradient id="paint2_linear_215_22147" x1="98.49" y1="55.1959" x2="111.992" y2="147.499" gradientUnits="userSpaceOnUse">
<stop stop-color="#2E96E3"/>
<stop offset="1" stop-color="#0B2343"/>
</linearGradient>
<linearGradient id="paint3_linear_215_22147" x1="272.021" y1="81.065" x2="272.021" y2="118.814" gradientUnits="userSpaceOnUse">
<stop stop-color="#2A74D8"/>
<stop offset="1" stop-color="#2A74D8"/>
</linearGradient>
<linearGradient id="paint4_linear_215_22147" x1="59.7188" y1="149.212" x2="59.7188" y2="92.718" gradientUnits="userSpaceOnUse">
<stop stop-color="#AAB5C2"/>
<stop offset="1" stop-color="#F3F3F3"/>
</linearGradient>
<linearGradient id="paint5_linear_215_22147" x1="117.173" y1="150.329" x2="117.173" y2="93.0264" gradientUnits="userSpaceOnUse">
<stop stop-color="#AAB5C2"/>
<stop offset="1" stop-color="#F3F3F3"/>
</linearGradient>
<linearGradient id="paint6_linear_215_22147" x1="154" y1="148.005" x2="154" y2="160.526" gradientUnits="userSpaceOnUse">
<stop stop-color="#EFFAFF"/>
<stop offset="1" stop-color="#EFFAFF" stop-opacity="0"/>
</linearGradient>
</defs>
</svg>
