<svg width="227" height="255" viewBox="0 0 227 255" fill="none" xmlns="http://www.w3.org/2000/svg">
<path d="M206.312 101.273C226.106 92.3972 232.877 64.643 221.434 39.2818C209.992 13.9206 184.67 0.556208 164.875 9.43161C145.081 18.307 138.311 46.0613 149.754 71.4225C161.196 96.7837 186.518 110.148 206.312 101.273Z" fill="#E0F5FF"/>
<path d="M54.5962 152.983C39.8262 114.2 4.70366 112.842 0.483678 131.861C-2.76923 146.409 11.693 149.17 19.8692 160.345C24.4409 166.611 29.584 186.857 44.4858 184.578C52.4862 183.351 62.7724 174.324 54.5962 152.983Z" fill="#E0F5FF"/>
<path d="M173.855 122.877C158.381 117.005 143.963 107.145 137.633 84.7082C133.457 69.8088 131.479 50.2642 124.578 36.5041C100.489 -11.2619 54.9039 -6.57292 27.2103 18.7124C7.42912 36.767 -3.20876 65.3389 9.71494 92.8153C29.5401 134.928 77.7182 108.372 83.8724 133.044C88.7517 152.588 43.5627 188.917 83.257 229.847C106.335 253.686 147.26 265.255 183.086 243.344C224.407 217.971 249.419 151.537 173.855 122.877Z" fill="#E0F5FF"/>
<path d="M143.919 91.7194C144.666 94.7432 145.194 97.8983 145.457 101.229C145.589 102.806 143.215 102.982 143.084 101.404C142.38 92.9464 140.622 91.325 142.468 90.8868C143.128 90.7553 143.743 91.0621 143.919 91.7194ZM143.743 115.427C144.402 115.559 144.754 116.128 144.71 116.742C144.226 119.897 143.391 122.965 142.336 126.076C141.853 127.522 139.611 126.733 140.094 125.287C141.061 122.395 141.897 119.327 142.38 116.391C142.6 115.252 143.875 115.383 143.743 115.427ZM134.6 138.258C134.819 138.302 134.951 138.346 135.039 138.434C135.567 138.784 135.743 139.529 135.391 140.055C133.633 142.684 131.654 145.27 129.5 147.592C129.017 148.031 128.358 148.118 127.83 147.68C127.39 147.198 127.303 146.541 127.742 145.971C129.808 143.692 131.698 141.194 133.413 138.697C133.72 138.39 134.16 138.171 134.6 138.258ZM117.148 155.612C117.456 155.612 117.72 155.831 117.896 156.094C118.247 156.62 118.071 157.365 117.544 157.715C114.818 159.512 112.049 161.002 109.104 162.317C108.488 162.58 107.785 162.273 107.521 161.747C107.258 161.133 107.565 160.432 108.093 160.169C110.862 158.986 113.676 157.452 116.181 155.743C116.621 155.568 116.884 155.48 117.148 155.612ZM95.1692 165.428C95.2571 166.085 94.8175 166.655 94.246 166.786C91.0811 167.312 87.8281 167.619 84.7071 167.575C83.2125 167.619 83.1686 165.297 84.6632 165.297C87.7842 165.209 90.8173 165.034 93.8944 164.464C94.4658 164.42 95.0812 164.814 95.1692 165.428Z" fill="white"/>
<path d="M65.3218 162.142C69.322 163.5 70.9045 163.369 70.5528 164.902C70.4209 165.56 69.7615 165.954 69.1901 165.691C67.6516 165.297 66.113 164.858 64.6624 164.376C64.091 164.157 63.7393 163.544 63.9151 162.887C64.047 162.317 64.6624 161.922 65.3218 162.142Z" fill="white"/>
<path d="M199.394 80.3696C195.57 82.3854 191.394 83.4372 187.218 83.6124C186.558 83.6563 185.987 83.218 185.811 82.6045L183.613 79.2302C180.888 79.0111 178.25 78.31 175.789 77.1268L172.492 79.0111C172.052 79.4494 171.305 79.537 170.777 79.1864C167.305 76.9953 164.184 73.9716 161.854 70.2906C161.502 69.7647 161.59 69.0197 162.03 68.5815L164.14 65.0319C162.953 62.5779 162.25 59.9486 162.03 57.2316L158.469 55.3034C157.854 55.1282 157.414 54.5585 157.458 53.9011C157.634 49.6942 158.733 45.575 160.711 41.7625C161.019 41.1928 161.678 40.886 162.294 41.0613L165.898 40.6669C167.437 38.432 169.371 36.5038 171.613 34.9701L172.008 31.3767C171.832 30.7631 172.14 30.1058 172.712 29.7991C176.536 27.7833 180.712 26.7315 184.888 26.5562C185.547 26.5124 186.119 26.9506 186.295 27.5641L188.273 30.0182C190.998 30.2373 193.636 30.9384 196.097 32.1216L199.57 31.1137C200.01 30.6755 200.757 30.5879 201.284 30.9384C204.757 33.1295 207.878 36.1533 210.208 39.8343C210.56 40.3602 210.472 41.1051 210.032 41.5434L208.45 44.348C209.636 46.802 209.988 49.2998 210.208 52.0168L213.637 54.7776C214.252 54.9529 214.692 55.5226 214.648 56.1799C214.472 60.3868 213.373 64.5061 211.395 68.3186C211.087 68.8883 210.428 69.195 209.812 69.0197L206.296 69.0636C204.757 71.2985 202.823 73.2266 200.581 74.7604L200.098 78.7482C200.273 79.3617 199.966 80.019 199.394 80.3696ZM192.625 61.57C196.229 57.9766 196.229 52.1483 192.625 48.5549C189.02 44.9615 183.174 44.9615 179.569 48.5549C175.965 52.1483 175.965 57.9766 179.569 61.57C183.174 65.1634 189.02 65.1634 192.625 61.57Z" fill="#B8E2F2"/>
<path d="M126.403 97.833C124.106 105.235 120.168 111.901 115.04 117.422C114.26 118.281 112.988 118.486 111.963 117.913L104.907 116.4C101.174 119.549 96.9073 122.044 92.2717 123.679L90.4666 130.264C90.4666 131.409 89.6462 132.431 88.4975 132.677C81.2364 134.313 73.4419 134.394 65.8116 132.677C64.6629 132.431 63.8424 131.409 63.8424 130.264L61.9554 123.066C57.3197 121.471 53.0533 118.976 49.3202 115.787L42.3462 117.872C41.3616 118.445 40.0489 118.24 39.2694 117.381C34.1415 111.82 30.2032 105.153 27.9059 97.7921C27.5777 96.6879 28.029 95.461 29.0546 94.8885L33.1569 89.7765C32.2544 84.9916 32.2544 80.0431 33.1569 75.2583L29.0546 70.1871C28.029 69.6146 27.5777 68.3877 27.9059 67.2835C30.2032 59.8813 34.1415 53.2152 39.2694 47.6942C40.0489 46.8353 41.3206 46.6309 42.3462 47.2034L48.0074 47.776C51.7405 44.627 56.007 42.1323 60.6426 40.4964L63.8014 34.8118C63.8014 33.6667 64.6219 32.6443 65.7705 32.399C73.0317 30.804 80.8261 30.7222 88.4565 32.399C89.6052 32.6443 90.4256 33.6667 90.4256 34.8118L91.9845 40.4146C96.6202 42.0096 100.271 44.7905 104.004 47.9804L111.881 47.1625C112.865 46.59 114.178 46.7945 114.958 47.6533C120.086 53.2152 124.024 59.8813 126.321 67.2426C126.649 68.3468 126.198 69.5737 125.172 70.1462L120.742 74.6448C121.644 79.4297 121.644 84.3782 120.742 89.163L125.172 94.8476C126.239 95.5019 126.731 96.6879 126.403 97.833ZM93.7895 82.5378C93.7895 73.4179 86.3233 65.9748 77.1751 65.9748C68.0268 65.9748 60.5606 73.4179 60.5606 82.5378C60.5606 91.6577 68.0268 99.1008 77.1751 99.1008C86.3233 99.1008 93.7895 91.6986 93.7895 82.5378Z" fill="#B8E2F2"/>
<path d="M135.128 41.4559C133.545 39.4839 132.534 38.8265 133.281 38.213C133.589 37.9501 134.073 37.9501 134.336 38.2569C136.051 40.2288 136.93 40.9738 136.183 41.5873C136.007 41.7626 135.391 41.7626 135.128 41.4559Z" fill="white"/>
<path d="M151.26 96.1017C150.953 95.9702 150.777 95.6635 150.821 95.3567C150.953 94.3926 151.084 93.4724 151.128 92.4645C151.172 92.0262 151.48 91.8071 151.92 91.8071C152.359 91.851 152.667 92.1577 152.579 92.5959C152.535 93.56 152.403 94.5679 152.271 95.532C152.227 95.9702 151.832 96.1893 151.48 96.1455C151.392 96.1017 151.348 96.1017 151.26 96.1017Z" fill="white"/>
<path d="M141.501 61.0004C141.194 60.0363 140.93 59.0284 140.754 58.0643C140.71 57.6261 140.93 57.2755 141.326 57.1878C142.293 56.9249 142.205 58.1081 142.908 60.5621C143.04 60.9127 142.776 61.3509 142.424 61.4824C142.029 61.6139 141.589 61.3509 141.501 61.0004Z" fill="white"/>
<path d="M154.513 65.3828C153.854 63.4108 153.37 61.3074 152.975 59.1163C152.755 58.0646 154.074 57.9769 154.294 58.9848C155.305 64.5502 156.404 65.6019 155.393 65.9087C155.041 65.9963 154.689 65.7772 154.513 65.3828ZM152.843 49.7822C152.491 49.6946 152.228 49.3002 152.184 48.9058C152.228 46.8023 152.447 44.8303 152.799 42.7707C152.975 41.8066 154.25 42.3325 154.074 43.2966C153.766 45.2247 153.502 47.1967 153.458 49.1687C153.502 49.8698 152.799 49.7822 152.843 49.7822ZM156.228 34.7513C156.096 34.7074 156.052 34.6636 155.964 34.6198C155.656 34.4007 155.48 33.8748 155.656 33.5681C156.448 31.859 157.327 30.15 158.382 28.6162C158.601 28.3094 158.997 28.2656 159.305 28.5724C159.569 28.8791 159.7 29.3173 159.481 29.6679C158.514 31.2017 157.634 32.7793 156.887 34.4445C156.667 34.6198 156.448 34.7951 156.228 34.7513ZM164.58 23.3137C164.404 23.3137 164.228 23.1384 164.14 23.007C163.92 22.6564 163.964 22.1744 164.228 21.9553C165.591 20.7721 167.041 19.808 168.536 18.9315C168.844 18.7563 169.283 18.9315 169.459 19.2821C169.679 19.6765 169.547 20.1586 169.283 20.3338C167.833 21.1226 166.382 22.0867 165.151 23.2261C164.888 23.3576 164.756 23.4014 164.58 23.3137ZM176.009 16.8719C175.921 16.4337 176.097 16.0831 176.405 15.9516C178.119 15.6011 179.877 15.4258 181.636 15.4258C182.471 15.4258 182.647 16.9157 181.855 16.9595C180.141 17.0034 178.471 17.1348 176.8 17.4854C176.492 17.5292 176.097 17.2663 176.009 16.8719Z" fill="white"/>
<path d="M192.801 19.063C190.471 18.1428 189.636 18.2742 189.724 17.2663C189.724 16.8281 190.076 16.5652 190.427 16.7405C191.306 17.0034 192.186 17.3101 193.021 17.6169C193.373 17.7922 193.592 18.1866 193.548 18.6248C193.46 18.9315 193.153 19.1945 192.801 19.063Z" fill="white"/>
<path d="M214.912 40.6233C213.681 38.0378 212.978 37.2929 213.681 36.8546C213.989 36.6794 214.385 36.8108 214.56 37.1614C215.044 38.0817 215.571 39.0019 216.011 39.966C216.231 40.3604 216.099 40.8424 215.791 40.9301C215.484 41.193 215.088 40.9739 214.912 40.6233Z" fill="white"/>
<path d="M188.976 95.5325C188.845 94.2616 190.031 95.2257 194.559 94.6122C195.438 94.5245 195.702 96.0145 194.867 96.146C193.152 96.4089 191.394 96.4527 189.68 96.4089C189.416 96.3651 189.064 96.0145 188.976 95.5325ZM202.032 93.3852C201.812 92.9908 201.988 92.5964 202.296 92.3773C206.516 90.4053 206.823 89.003 207.483 90.1424C207.703 90.4929 207.659 90.975 207.351 91.2379C205.944 92.2896 204.45 93.1661 202.911 93.8234C202.56 93.9549 202.208 93.7358 202.032 93.3852ZM212.538 85.1028C211.703 84.1387 212.934 84.0073 215.263 79.5374C215.703 78.7048 216.802 79.6689 216.362 80.4577C215.483 82.0791 214.472 83.6567 213.417 85.059C213.241 85.4096 212.802 85.4534 212.538 85.1028ZM218.912 72.2192C217.857 71.6933 218.912 70.9045 219.439 65.5582C219.527 64.5503 220.846 64.9447 220.758 65.9088C220.582 67.9246 220.231 69.8966 219.747 71.781C219.615 72.1753 219.22 72.3506 218.912 72.2192ZM219.308 55.8736C218.692 50.3082 217.637 49.2126 218.648 48.9935C219 48.9497 219.352 49.2126 219.483 49.607C219.967 51.6228 220.407 53.7701 220.626 55.8298C220.67 56.2242 220.451 56.5747 220.055 56.5747C219.659 56.6624 219.352 56.3556 219.308 55.8736Z" fill="white"/>
<path d="M157.81 82.6923C156.931 82.1226 156.14 81.5968 155.348 80.9832C155.041 80.7203 154.997 80.2383 155.216 79.9315C155.832 79.1427 156.447 80.063 158.645 81.4653C158.997 81.7282 159.085 82.1226 158.909 82.517C158.601 82.8238 158.162 82.8676 157.81 82.6923Z" fill="white"/>
<path d="M166.909 92.2016C166.909 91.851 166.557 91.5442 165.942 91.3251C166.601 90.9745 166.909 90.5801 166.909 90.2296C166.777 89.0464 163.217 88.4329 158.777 88.8273C154.425 89.1778 150.908 90.361 150.996 91.5442C150.996 91.8948 151.348 92.2016 151.963 92.4207C151.304 92.7712 150.996 93.1656 150.996 93.5162C150.996 93.8668 151.348 94.1735 151.963 94.3927C151.304 94.7432 150.996 95.1376 150.996 95.4882C150.996 95.8388 151.348 96.1455 151.963 96.3646C151.304 96.7152 150.996 97.1096 150.996 97.4602C151.04 97.9422 151.787 98.3805 152.974 98.6434C152.974 98.994 152.974 99.4322 152.974 99.8704C153.15 101.974 155.48 103.639 158.645 103.639C161.766 103.639 164.491 101.36 164.535 99.2569C164.535 98.7749 164.535 98.2928 164.491 97.8984C165.986 97.4164 166.909 96.8029 166.909 96.1894C166.909 95.8388 166.557 95.532 165.942 95.3129C166.601 94.9623 166.909 94.5679 166.909 94.2174C166.909 93.8668 166.557 93.56 165.942 93.3409C166.557 93.0342 166.909 92.596 166.909 92.2016Z" fill="#0A213E"/>
<path d="M148.051 82.0789C147.48 80.1946 146.645 78.4417 145.414 76.9079C142.82 73.6651 138.512 66.9604 138.029 57.8016C137.282 44.5235 149.062 37.9064 159.832 38.8267C170.602 39.7469 181.196 47.7225 180.053 60.0365C179.306 67.6615 175.086 73.3584 171.921 76.6888C169.899 78.7923 168.492 81.3778 167.657 84.1824C166.734 87.6443 164.448 91.8512 159.041 92.158C152.096 92.4647 149.194 86.0229 148.051 82.0789Z" fill="#FC682D"/>
<path d="M160.799 89.5285L164.535 65.1197C164.579 64.6376 164.843 64.2432 165.107 64.3747C165.371 64.4185 165.459 64.9444 165.371 65.4264C165.371 65.4264 165.371 65.4264 165.371 65.4703L161.063 89.7038C161.019 89.8791 160.931 90.0105 160.887 89.9667C160.799 89.8353 160.755 89.7038 160.799 89.5285Z" fill="white"/>
<path d="M156.887 89.7038L153.15 65.295C153.106 64.8129 152.843 64.4185 152.579 64.55C152.315 64.5938 152.227 65.1197 152.315 65.6017C152.315 65.6017 152.315 65.6017 152.315 65.6455L156.623 89.8791C156.667 90.0544 156.755 90.1858 156.799 90.142C156.887 90.0106 156.931 89.8791 156.887 89.7038Z" fill="white"/>
<path d="M164.536 62.9725C164.404 62.841 164.228 62.7972 164.052 62.841L161.942 63.8051L161.195 61.7016C161.151 61.5702 161.063 61.5263 160.931 61.4387C160.667 61.3072 160.36 61.4387 160.316 61.614L158.601 64.7692L157.019 60.2993C156.975 60.1678 156.887 60.124 156.755 60.0364C156.491 59.9049 156.14 59.9926 155.964 60.2117L153.546 63.5421C153.414 63.6736 153.502 63.8489 153.59 63.9804C153.766 64.1118 153.942 64.0242 154.074 63.9365L156.184 61.614L158.074 65.8647C158.074 65.9085 158.118 65.9962 158.25 66.04C158.426 66.0838 158.689 66.04 158.733 65.9085L160.58 62.9725L161.239 64.4624C161.239 64.4624 161.239 64.4624 161.239 64.5062C161.371 64.6377 161.547 64.6815 161.722 64.6377L164.184 63.4545C164.58 63.323 164.624 63.1477 164.536 62.9725Z" fill="white"/>
<path d="M95.4772 242.029C95.4772 242.029 94.8618 245.359 94.5541 248.646C94.4222 249.917 95.4332 251.056 96.708 251.1C101.06 251.363 110.511 251.757 113.896 251.67C114.379 251.67 114.775 251.1 114.555 250.706C114.423 250.355 114.115 249.961 113.676 249.785L98.2026 242.555L95.4772 242.029Z" fill="#0A213E"/>
<path d="M94.9937 240.101L95.4332 244.089C95.4332 244.089 98.1586 245.36 100.005 243.957L98.9059 239.531L94.9937 240.101Z" fill="#F99F93"/>
<path d="M96.0925 165.253C95.9166 166.305 94.51 217.138 99.741 239.925C99.785 240.276 99.6091 240.67 99.2575 240.846C98.3783 241.152 96.7958 241.634 94.8177 241.722C94.2023 241.722 93.6308 241.372 93.5429 240.758C92.0483 235.456 84.8392 208.899 84.1358 183.614C83.3446 155.349 84.1358 182.65 84.1358 182.65L84.9271 165.209L96.0925 165.253Z" fill="#2D9EE0"/>
<path d="M77.5425 243.606C77.5425 243.606 76.6194 245.272 75.6523 249.742C75.4765 250.53 76.004 251.319 76.8832 251.407C78.3777 251.582 80.5757 251.757 82.3779 251.757C83.1692 251.757 83.8725 251.012 83.7407 250.224C83.5648 248.558 82.9494 245.929 81.1032 243.826L77.5425 243.606Z" fill="#0A213E"/>
<path d="M76.8389 238.436L77.8939 244.439C77.8939 244.439 78.9928 245.228 81.1468 244.702L80.6632 238.26L76.8389 238.436Z" fill="#FFBBAB"/>
<path d="M74.5532 166.612C69.8936 193.431 74.8609 232.914 76.6632 240.671C76.795 241.153 77.1467 241.547 77.6303 241.591C78.4215 241.722 79.7842 241.854 81.1469 241.459C81.5865 241.328 81.9381 240.89 81.9381 240.495C82.2459 234.229 82.2019 195.928 86.4219 180.81C86.6856 180.065 87.0812 179.408 87.7846 178.925L95.9168 173.272L96.5762 164.07L74.5532 166.612Z" fill="#2D9EE0"/>
<path d="M103.346 116.085C89.9827 115.734 75.2567 119.327 75.2567 119.327C71.0806 142.422 74.0698 169.153 74.0698 169.153C84.356 172.001 96.0489 167.751 96.0489 167.751C97.8512 158.11 106.159 130.94 106.159 130.94C112.709 130.195 118.028 128.355 122.556 125.901C119.215 121.957 117.676 117.005 117.017 114.025C112.313 115.383 107.478 116.128 103.346 116.085Z" fill="#FC682D"/>
<path d="M142.952 96.8467C141.677 95.2691 140.007 95.9702 140.007 95.9702C137.985 104.209 127.611 110.826 116.973 114.025C117.632 116.961 119.171 121.957 122.511 125.901C140.183 116.172 142.952 96.8467 142.952 96.8467Z" fill="#F99F93"/>
<path d="M142.644 97.1971C142.776 97.6353 141.15 98.2927 140.227 96.5398C140.227 95.6633 139.743 92.0699 140.227 91.325C142.996 87.6439 148.315 83.0864 148.315 83.0864C149.194 83.9629 148.447 84.7955 148.447 84.7955L145.853 87.4248C146.425 88.3889 147.04 89.2215 147.348 90.3609C147.612 91.2373 147.392 92.2014 146.996 92.9902C146.557 93.779 145.897 94.8307 145.326 95.6195C144.183 97.1971 142.644 97.1971 142.644 97.1971Z" fill="#F99F93"/>
<path d="M144.754 89.1343L142.425 91.1063L141.677 93.0783L143.699 95.4008C143.699 95.4008 144.447 91.5445 144.974 90.668C145.546 89.7478 145.238 89.3972 144.754 89.1343Z" fill="#F99F93"/>
<path d="M80.268 132.255L75.3007 119.284C75.3007 119.284 62.7287 127.654 60.5747 138.346C62.9045 138.522 67.2124 139.223 71.3445 141.37C72.3115 136.243 80.268 132.255 80.268 132.255Z" fill="#FC682D"/>
<path d="M91.0374 144.481C91.0374 144.481 77.0147 152.238 72.3112 145.445C71.3441 144.043 71.1243 142.597 71.3881 141.326C67.2121 139.179 62.9481 138.478 60.6183 138.302C59.9589 141.501 60.2667 144.919 62.1569 148.425C70.2891 163.588 92.9276 147.855 92.9276 147.855L91.0374 144.481Z" fill="#F99F93"/>
<path d="M89.9385 105.129L85.5867 117.355C85.5427 117.531 85.5867 117.793 85.7625 117.925C86.9494 118.582 91.0375 120.467 96.0927 117.311C96.6641 117.005 96.9718 116.435 97.0597 115.821L98.5543 105.26L89.9385 105.129Z" fill="#F99F93"/>
<path d="M99.3015 93.8228C99.3015 93.8228 103.873 102.631 103.258 106.181C102.642 109.686 96.8399 109.38 91.7847 106.487L88.356 97.0218L99.3015 93.8228Z" fill="#F99F93"/>
<path d="M92.0925 101.886C92.2684 101.842 92.4002 101.536 92.2684 101.316C91.9167 100.747 91.2134 99.6074 90.9936 98.5557C90.9936 98.5557 90.1144 97.986 93.1475 97.3287C96.0927 96.6713 100.533 95.6196 101.544 93.0779C102.467 90.6239 100.137 84.4012 96.3125 89.3092C96.1806 89.4845 95.8729 89.4845 95.7411 89.3092C95.1257 88.5204 93.5432 86.7676 91.1694 87.7755C89.0155 88.6957 88.7517 90.3171 88.7517 91.0183C88.7517 91.2812 88.5759 91.4565 88.3121 91.3689C87.2571 91.1059 84.6636 90.9307 83.4328 93.56C82.4657 95.7072 83.0811 97.0219 83.6086 97.5478C83.7844 97.7231 83.7405 98.0298 83.4328 98.1613C82.6855 98.3366 81.8503 98.9501 81.8942 100.615C82.0261 102.894 84.5317 102.719 85.279 102.631C85.4109 102.631 85.5428 102.631 85.5867 102.763C86.2021 103.42 88.9715 106.444 92.0486 106.838C92.3123 106.882 92.5321 106.575 92.4002 106.356L91.1255 102.5C91.0815 102.324 91.1255 102.149 91.3013 102.061L92.0925 101.886Z" fill="#0A213E"/>
<path d="M92.6638 102.368C92.6638 102.368 89.323 100.09 89.1032 102.018C88.8395 103.902 92.0484 104.866 93.6749 104.121L92.6638 102.368Z" fill="#F99F93"/>
<path d="M88.1362 156.708L95.7849 129.976C95.8288 129.67 96.1366 129.407 96.4443 129.407C97.8509 129.231 101.851 128.793 106.467 128.443C112.049 127.961 118.555 127.566 122.424 127.873C122.995 127.917 123.303 128.486 123.039 128.968C120.841 133.438 111.786 151.581 107.214 157.497C107.082 157.672 106.862 157.803 106.599 157.803L88.7955 157.628C88.3999 157.759 88.0483 157.234 88.1362 156.708Z" fill="#0A213E"/>
<path d="M89.9823 150.222C89.9823 150.222 88.9273 145.84 89.3669 144.262C89.8065 142.728 90.6417 140.712 93.4111 141.107C96.1804 141.545 99.4333 142.684 99.4333 142.684C99.4333 142.684 99.2575 144.7 97.1475 144.043L98.4223 145.007C98.4223 145.007 98.2465 146.585 96.4442 145.752L97.675 147.11C97.675 147.11 96.9277 148.469 95.565 147.592C94.3781 146.935 93.7627 150.791 89.9823 150.222Z" fill="#F99F93"/>
<path d="M106.027 136.418C106.027 137.645 106.994 138.697 108.313 138.697C109.544 138.697 110.599 137.733 110.599 136.418C110.599 135.191 109.632 134.139 108.313 134.139C107.038 134.183 106.027 135.191 106.027 136.418Z" fill="#EFFAFF"/>
<path d="M1.05518 210.521V210.828C1.05518 212.975 2.90142 214.684 5.18724 214.772L32.6611 215.254C34.9469 215.297 36.8371 213.676 36.969 211.573V211.31C37.1009 209.119 35.1667 207.234 32.8369 207.19L5.36308 206.708C3.03329 206.621 1.05518 208.33 1.05518 210.521Z" fill="#215CAB"/>
<path d="M70.7727 249.873C70.7727 249.741 70.7287 249.698 70.6408 249.566C69.366 247.901 66.6846 245.272 63.08 245.315C57.849 245.359 56.0027 245.929 51.8707 245.359L50.9036 248.558C50.7717 248.865 50.7717 249.216 50.9036 249.479C51.8707 249.829 54.0246 250.267 58.904 250.267C64.6185 250.311 68.7946 250.004 70.7727 249.873Z" fill="#0A213E"/>
<path d="M53.1014 241.897L51.9146 245.885C51.9146 245.885 54.552 247.068 56.8379 246.148L57.2775 242.642L53.1014 241.897Z" fill="#FFBBAB"/>
<path d="M97.8948 239.969C97.8508 239.925 97.719 239.838 97.5871 239.838C95.4771 239.356 91.7846 238.961 89.0152 241.24C84.9711 244.57 83.9161 246.148 80.3115 248.252L81.5424 251.319C81.6742 251.626 81.8501 251.889 82.1138 252.064C83.0809 251.757 85.059 250.706 88.8394 247.682C93.3232 244.176 96.4002 241.328 97.8948 239.969Z" fill="#0A213E"/>
<path d="M27.7375 196.104C27.7375 196.104 56.9257 198.514 62.948 201.318C68.9263 204.167 58.0686 243.607 58.0686 243.607C58.0686 243.607 56.4861 244.395 52.8376 243.256C52.8376 243.256 56.5301 214.114 53.7607 207.804L22.1108 202.633L27.7375 196.104Z" fill="#0A213E"/>
<path d="M77.4546 242.73C77.7183 242.993 80.3558 248.252 80.3558 248.252C80.3558 248.252 83.301 247.638 83.8725 245.798L81.235 241.021L77.4546 242.73Z" fill="#FFBBAB"/>
<path d="M10.1106 195.84C10.1106 195.84 9.1875 198.119 9.1875 201.187C9.23146 205.35 12.6162 208.812 16.8362 208.987L51.3873 210.565C52.1346 210.608 52.75 211.134 52.9259 211.792C53.7171 214.947 57.7173 224.588 77.0589 243.738C77.5425 244.22 78.3337 244.351 78.9491 243.913L81.7185 242.204C82.0262 242.029 82.0702 241.634 81.8943 241.328L61.7615 207.015C60.7065 205.306 58.9921 203.991 57.014 203.509L27.562 196.016L10.1106 195.84Z" fill="#0A213E"/>
<path d="M44.178 142.334C44.178 142.334 40.4855 148.863 36.7051 152.062L44.5296 156.445C44.5296 156.445 46.3319 149.565 50.3321 147.549L44.178 142.334Z" fill="#FFBBAB"/>
<path d="M9.49512 196.103C9.49512 196.103 18.8142 198.382 27.7378 196.103C27.7378 196.103 40.1779 179.407 44.9694 174.85C44.9694 174.85 52.662 186.945 69.8057 188.698L70.7288 186.55C70.7288 186.55 57.1018 180.284 52.9258 170.643C48.7498 161.002 47.0794 156.927 43.255 154.429C40.8373 152.895 39.4306 151.799 38.6833 151.23C38.2438 150.923 37.7163 150.879 37.2767 151.186C33.2765 153.552 14.2426 166.524 9.49512 196.103Z" fill="#2D9EE0"/>
<path d="M68.7505 185.411L70.6407 184.929L76.4871 183.57C77.1465 183.395 77.8938 183.527 78.5092 183.921L83.5644 187.076H69.7176L68.7505 185.411Z" fill="#FFBBAB"/>
<path d="M50.0244 132.474C50.0244 132.474 53.5851 138.434 54.2884 141.764C54.9038 145.095 55.8709 147.111 52.1344 148.294C48.398 149.477 44.8813 147.987 42.7274 144.92C42.7274 144.92 39.2986 140.187 39.6503 138.04C39.9141 135.848 50.0244 132.474 50.0244 132.474Z" fill="#FFBBAB"/>
<path d="M43.6947 142.378L44.1782 142.334C44.1782 142.334 41.6726 138.522 43.299 137.558C44.9695 136.637 51.739 134.227 52.9259 131.598C54.0248 129.012 52.3544 126.12 50.3323 125.507C50.2005 125.463 50.0686 125.55 50.0246 125.682L49.8928 125.989C49.8488 126.251 49.5411 126.251 49.4092 125.989C49.3653 125.813 49.0576 125.813 48.9257 125.989C48.574 126.777 47.4311 128.136 44.1782 129.188C39.5626 130.678 36.6614 133 37.013 136.331C37.013 136.506 36.8372 136.681 36.6614 136.593C36.3097 136.418 35.7382 136.418 35.0789 137.163C33.892 138.434 34.8151 141.239 37.9801 143.123C38.112 143.254 38.1559 143.43 38.0241 143.561C37.5405 143.999 36.8372 144.832 38.9911 145.665C41.1891 146.453 42.3759 146.234 42.8155 146.015C42.9474 145.971 42.9913 145.84 42.9913 145.708L42.4199 142.816C42.4199 142.685 42.4638 142.509 42.6836 142.509L43.6947 142.378Z" fill="#0A213E"/>
<path d="M43.8704 142.948C43.8704 142.948 42.2879 139.004 40.6175 140.406C38.9471 141.764 42.156 144.832 43.6506 144.788L43.8704 142.948Z" fill="#FFBBAB"/>
<path d="M63.3876 189.749H63.4316H93.1033C93.8506 189.749 94.466 189.136 94.466 188.391C94.466 187.646 93.8506 187.033 93.1033 187.12H63.4316C62.6843 187.12 62.0688 187.734 62.0688 188.479C62.1568 189.136 62.7282 189.706 63.3876 189.749Z" fill="#0A213E"/>
<path d="M104.577 160.739C104.577 160.826 104.577 160.826 104.577 160.739L92.0924 187.646C91.7847 188.303 92.0924 189.136 92.7078 189.442C93.3672 189.749 94.2024 189.442 94.5101 188.785L106.994 161.922C107.302 161.265 106.994 160.432 106.379 160.125C105.719 159.906 104.972 160.125 104.577 160.739Z" fill="#0A213E"/>
<path d="M182.295 216.744H179.174V250.53H182.295V216.744Z" fill="#0A213E"/>
<path d="M194.383 251.144H166.997C166.997 250.048 167.92 249.128 169.019 249.128H192.361C193.504 249.128 194.383 250.048 194.383 251.144Z" fill="#0A213E"/>
<path d="M20.3996 215.17H17.3613V250.671H20.3996V215.17Z" fill="#215CAB"/>
<path d="M32.5527 251.104H5.2085C5.2085 249.927 6.13021 248.939 7.22749 248.939H30.5337C31.6748 248.939 32.5527 249.927 32.5527 251.104Z" fill="#215CAB"/>
<path d="M198.515 215.561C198.515 217.401 196.977 218.935 195.131 218.935H167.437C165.591 218.935 164.052 217.401 164.052 215.561V212.537C164.052 210.696 165.591 209.163 167.437 209.163H195.131C196.977 209.163 198.515 210.696 198.515 212.537V215.561Z" fill="#215CAB"/>
<path d="M157.634 194.175C157.634 194.175 152.975 194.92 147.787 198.338C146.996 198.908 146.513 199.872 146.601 200.792C147.216 205.788 149.81 221.739 158.293 237.428C158.733 238.216 158.865 239.224 158.645 240.145L157.151 246.981L154.425 249.566H161.458L166.118 236.902L164.096 236.288C162.557 235.806 161.458 234.404 161.458 232.739L161.195 219.154C161.371 213.063 157.502 208.943 157.502 208.943L168.756 208.374L157.634 194.175Z" fill="#924D42"/>
<path d="M151.7 250.837C151.084 251.714 158.601 252.809 162.425 250.969C162.425 250.969 167.7 241.81 167.7 237.077C167.7 237.077 167.261 236.113 164.184 236.332C164.184 236.332 162.382 247.2 160.535 248.427C158.689 249.654 155.304 248.559 155.304 248.559C155.304 248.559 152.623 249.61 151.7 250.837Z" fill="#0A213E"/>
<path d="M167.393 209.207C167.349 209.075 155.26 207.717 155.26 207.717C155.26 207.717 155.612 211.398 154.381 216.393C153.15 221.433 135.479 243.256 135.479 243.256L137.325 249.172C131.611 251.144 125.94 251.495 120.401 250.224L131.918 243.344C131.918 243.344 142.688 206.709 149.282 200.179L161.37 196.016L167.393 209.207Z" fill="#924D42"/>
<path d="M194.383 187.865C194.383 187.865 201.329 198.207 201.9 202.852C202.472 207.585 200.01 209.469 192.713 209.776C185.46 210.083 165.986 210.083 165.986 210.083L149.37 195.928C149.37 195.928 161.459 191.633 164.624 190.406C167.789 189.223 194.383 187.865 194.383 187.865Z" fill="#0A213E"/>
<path d="M136.666 247.156C136.666 247.156 138.644 249.041 137.325 251.232C137.325 251.232 121.5 254.08 117.192 252.765C117.192 252.765 118.072 250.75 122.907 248.383L122.555 248.646C122.116 248.997 122.379 249.698 122.907 249.698C126.16 249.566 132.754 248.953 136.666 247.156Z" fill="#0A213E"/>
<path d="M164.316 122.527C178.558 120.116 185.196 131.685 184.712 134.096C184.669 134.402 184.976 134.709 185.284 134.578C186.866 134.139 190.515 133.614 192.757 136.374C194.735 138.828 193.24 141.151 192.097 142.466C191.79 142.772 192.053 143.254 192.449 143.211C195.482 142.86 201.944 142.728 203.043 148.82C204.01 154.473 200.098 156.094 197.768 156.576C197.416 156.62 197.285 157.19 197.636 157.365C198.823 158.11 200.142 159.644 199.614 162.667C198.735 167.4 189.46 167.05 188.361 166.962C188.317 166.962 188.229 166.962 188.185 166.918L173.239 158.504C173.108 158.461 173.064 158.329 172.976 158.198L169.943 140.844C169.943 140.713 169.943 140.537 170.074 140.494L160.36 126.777C156.755 126.164 164.14 122.527 164.316 122.527Z" fill="#0A213E"/>
<path d="M175.657 186.507C175.657 186.507 167.569 178.838 163.569 173.711C161.415 170.95 160.755 167.313 161.722 163.982C163.569 157.891 166.778 151.58 167.085 150.573C167.525 149.039 176.624 149.083 176.624 149.083C176.624 149.083 194.471 160.652 201.505 180.24L193.636 182.694C193.636 182.694 188.976 174.894 184.405 169.898C184.405 169.898 192.361 180.415 192.669 184.71L175.657 186.507Z" fill="#2D9EE0"/>
<path d="M165.986 142.115C166.118 142.422 168.448 150.309 168.624 150.397C168.8 150.572 173.811 150.835 176.185 149.214L170.338 137.776L165.986 142.115Z" fill="#924D42"/>
<path d="M156.491 132.123C156.491 132.123 155.305 136.593 158.514 142.641C161.722 148.644 165.283 148.644 167.217 146.76C169.195 144.876 171.569 141.545 171.042 135.717C170.426 129.845 158.118 126.383 156.491 132.123Z" fill="#924D42"/>
<path d="M166.602 135.98C166.602 135.98 161.371 128.004 156.447 134.271L156.404 136.55C156.404 136.55 150.601 135.892 151.656 130.59C152.623 125.287 157.634 122.001 164.096 124.323C170.514 126.602 174.207 128.925 174.646 133.526C175.086 138.127 171.393 137.075 171.393 137.075C171.393 137.075 170.206 133.833 168.492 133.526C166.778 133.219 167.261 135.717 167.261 135.717L166.602 135.98Z" fill="#0A213E"/>
<path d="M167.964 135.848C167.964 135.848 165.239 131.729 168.008 131.115C170.778 130.502 170.338 135.103 170.03 136.812L167.964 135.848Z" fill="#924D42"/>
<path d="M159.173 187.076L165.063 181.379L173.239 184.841C173.239 184.841 181.416 186.112 186.119 184.841C190.779 183.57 190.779 183.57 190.779 183.57L201.373 180.328L203.087 184.929C203.527 186.112 203.087 187.471 202.032 188.172C201.109 188.829 200.054 189.53 199.395 189.837C197.988 190.451 165.019 189.399 165.019 189.399L159.173 187.076Z" fill="#924D42"/>
<path d="M181.636 189.749H181.592L147.084 189.705C146.205 189.705 145.546 189.048 145.546 188.171C145.546 187.295 146.205 186.638 147.084 186.638L181.592 186.682C182.471 186.682 183.13 187.339 183.13 188.215C183.13 189.092 182.427 189.749 181.636 189.749Z" fill="#0A213E"/>
<path d="M116.094 158.548H144.798C146.908 158.548 148.843 159.775 149.722 161.703L162.953 189.793H127.303C125.94 189.793 124.71 188.916 124.226 187.689L113.94 161.703C113.412 160.125 114.511 158.548 116.094 158.548Z" fill="#0A213E"/>
<path d="M32.3454 253.861C32.2135 253.861 32.0377 253.817 31.9058 253.729C31.3343 253.466 31.1145 252.765 31.3343 252.152L54.7641 192.817C55.0278 192.203 55.6872 191.897 56.2586 192.203C56.8301 192.466 57.0499 193.167 56.8301 193.781L33.4443 253.072C33.1806 253.642 32.785 253.861 32.3454 253.861Z" fill="#2D9EE0"/>
<path d="M214.651 253.861C214.211 253.861 213.772 253.598 213.596 253.116L190.21 193.825C189.946 193.211 190.21 192.466 190.782 192.247C191.353 191.984 192.012 192.247 192.276 192.861L215.662 252.152C215.926 252.765 215.662 253.51 215.09 253.729C214.959 253.817 214.827 253.861 214.651 253.861Z" fill="#2D9EE0"/>
<path d="M215.615 191.108C215.703 190.713 215.571 190.275 215.219 189.968C214.912 189.662 214.428 189.486 213.901 189.486H37.2766C36.5732 189.486 35.9578 189.749 35.5622 190.187C35.1666 190.626 35.1226 191.195 35.4743 191.677L37.4085 194.876C37.848 195.621 38.8151 196.06 39.8262 196.06H212.758C213.725 196.06 214.56 195.49 214.736 194.789L215.615 191.108Z" fill="#2D9EE0"/>
<path d="M13.4954 89.835C12.836 86.8113 12.4404 83.6123 12.3085 80.238C12.2206 78.6604 14.5944 78.5728 14.6823 80.1504C15.0779 88.608 16.7923 90.2733 14.9021 90.6677C14.2427 90.8429 13.6712 90.4924 13.4954 89.835ZM14.5064 66.1273C13.891 65.9959 13.5394 65.3824 13.5833 64.7689C14.1987 61.6137 15.1219 58.59 16.2648 55.5224C16.7923 54.0763 19.0341 54.9527 18.4627 56.355C17.3637 59.2035 16.4406 62.2272 15.8691 65.1633C15.6494 66.3465 14.4185 66.1712 14.5064 66.1273ZM24.441 43.6467C24.2212 43.6029 24.1333 43.5152 24.0014 43.4714C23.5179 43.077 23.342 42.332 23.6937 41.85C25.5399 39.3083 27.606 36.8104 29.8479 34.5317C30.3314 34.0935 31.0347 34.0497 31.5183 34.5317C31.9578 35.0137 32.0018 35.7149 31.5183 36.2408C29.3643 38.4757 27.3862 40.8421 25.5839 43.2961C25.3202 43.5152 24.8806 43.7343 24.441 43.6467ZM42.5518 26.9067C42.2441 26.8629 41.9803 26.6437 41.8045 26.3808C41.4968 25.855 41.6726 25.11 42.2001 24.8032C44.9695 23.138 47.8267 21.7357 50.8159 20.4649C51.4313 20.2019 52.1346 20.5525 52.3544 21.0784C52.6182 21.6919 52.2665 22.393 51.739 22.6121C48.9257 23.7077 46.0684 25.11 43.4749 26.7314C43.0793 26.9943 42.7716 27.0381 42.5518 26.9067ZM64.8386 17.8794C64.7506 17.1782 65.2342 16.6962 65.8056 16.5647C69.0146 16.1703 72.2235 15.9512 75.3885 16.0827C76.8831 16.1265 76.8831 18.4052 75.3446 18.3614C72.2235 18.3176 69.1465 18.4052 66.0694 18.8434C65.4979 18.9311 64.8825 18.4929 64.8386 17.8794Z" fill="white"/>
<path d="M94.5542 22.2175C90.5979 20.7275 89.0154 20.8151 89.455 19.2814C89.5869 18.6679 90.2902 18.2735 90.8617 18.5364C92.3563 18.9746 93.8948 19.5005 95.3015 20.0264C95.8729 20.2893 96.2246 20.9028 95.9608 21.5601C95.829 22.086 95.2135 22.4366 94.5542 22.2175Z" fill="white"/>
</svg>
