<svg xmlns="http://www.w3.org/2000/svg" xmlns:xlink="http://www.w3.org/1999/xlink" width="500" zoomAndPan="magnify" viewBox="0 0 375 374.999991" height="500" preserveAspectRatio="xMidYMid meet" version="1.0"><defs><g/><clipPath id="df0febe9c2"><path d="M 25.300781 127.832031 L 140.136719 127.832031 L 140.136719 242.667969 L 25.300781 242.667969 Z M 25.300781 127.832031 " clip-rule="nonzero"/></clipPath><clipPath id="55a47e09f1"><path d="M 82.71875 127.832031 C 51.007812 127.832031 25.300781 153.539062 25.300781 185.25 C 25.300781 216.960938 51.007812 242.667969 82.71875 242.667969 C 114.429688 242.667969 140.136719 216.960938 140.136719 185.25 C 140.136719 153.539062 114.429688 127.832031 82.71875 127.832031 " clip-rule="nonzero"/></clipPath><clipPath id="c670f0094d"><path d="M 61.039062 148.292969 L 104.394531 148.292969 L 104.394531 191.648438 L 61.039062 191.648438 Z M 61.039062 148.292969 " clip-rule="nonzero"/></clipPath><clipPath id="9e4d75599c"><path d="M 82.71875 148.292969 C 70.746094 148.292969 61.039062 158 61.039062 169.972656 C 61.039062 181.945312 70.746094 191.648438 82.71875 191.648438 C 94.691406 191.648438 104.394531 181.945312 104.394531 169.972656 C 104.394531 158 94.691406 148.292969 82.71875 148.292969 " clip-rule="nonzero"/></clipPath><clipPath id="17ce03677f"><path d="M 61.039062 148.292969 L 104.101562 148.292969 L 104.101562 191.355469 L 61.039062 191.355469 Z M 61.039062 148.292969 " clip-rule="nonzero"/></clipPath><clipPath id="8a1f24eaf5"><path d="M 82.570312 148.292969 C 70.679688 148.292969 61.039062 157.933594 61.039062 169.824219 C 61.039062 181.714844 70.679688 191.355469 82.570312 191.355469 C 94.464844 191.355469 104.101562 181.714844 104.101562 169.824219 C 104.101562 157.933594 94.464844 148.292969 82.570312 148.292969 " clip-rule="nonzero"/></clipPath><clipPath id="22210fc82f"><path d="M 67 155 L 98 155 L 98 218.605469 L 67 218.605469 Z M 67 155 " clip-rule="nonzero"/></clipPath><clipPath id="831003fd53"><path d="M 81.65625 156.453125 L 67.726562 214.230469 C 67.472656 215.289062 67.71875 216.402344 68.390625 217.253906 C 69.0625 218.109375 70.085938 218.605469 71.175781 218.605469 L 94.242188 218.605469 C 95.328125 218.605469 96.355469 218.109375 97.027344 217.253906 C 97.699219 216.402344 97.945312 215.289062 97.6875 214.230469 L 83.761719 156.453125 C 83.644531 155.96875 83.210938 155.625 82.707031 155.625 C 82.207031 155.625 81.773438 155.96875 81.65625 156.453125 " clip-rule="nonzero"/></clipPath></defs><g clip-path="url(#df0febe9c2)"><g clip-path="url(#55a47e09f1)"><path fill="#0cc0df" d="M 25.300781 127.832031 L 140.136719 127.832031 L 140.136719 242.667969 L 25.300781 242.667969 Z M 25.300781 127.832031 " fill-opacity="1" fill-rule="nonzero"/></g></g><g clip-path="url(#c670f0094d)"><g clip-path="url(#9e4d75599c)"><path fill="#ffffff" d="M 61.039062 148.292969 L 104.394531 148.292969 L 104.394531 191.648438 L 61.039062 191.648438 Z M 61.039062 148.292969 " fill-opacity="1" fill-rule="nonzero"/></g></g><g clip-path="url(#17ce03677f)"><g clip-path="url(#8a1f24eaf5)"><path stroke-linecap="butt" transform="matrix(0.792175, 0, 0, 0.792175, 61.040712, 148.29396)" fill="none" stroke-linejoin="miter" d="M 27.177846 -0.00125113 C 12.16774 -0.00125113 -0.00208286 12.168572 -0.00208286 27.178678 C -0.00208286 42.188784 12.16774 54.358607 27.177846 54.358607 C 42.192883 54.358607 54.357775 42.188784 54.357775 27.178678 C 54.357775 12.168572 42.192883 -0.00125113 27.177846 -0.00125113 " stroke="#ffffff" stroke-width="15.048028" stroke-opacity="1" stroke-miterlimit="4"/></g></g><g clip-path="url(#22210fc82f)"><g clip-path="url(#831003fd53)"><path fill="#ffffff" d="M 98.742188 218.605469 L 66.773438 218.605469 L 66.773438 151.574219 L 98.742188 151.574219 Z M 98.742188 218.605469 " fill-opacity="1" fill-rule="nonzero"/></g></g><g fill="#001532" fill-opacity="1"><g transform="translate(150.291323, 171.54601)"><g><path d="M 13.890625 -28.5 C 16.867188 -28.5 19.476562 -27.894531 21.71875 -26.6875 C 23.957031 -25.476562 25.679688 -23.800781 26.890625 -21.65625 C 28.097656 -19.507812 28.703125 -17.066406 28.703125 -14.328125 C 28.703125 -11.617188 28.097656 -9.175781 26.890625 -7 C 25.679688 -4.832031 23.957031 -3.125 21.71875 -1.875 C 19.476562 -0.625 16.867188 0 13.890625 0 L 2.015625 0 L 2.015625 -28.5 Z M 13.078125 -7.96875 C 15.085938 -7.96875 16.679688 -8.515625 17.859375 -9.609375 C 19.046875 -10.710938 19.640625 -12.285156 19.640625 -14.328125 C 19.640625 -16.367188 19.046875 -17.9375 17.859375 -19.03125 C 16.679688 -20.132812 15.085938 -20.6875 13.078125 -20.6875 L 10.953125 -20.6875 L 10.953125 -7.96875 Z M 13.078125 -7.96875 "/></g></g></g><g fill="#001532" fill-opacity="1"><g transform="translate(177.775839, 171.54601)"><g><path d="M 10.953125 -28.5 L 10.953125 0 L 2.015625 0 L 2.015625 -28.5 Z M 10.953125 -28.5 "/></g></g></g><g fill="#001532" fill-opacity="1"><g transform="translate(188.318373, 171.54601)"><g><path d="M 13.15625 0.28125 C 9.75 0.28125 6.9375 -0.515625 4.71875 -2.109375 C 2.507812 -3.710938 1.3125 -6.054688 1.125 -9.140625 L 10.625 -9.140625 C 10.757812 -7.503906 11.484375 -6.6875 12.796875 -6.6875 C 13.285156 -6.6875 13.695312 -6.796875 14.03125 -7.015625 C 14.363281 -7.242188 14.53125 -7.601562 14.53125 -8.09375 C 14.53125 -8.757812 14.164062 -9.300781 13.4375 -9.71875 C 12.71875 -10.132812 11.59375 -10.613281 10.0625 -11.15625 C 8.238281 -11.789062 6.726562 -12.414062 5.53125 -13.03125 C 4.34375 -13.65625 3.316406 -14.554688 2.453125 -15.734375 C 1.597656 -16.921875 1.179688 -18.4375 1.203125 -20.28125 C 1.203125 -22.132812 1.675781 -23.710938 2.625 -25.015625 C 3.582031 -26.316406 4.882812 -27.300781 6.53125 -27.96875 C 8.1875 -28.644531 10.046875 -28.984375 12.109375 -28.984375 C 15.597656 -28.984375 18.367188 -28.175781 20.421875 -26.5625 C 22.472656 -24.957031 23.554688 -22.691406 23.671875 -19.765625 L 14.046875 -19.765625 C 14.015625 -20.566406 13.8125 -21.140625 13.4375 -21.484375 C 13.0625 -21.835938 12.609375 -22.015625 12.078125 -22.015625 C 11.703125 -22.015625 11.390625 -21.882812 11.140625 -21.625 C 10.898438 -21.375 10.78125 -21.019531 10.78125 -20.5625 C 10.78125 -19.925781 11.132812 -19.398438 11.84375 -18.984375 C 12.5625 -18.566406 13.695312 -18.0625 15.25 -17.46875 C 17.050781 -16.800781 18.535156 -16.15625 19.703125 -15.53125 C 20.867188 -14.914062 21.878906 -14.054688 22.734375 -12.953125 C 23.597656 -11.859375 24.03125 -10.476562 24.03125 -8.8125 C 24.03125 -7.070312 23.597656 -5.507812 22.734375 -4.125 C 21.878906 -2.738281 20.632812 -1.65625 19 -0.875 C 17.363281 -0.101562 15.414062 0.28125 13.15625 0.28125 Z M 13.15625 0.28125 "/></g></g></g><g fill="#001532" fill-opacity="1"><g transform="translate(211.054309, 171.54601)"><g><path d="M 1.203125 -14.28125 C 1.203125 -17.101562 1.769531 -19.613281 2.90625 -21.8125 C 4.050781 -24.007812 5.679688 -25.71875 7.796875 -26.9375 C 9.921875 -28.164062 12.421875 -28.78125 15.296875 -28.78125 C 17.765625 -28.78125 19.96875 -28.316406 21.90625 -27.390625 C 23.851562 -26.460938 25.4375 -25.15625 26.65625 -23.46875 C 27.882812 -21.78125 28.695312 -19.804688 29.09375 -17.546875 L 19.6875 -17.546875 C 19.25 -18.484375 18.632812 -19.210938 17.84375 -19.734375 C 17.050781 -20.265625 16.148438 -20.53125 15.140625 -20.53125 C 13.628906 -20.53125 12.4375 -19.960938 11.5625 -18.828125 C 10.695312 -17.703125 10.265625 -16.1875 10.265625 -14.28125 C 10.265625 -12.382812 10.695312 -10.867188 11.5625 -9.734375 C 12.4375 -8.609375 13.628906 -8.046875 15.140625 -8.046875 C 16.148438 -8.046875 17.050781 -8.304688 17.84375 -8.828125 C 18.632812 -9.359375 19.25 -10.09375 19.6875 -11.03125 L 29.09375 -11.03125 C 28.695312 -8.769531 27.882812 -6.796875 26.65625 -5.109375 C 25.4375 -3.421875 23.851562 -2.113281 21.90625 -1.1875 C 19.96875 -0.257812 17.765625 0.203125 15.296875 0.203125 C 12.421875 0.203125 9.921875 -0.40625 7.796875 -1.625 C 5.679688 -2.851562 4.050781 -4.566406 2.90625 -6.765625 C 1.769531 -8.960938 1.203125 -11.46875 1.203125 -14.28125 Z M 1.203125 -14.28125 "/></g></g></g><g fill="#001532" fill-opacity="1"><g transform="translate(238.941258, 171.54601)"><g><path d="M 15.90625 0.28125 C 13.21875 0.28125 10.753906 -0.347656 8.515625 -1.609375 C 6.273438 -2.867188 4.492188 -4.613281 3.171875 -6.84375 C 1.859375 -9.070312 1.203125 -11.582031 1.203125 -14.375 C 1.203125 -17.164062 1.859375 -19.671875 3.171875 -21.890625 C 4.492188 -24.117188 6.273438 -25.859375 8.515625 -27.109375 C 10.753906 -28.359375 13.21875 -28.984375 15.90625 -28.984375 C 18.582031 -28.984375 21.035156 -28.359375 23.265625 -27.109375 C 25.492188 -25.859375 27.257812 -24.117188 28.5625 -21.890625 C 29.863281 -19.671875 30.515625 -17.164062 30.515625 -14.375 C 30.515625 -11.582031 29.863281 -9.070312 28.5625 -6.84375 C 27.257812 -4.613281 25.488281 -2.867188 23.25 -1.609375 C 21.007812 -0.347656 18.5625 0.28125 15.90625 0.28125 Z M 15.90625 -8.046875 C 17.675781 -8.046875 19.039062 -8.613281 20 -9.75 C 20.96875 -10.894531 21.453125 -12.4375 21.453125 -14.375 C 21.453125 -16.332031 20.96875 -17.878906 20 -19.015625 C 19.039062 -20.160156 17.675781 -20.734375 15.90625 -20.734375 C 14.101562 -20.734375 12.71875 -20.160156 11.75 -19.015625 C 10.78125 -17.878906 10.296875 -16.332031 10.296875 -14.375 C 10.296875 -12.4375 10.78125 -10.894531 11.75 -9.75 C 12.71875 -8.613281 14.101562 -8.046875 15.90625 -8.046875 Z M 15.90625 -8.046875 "/></g></g></g><g fill="#001532" fill-opacity="1"><g transform="translate(268.236678, 171.54601)"><g><path d="M 10.75 -28.5 L 10.75 -12.4375 C 10.75 -11.125 11.035156 -10.082031 11.609375 -9.3125 C 12.191406 -8.550781 13.125 -8.171875 14.40625 -8.171875 C 15.695312 -8.171875 16.648438 -8.550781 17.265625 -9.3125 C 17.878906 -10.082031 18.1875 -11.125 18.1875 -12.4375 L 18.1875 -28.5 L 27.09375 -28.5 L 27.09375 -12.4375 C 27.09375 -9.726562 26.523438 -7.410156 25.390625 -5.484375 C 24.265625 -3.566406 22.722656 -2.125 20.765625 -1.15625 C 18.804688 -0.195312 16.617188 0.28125 14.203125 0.28125 C 11.785156 0.28125 9.644531 -0.195312 7.78125 -1.15625 C 5.914062 -2.125 4.457031 -3.5625 3.40625 -5.46875 C 2.363281 -7.375 1.84375 -9.695312 1.84375 -12.4375 L 1.84375 -28.5 Z M 10.75 -28.5 "/></g></g></g><g fill="#001532" fill-opacity="1"><g transform="translate(294.755383, 171.54601)"><g><path d="M 29.34375 0 L 20.40625 0 L 10.953125 -14.328125 L 10.953125 0 L 2.015625 0 L 2.015625 -28.5 L 10.953125 -28.5 L 20.40625 -13.921875 L 20.40625 -28.5 L 29.34375 -28.5 Z M 29.34375 0 "/></g></g></g><g fill="#001532" fill-opacity="1"><g transform="translate(323.688632, 171.54601)"><g><path d="M 24.390625 -28.5 L 24.390625 -21.40625 L 16.828125 -21.40625 L 16.828125 0 L 7.890625 0 L 7.890625 -21.40625 L 0.40625 -21.40625 L 0.40625 -28.5 Z M 24.390625 -28.5 "/></g></g></g><g fill="#001532" fill-opacity="1"><g transform="translate(148.818364, 225.050199)"><g><path d="M 10.859375 -35.625 L 16.140625 -6.046875 L 31.984375 -35.625 L 38.1875 -35.625 L 18.5 0 L 11.734375 0 L 4.609375 -35.625 Z M 10.859375 -35.625 "/></g></g></g><g fill="#001532" fill-opacity="1"><g transform="translate(180.898682, 225.050199)"><g><path d="M 30.5 -25.015625 C 30.1875 -23.203125 29.457031 -21.488281 28.3125 -19.875 C 27.164062 -18.269531 25.566406 -16.960938 23.515625 -15.953125 C 21.472656 -14.953125 18.984375 -14.453125 16.046875 -14.453125 L 9.578125 -14.453125 L 7.015625 0 L 1.171875 0 L 7.484375 -35.625 L 19.78125 -35.625 C 23.363281 -35.625 26.078125 -34.828125 27.921875 -33.234375 C 29.773438 -31.648438 30.703125 -29.578125 30.703125 -27.015625 C 30.703125 -26.566406 30.632812 -25.898438 30.5 -25.015625 Z M 16.859375 -19.015625 C 19.078125 -19.015625 20.828125 -19.539062 22.109375 -20.59375 C 23.390625 -21.65625 24.1875 -23.128906 24.5 -25.015625 C 24.601562 -25.523438 24.65625 -26.019531 24.65625 -26.5 C 24.65625 -27.9375 24.179688 -29.054688 23.234375 -29.859375 C 22.296875 -30.660156 20.875 -31.0625 18.96875 -31.0625 L 12.5 -31.0625 L 10.40625 -19.015625 Z M 16.859375 -19.015625 "/></g></g></g><g fill="#001532" fill-opacity="1"><g transform="translate(207.905479, 225.050199)"><g><path d="M 30.4375 0 L 24.59375 0 L 11.734375 -26.59375 L 7.015625 0 L 1.171875 0 L 7.484375 -35.671875 L 13.328125 -35.671875 L 26.234375 -9.125 L 30.90625 -35.671875 L 36.75 -35.671875 Z M 30.4375 0 "/></g></g></g></svg>