<svg id="Capa_1" data-name="Capa 1" xmlns="http://www.w3.org/2000/svg" viewBox="0 0 640 140"><path d="M119.47,71.31l-3.79,6.43a1.15,1.15,0,0,0,0,.89q1.88,8.64,3.74,17.29a.77.77,0,0,1,0,.53L91.19,48.24l-.94,1.53Q82.12,63.52,74,77.27a1.48,1.48,0,0,0-.17,1.18c1.25,5.71,2.47,11.41,3.7,17.12a.88.88,0,0,1-.09.65C72.58,88,67.76,79.73,62.86,71.36l-1.59,2.56L22.08,137.63c-.27.44-.41.84-.93.11A85.6,85.6,0,0,1,6.38,101.82,83.14,83.14,0,0,1,5.26,85.53a86.12,86.12,0,0,1,62-80.3A82.53,82.53,0,0,1,83.9,2.17,86,86,0,0,1,168,49.24a86.16,86.16,0,0,1-6.76,88.44c-.47.68-.63.49-1-.07q-15.35-25-30.71-49.92Z" style="fill:#4580fe"/><path d="M567.52,61.61v.91q0,21.72,0,43.45c0,.74-.17.93-.92.92q-6-.06-11.91,0c-.64,0-.78-.17-.78-.79q0-32.35,0-64.72c0-.59.15-.74.74-.74q7.1,0,14.2,0a1.27,1.27,0,0,1,1.21.65Q583.82,62,597.6,82.61a2.92,2.92,0,0,0,.79,1v-.95q0-20.55,0-41.09c0-.74.17-.93.92-.92,4,0,7.94,0,11.91,0,.57,0,.75.12.75.73q0,32.4,0,64.8c0,.61-.19.72-.76.71q-6.16,0-12.33,0a1.46,1.46,0,0,1-1.43-.74q-14.56-21.9-29.19-43.76c-.18-.28-.37-.55-.56-.82Z" style="fill:#2c3038"/><path d="M240,61.52v.93q0,21.74,0,43.45c0,.84-.23,1-1,1-3.92,0-7.83,0-11.75,0-.61,0-.85-.09-.85-.8q0-32.31,0-64.62c0-.69.21-.82.84-.82q7,0,14,0a1.4,1.4,0,0,1,1.35.72q13.78,20.74,27.61,41.46a1.58,1.58,0,0,0,.64.74V82.7q0-20.55,0-41.09c0-.73.13-1,.94-1,4,0,7.94,0,11.91,0,.57,0,.76.12.76.73q0,32.4,0,64.79c0,.63-.21.73-.77.72q-6.26,0-12.5,0a1.28,1.28,0,0,1-1.21-.68q-14.66-22-29.34-44C240.48,62,240.38,61.7,240,61.52Z" style="fill:#2c3038"/><path d="M498.71,73.76q0-16.07,0-32.14c0-.72.11-1,.93-1,8.42,0,16.84-.05,25.26.09a24.14,24.14,0,0,1,15,5,18.51,18.51,0,0,1,7,12.58,24,24,0,0,1-1.74,13.44c-2.49,5.44-6.88,8.67-12.48,10.42a31.6,31.6,0,0,1-9.31,1.36c-3.35,0-6.71,0-10.06,0-.66,0-.83.16-.83.82,0,7.21,0,14.41,0,21.61,0,.72-.14.93-.9.92-4,0-8,0-11.92,0-.82,0-.93-.26-.93-1Q498.72,89.85,498.71,73.76ZM512.42,62.2c0,2.61,0,5.23,0,7.84,0,.56.16.7.71.7,3.32,0,6.64,0,10,0a12.75,12.75,0,0,0,5.62-1.32,7.58,7.58,0,0,0,4.51-7.7,7.5,7.5,0,0,0-5-7,12.56,12.56,0,0,0-4.67-1c-3.52,0-7,0-10.56,0-.6,0-.6.27-.6.72C512.43,57,512.42,59.58,512.42,62.2Z" style="fill:#2c3038"/><path d="M412,67V48.36c0-2.31,0-4.61,0-6.92,0-.6.1-.81.76-.8,3.89,0,7.78,0,11.66,0,.63,0,.79.15.79.78q0,32.37,0,64.72c0,.59-.15.75-.74.75q-5.72,0-11.41,0c-.62,0-.74-.19-.73-.76,0-1.62,0-3.25,0-4.88-.1,0-.17,0-.19,0-3.32,4.57-8,6.31-13.45,6.45-10.48.28-18.56-6.73-21.14-16.59-2.38-9.06-.33-17.13,6.07-24,6.13-6.58,16.57-8.2,24.07-3.8A18.1,18.1,0,0,1,412,67ZM401.16,95.76a11.1,11.1,0,0,0,11.19-11.37c0-6.53-4.65-11.51-10.87-11.56A11,11,0,0,0,390,84.07C390,90.75,394.73,95.72,401.16,95.76Z" style="fill:#2c3038"/><path d="M429.26,40.66h14.38c.52,0,.56.32.68.67l7.05,20.61q4.81,14.13,9.65,28.25c.06.19.15.36.26.63,1.33-3.88,2.64-7.66,3.94-11.45q6.52-19,13-38a.87.87,0,0,1,1-.7q6.5,0,13,0c.75,0,.8.16.56.83q-8.86,24.35-17.7,48.7c-1.93,5.32-3.88,10.64-5.79,16a.93.93,0,0,1-1.06.75q-7.14,0-14.28,0c-.57,0-.87-.1-1.09-.71q-11.7-32.44-23.46-64.86C429.39,41.12,429.34,40.94,429.26,40.66Z" style="fill:#2c3038"/><path d="M316.15,60.65c8.29.31,15.66,3.61,20.49,11.35a23.27,23.27,0,0,1-10.58,33.58c-9.74,4.14-19.11,3.14-27.39-3.66-6.2-5.09-8.59-12-7.88-19.91,1-10.8,9.4-19.09,20-20.92A37.57,37.57,0,0,1,316.15,60.65Zm-.75,35.12a11.05,11.05,0,0,0,11.07-11.38c0-6.6-4.7-11.63-10.9-11.64-6.56,0-11.32,4.79-11.35,11.44A11.15,11.15,0,0,0,315.4,95.77Z" style="fill:#2c3038"/><path d="M358.86,68c.83-1,1.49-2.13,2.39-3,3.11-3.16,6.94-4.11,11.21-3.59,1.79.22,1.78.29,1.78,2.07,0,3.46,0,6.92,0,10.38,0,.71-.17.88-.9.77a15.07,15.07,0,0,0-6.78.26c-4.08,1.3-6.1,4.36-6.94,8.36a17,17,0,0,0-.36,3.77c0,6.36,0,12.71,0,19.07,0,.72-.19.86-.88.86-3.77,0-7.55,0-11.32,0-.62,0-.85-.1-.85-.8q0-21.81,0-43.62c0-.64.17-.79.79-.78,3.69,0,7.38,0,11.07,0,.58,0,.78.14.77.74C358.84,64.28,358.86,66.13,358.86,68Z" style="fill:#2c3038"/><path d="M627.36,40.66a7.48,7.48,0,1,1-7.51,7.39A7.44,7.44,0,0,1,627.36,40.66Zm-.05,13.54a6.08,6.08,0,0,0,0-12.16,6.08,6.08,0,0,0,0,12.16Z" style="fill:#2c3038"/><polygon points="77.6 96.45 77.65 96.43 77.64 96.49 77.6 96.45" style="fill:#4580fe"/><path d="M624.42,48.12c0-1.21,0-2.42,0-3.63,0-.43.05-.66.58-.64,1,0,2.08,0,3.12,0a2.67,2.67,0,0,1,1.53,4.91c-.37.26-.3.44-.13.74.42.79.82,1.6,1.25,2.38.19.35.17.48-.27.52-1.33.11-1.38.1-2-1.08l-.84-1.65a.6.6,0,0,0-.56-.39c-.6,0-1,0-.88.8a8.82,8.82,0,0,1,0,1.26,1.07,1.07,0,0,1-1.61,1c-.29-.13-.19-.37-.19-.58C624.41,50.59,624.42,49.35,624.42,48.12Zm2.73-.5a6.21,6.21,0,0,0,.75,0c.61-.07,1.1-.3,1.1-1s-.48-1-1.09-1a10.59,10.59,0,0,0-1.26,0c-.13,0-.38.06-.38.1a6,6,0,0,0,0,1.75C626.38,47.85,626.91,47.53,627.15,47.62Z" style="fill:#2c3038"/></svg>