<?xml version="1.0" encoding="utf-8"?>
<!-- Generator: Adobe Illustrator 26.3.1, SVG Export Plug-In . SVG Version: 6.00 Build 0)  -->
<svg version="1.1" id="Layer_1" xmlns="http://www.w3.org/2000/svg" xmlns:xlink="http://www.w3.org/1999/xlink" x="0px" y="0px"
	 viewBox="0 0 221.9 63.5" style="enable-background:new 0 0 221.9 63.5;" xml:space="preserve">
<style type="text/css">
	.st0{fill:url(#Path_28986_00000122722191368557582300000004399655728496679077_);}
	.st1{fill:url(#Subtraction_31_00000003077389657784687720000001567156126111299456_);}
	.st2{fill:#373944;}
	.st3{fill:#1E811F;}
	.st4{fill:#56B14E;}
	.st5{fill:url(#Subtraction_32_00000164484284197038721750000013190944706707603088_);}
	.st6{fill:url(#Subtraction_30_00000091707916151065654450000009365260676785662365_);}
</style>
<g id="Group_37090" transform="translate(-530.501 -321)">
	
		<linearGradient id="Path_28986_00000000901190092944409350000017783385111448093620_" gradientUnits="userSpaceOnUse" x1="-25.7226" y1="724.2416" x2="-25.7186" y2="723.2817" gradientTransform="matrix(38.634 0 0 -25.575 1548.0056 18844.3359)">
		<stop  offset="0" style="stop-color:#56B14E"/>
		<stop  offset="0.539" style="stop-color:#4A9E41"/>
		<stop  offset="1" style="stop-color:#357C2A"/>
	</linearGradient>
	<path id="Path_28986" style="fill:url(#Path_28986_00000000901190092944409350000017783385111448093620_);" d="M554.7,321H554
		c-10.5,0-19,8.5-19,19c0,0,0,0,0,0v5.1c0,0.8,0.7,1.5,1.5,1.5c0,0,0,0,0,0h4.1c0.8,0,1.5-0.7,1.5-1.5c0,0,0,0,0,0v-5.4
		c0-6.6,5.3-11.9,11.9-11.9h0.6c6.6,0,11.9,5.3,11.9,11.9v5.4c0,0.8,0.7,1.5,1.5,1.5c0,0,0,0,0,0h4.1c0.8,0,1.5-0.7,1.5-1.5
		c0,0,0,0,0,0V340C573.7,329.5,565.2,321,554.7,321C554.7,321,554.7,321,554.7,321z"/>
	
		<linearGradient id="Subtraction_31_00000044866251046544357630000001880367136226467741_" gradientUnits="userSpaceOnUse" x1="-28.4207" y1="728.4542" x2="-28.4207" y2="729.4121" gradientTransform="matrix(47.275 0 0 -40.924 1897.73 30194.5508)">
		<stop  offset="0" style="stop-color:#4A9E41"/>
		<stop  offset="1" style="stop-color:#56B14E"/>
	</linearGradient>
	<path id="Subtraction_31" style="fill:url(#Subtraction_31_00000044866251046544357630000001880367136226467741_);" d="
		M568.2,384.5h-5.3c-1.8,0-3.4-1-4.2-2.6H549c-0.8,1.6-2.4,2.6-4.2,2.6h-5.3c-1.9,0-3.5-1.1-4.3-2.8c-2.8-0.8-4.7-3.3-4.7-6.2v-24.3
		c0-1.1,0.3-2.3,0.9-3.2c0-2.5,2-4.4,4.5-4.4h8.6c1.2,0,2.3,0.5,3.1,1.3h13.2c0.8-0.8,2-1.3,3.1-1.3h8.6c2.5,0,4.5,2,4.5,4.5v0
		c0.5,1,0.8,2.1,0.8,3.2v24.3c0,3.1-2.3,5.8-5.3,6.3C571.7,383.5,570,384.5,568.2,384.5z M554.1,352.9c-0.2,0-0.4,0-0.6,0
		c-2.9,0.3-4.9,2.9-4.6,5.8c0.2,1.5,1,2.9,2.3,3.7c0.3,0.2,0.4,0.5,0.3,0.8l-1.3,8.7c0,0.2,0,0.5,0.2,0.7c0.2,0.2,0.4,0.3,0.6,0.3
		h6.1c0.2,0,0.5-0.1,0.6-0.3c0.2-0.2,0.2-0.4,0.2-0.7l-1.3-8.7c0-0.3,0.1-0.6,0.3-0.8c2.4-1.6,3-4.9,1.4-7.3
		C557.5,353.8,555.9,352.9,554.1,352.9z"/>
	<path id="Path_28995" class="st2" d="M609.4,376.2H598l-2.3,7.1c-0.3,0.1-0.6,0.2-0.9,0.3c-0.4,0.1-0.7,0.1-1.1,0.1
		c-0.7,0-1.3-0.1-1.9-0.5c-0.5-0.3-0.8-0.9-0.7-1.5c0-0.3,0-0.7,0.1-1c0.1-0.3,0.2-0.7,0.4-1.1c0.4-1.3,1-3,1.7-5
		c0.7-2.1,1.5-4.2,2.3-6.5c0.8-2.3,1.6-4.5,2.5-6.7c0.8-2.2,1.6-4.1,2.2-5.7c0.5-0.2,0.9-0.4,1.4-0.5c0.7-0.2,1.3-0.3,2-0.3
		c0.8,0,1.6,0.1,2.4,0.4c0.7,0.2,1.2,0.7,1.4,1.3c0.7,1.8,1.4,3.8,2.2,6c0.8,2.2,1.6,4.5,2.4,6.9c0.8,2.4,1.6,4.7,2.3,7
		c0.7,2.3,1.4,4.4,2,6.2c-0.3,0.3-0.7,0.6-1.1,0.8c-0.5,0.2-1.1,0.3-1.6,0.3c-0.6,0.1-1.3-0.1-1.8-0.5c-0.4-0.5-0.8-1-0.9-1.6
		L609.4,376.2z M603.7,359.1c-0.3,0.8-0.6,1.8-1,2.8c-0.4,1.1-0.8,2.2-1.2,3.3c-0.4,1.2-0.8,2.3-1.2,3.5s-0.8,2.3-1.2,3.5h9.1
		c-0.4-1.2-0.8-2.5-1.2-3.7c-0.4-1.3-0.8-2.4-1.2-3.6l-1.1-3.2c-0.3-1-0.6-1.9-0.8-2.6L603.7,359.1z M641.9,358.4
		c0,0.5-0.1,1-0.4,1.4c-0.3,0.4-0.6,0.7-1,0.9c-0.9-0.6-1.8-1.1-2.8-1.5c-1.2-0.5-2.6-0.7-3.9-0.7c-1.3,0-2.5,0.2-3.7,0.7
		c-1.1,0.5-2.1,1.2-2.9,2c-0.9,1-1.5,2.1-1.9,3.3c-0.5,1.5-0.7,3-0.7,4.6c0,3.5,0.9,6.1,2.6,7.9c1.8,1.8,4.3,2.8,6.9,2.7
		c1.3,0,2.7-0.2,3.9-0.6c1-0.4,2-0.9,2.9-1.5c0.4,0.2,0.7,0.6,0.9,0.9c0.3,0.4,0.4,0.9,0.4,1.4c0,0.4-0.1,0.8-0.3,1.2
		c-0.3,0.4-0.7,0.8-1.1,1c-0.9,0.5-1.8,0.9-2.8,1.2c-1.5,0.4-3,0.5-4.5,0.5c-1.9,0-3.7-0.3-5.5-0.9c-1.7-0.6-3.2-1.5-4.5-2.7
		c-1.3-1.3-2.3-2.9-3-4.6c-0.8-2.1-1.1-4.3-1.1-6.5c0-2.2,0.3-4.4,1.1-6.4c0.7-1.7,1.7-3.3,3-4.6c1.2-1.2,2.7-2.2,4.4-2.8
		c1.7-0.6,3.5-1,5.3-1c1.2,0,2.4,0.1,3.6,0.3c0.9,0.2,1.9,0.5,2.7,0.9c0.7,0.3,1.3,0.7,1.8,1.3C641.6,357.4,641.8,357.9,641.9,358.4
		L641.9,358.4z M668,358.4c0,0.5-0.1,1-0.4,1.4c-0.3,0.4-0.6,0.7-1,0.9c-0.9-0.6-1.8-1.1-2.8-1.5c-1.2-0.5-2.6-0.7-3.9-0.7
		c-1.3,0-2.5,0.2-3.7,0.7c-1.1,0.5-2.1,1.2-2.9,2c-0.9,1-1.5,2.1-1.9,3.3c-0.5,1.5-0.7,3-0.7,4.6c0,3.5,0.9,6.1,2.6,7.9
		c1.8,1.8,4.3,2.8,6.9,2.7c1.3,0,2.7-0.2,3.9-0.6c1-0.4,2-0.9,2.9-1.5c0.4,0.2,0.7,0.6,0.9,0.9c0.3,0.4,0.4,0.9,0.4,1.4
		c0,0.4-0.1,0.8-0.3,1.2c-0.3,0.4-0.7,0.8-1.1,1c-0.9,0.5-1.8,0.9-2.8,1.2c-1.5,0.4-3,0.5-4.5,0.5c-1.9,0-3.7-0.3-5.5-0.9
		c-1.7-0.6-3.2-1.5-4.4-2.7c-1.3-1.3-2.3-2.9-3-4.6c-0.8-2.1-1.1-4.3-1.1-6.5c0-2.2,0.3-4.4,1.1-6.4c0.7-1.7,1.7-3.3,3-4.6
		c1.2-1.2,2.7-2.2,4.4-2.8c1.7-0.6,3.5-1,5.3-1c1.2,0,2.4,0.1,3.6,0.3c0.9,0.2,1.9,0.5,2.7,0.9c0.7,0.3,1.3,0.7,1.8,1.3
		C667.8,357.4,668,357.9,668,358.4L668,358.4z M676.7,383.3c-0.7,0-1.4-0.2-1.9-0.7c-0.5-0.5-0.8-1.2-0.7-1.9v-22.9
		c0-0.7,0.2-1.4,0.7-1.9c0.5-0.5,1.2-0.7,1.9-0.7h15.3c0.2,0.2,0.3,0.5,0.4,0.8c0.1,0.4,0.2,0.7,0.2,1.1c0,0.6-0.1,1.1-0.5,1.6
		c-0.3,0.4-0.8,0.6-1.3,0.6h-11.9v7.7h11.7c0.2,0.2,0.3,0.5,0.4,0.8c0.1,0.4,0.2,0.7,0.2,1.1c0,0.6-0.1,1.1-0.5,1.6
		c-0.3,0.3-0.8,0.5-1.3,0.5h-10.5v8.4h13.3c0.2,0.2,0.3,0.5,0.4,0.8c0.1,0.4,0.2,0.7,0.2,1.1c0,0.6-0.1,1.1-0.5,1.6
		c-0.3,0.4-0.8,0.6-1.3,0.5L676.7,383.3z M706.7,379.8c1.5,0.1,3.1-0.3,4.3-1.2c0.9-0.8,1.4-1.9,1.4-3.1c0-1-0.3-2-1.1-2.7
		c-1-0.8-2.1-1.4-3.4-1.7l-3.5-1.1c-1-0.3-2-0.7-2.9-1.2c-0.8-0.4-1.6-0.9-2.2-1.6c-0.6-0.6-1.1-1.3-1.4-2.1
		c-0.3-0.9-0.5-1.9-0.5-2.9c-0.1-2.3,0.9-4.4,2.7-5.8c2.1-1.5,4.7-2.3,7.3-2.1c1.2,0,2.4,0.1,3.5,0.3c1,0.2,1.9,0.4,2.8,0.8
		c0.7,0.3,1.3,0.7,1.9,1.3c0.4,0.4,0.7,1,0.7,1.6c0,0.5-0.1,1-0.4,1.4c-0.3,0.4-0.6,0.7-1,0.9c-0.9-0.7-1.9-1.2-3-1.5
		c-1.3-0.4-2.7-0.6-4.1-0.6c-1.4-0.1-2.8,0.3-3.9,1c-0.9,0.6-1.4,1.6-1.4,2.7c0,0.9,0.3,1.7,1,2.2c1,0.7,2,1.2,3.2,1.5l2.7,0.8
		c2.2,0.6,4.3,1.7,6,3.2c1.5,1.4,2.3,3.4,2.2,5.5c0,1.2-0.2,2.3-0.7,3.4c-0.5,1-1.2,1.9-2.1,2.7c-1,0.8-2.1,1.4-3.4,1.7
		c-1.5,0.4-3,0.6-4.6,0.6c-1.3,0-2.6-0.1-3.9-0.4c-1-0.2-2.1-0.5-3-1c-0.7-0.3-1.4-0.8-2-1.4c-0.4-0.4-0.7-1-0.7-1.7
		c0-0.6,0.2-1.1,0.6-1.6c0.4-0.4,0.8-0.8,1.3-1c0.9,0.8,1.9,1.4,3,1.9C703.5,379.5,705.1,379.8,706.7,379.8z M731.3,379.8
		c1.5,0.1,3.1-0.3,4.3-1.2c0.9-0.8,1.4-1.9,1.4-3.1c0-1-0.3-2-1.1-2.7c-1-0.8-2.1-1.4-3.4-1.7l-3.5-1.1c-1-0.3-2-0.7-2.9-1.2
		c-0.8-0.4-1.6-0.9-2.2-1.6c-0.6-0.6-1.1-1.3-1.4-2.1c-0.3-0.9-0.5-1.9-0.5-2.9c-0.1-2.3,0.9-4.4,2.7-5.8c2.1-1.5,4.7-2.3,7.3-2.1
		c1.2,0,2.4,0.1,3.5,0.3c1,0.2,1.9,0.4,2.8,0.8c0.7,0.3,1.3,0.7,1.9,1.3c0.4,0.4,0.7,1,0.7,1.6c0,0.5-0.1,1-0.4,1.4
		c-0.3,0.4-0.6,0.7-1,0.9c-0.9-0.7-1.9-1.2-3-1.5c-1.3-0.4-2.7-0.6-4.1-0.6c-1.4-0.1-2.8,0.3-3.9,1c-0.9,0.6-1.4,1.6-1.4,2.7
		c0,0.9,0.3,1.7,1,2.2c1,0.7,2,1.2,3.2,1.5l2.7,0.8c2.2,0.6,4.3,1.7,6,3.2c1.5,1.4,2.3,3.4,2.2,5.5c0,1.2-0.2,2.3-0.7,3.4
		c-0.5,1-1.2,1.9-2.1,2.7c-1,0.8-2.1,1.4-3.4,1.7c-1.5,0.4-3,0.6-4.6,0.6c-1.3,0-2.6-0.1-3.9-0.4c-1-0.2-2.1-0.5-3-1
		c-0.7-0.3-1.4-0.8-2-1.4c-0.4-0.4-0.7-1-0.7-1.7c0-0.6,0.2-1.1,0.6-1.6c0.4-0.4,0.8-0.8,1.3-1c0.9,0.8,1.9,1.4,3,1.9
		C728.2,379.5,729.7,379.8,731.3,379.8z M659.2,346.9"/>
	<g id="Group_37089" transform="translate(591.641 330.488)">
		<path id="Path_28994" class="st2" d="M1.4,10.1V15c-0.1,0-0.2,0.1-0.4,0.1c-0.2,0-0.3,0.1-0.5,0.1c-0.7,0-1-0.3-1-0.8V2.2
			c0-0.2,0.1-0.4,0.2-0.6C-0.2,1.4,0,1.3,0.3,1.3C0.8,1.1,1.3,1,1.9,1c0.6-0.1,1.2-0.1,1.8-0.1c1.5-0.1,3,0.3,4.2,1.2
			C8.9,3,9.4,4.2,9.3,5.4c0.1,1.3-0.4,2.5-1.4,3.4c-1.2,0.9-2.7,1.4-4.2,1.3H1.4z M3.6,8.5c1,0.1,2-0.2,2.8-0.8
			c0.7-0.6,1.1-1.4,1-2.3c0.1-0.9-0.3-1.7-1-2.3C5.6,2.6,4.6,2.4,3.7,2.4c-0.4,0-0.8,0-1.2,0.1C2,2.5,1.7,2.6,1.4,2.7v5.9L3.6,8.5z
			 M13.1,15c-0.1,0-0.2,0.1-0.3,0.1c-0.2,0-0.3,0.1-0.5,0.1c-0.7,0-1-0.3-1-0.8V6.6c0-0.3,0.1-0.6,0.2-0.8c0.2-0.2,0.4-0.5,0.7-0.6
			c0.5-0.3,1-0.5,1.6-0.7c0.8-0.2,1.5-0.3,2.3-0.3c1.2,0,1.8,0.3,1.8,0.9c0,0.1,0,0.3-0.1,0.4c0,0.1-0.1,0.2-0.2,0.3
			c-0.2,0-0.4-0.1-0.6-0.1c-0.2,0-0.5,0-0.7,0c-0.6,0-1.2,0.1-1.9,0.2c-0.5,0.1-0.9,0.3-1.3,0.5L13.1,15z M22,15
			c-0.1,0-0.2,0.1-0.3,0.1c-0.2,0-0.3,0.1-0.5,0.1c-0.7,0-1-0.3-1-0.8V4.5c0.1,0,0.2-0.1,0.4-0.1c0.2,0,0.3-0.1,0.5-0.1
			c0.6,0,1,0.3,1,0.8L22,15z M19.9,1.1c0-0.3,0.1-0.6,0.3-0.8C20.4,0.1,20.7,0,21,0c0.3,0,0.6,0.1,0.8,0.3c0.2,0.2,0.3,0.5,0.3,0.8
			c0,0.3-0.1,0.6-0.3,0.8c-0.2,0.2-0.5,0.3-0.8,0.3c-0.3,0-0.6-0.1-0.9-0.3C20,1.7,19.8,1.5,19.9,1.1z M33.5,4.3
			c0.2,0,0.4,0.1,0.6,0.2c0.2,0.2,0.3,0.4,0.2,0.6c0,0.3-0.1,0.6-0.2,0.9c-0.1,0.4-0.3,0.9-0.5,1.5C33.5,8,33.2,8.7,33,9.3
			c-0.3,0.7-0.5,1.4-0.8,2s-0.6,1.3-0.8,2C31,14,30.8,14.5,30.5,15c-0.1,0.1-0.3,0.1-0.4,0.2c-0.2,0-0.4,0.1-0.6,0.1
			c-0.6,0-0.9-0.2-1.1-0.5c-0.1-0.3-0.3-0.6-0.5-1.1s-0.4-1-0.7-1.6c-0.2-0.6-0.5-1.2-0.8-1.9c-0.3-0.7-0.5-1.3-0.8-2S25.2,7,25,6.4
			s-0.4-1.1-0.5-1.6c0.1-0.2,0.3-0.3,0.4-0.4c0.2-0.1,0.4-0.1,0.5-0.1c0.2,0,0.5,0.1,0.6,0.2c0.2,0.2,0.3,0.4,0.4,0.7l1.4,4.1
			c0.1,0.3,0.2,0.6,0.3,0.9c0.1,0.4,0.3,0.8,0.4,1.1c0.1,0.4,0.3,0.8,0.4,1.1c0.1,0.4,0.3,0.7,0.4,0.9h0.1c0.6-1.5,1.2-3.1,1.7-4.6
			s1-3,1.4-4.4C32.9,4.3,33.2,4.3,33.5,4.3L33.5,4.3z M40.3,13.9c0.5,0,1.1-0.1,1.6-0.2c0.3-0.1,0.6-0.2,0.9-0.4V10l-2.8,0.3
			c-0.6,0-1.2,0.2-1.8,0.5c-0.4,0.3-0.6,0.8-0.6,1.2c0,0.5,0.2,1,0.7,1.3C38.9,13.8,39.6,13.9,40.3,13.9z M40.3,4.2
			c1.1-0.1,2.2,0.3,3.2,0.9c0.8,0.7,1.3,1.7,1.2,2.8v5.4c0,0.3,0,0.5-0.2,0.8c-0.2,0.2-0.4,0.4-0.6,0.5c-0.5,0.2-0.9,0.4-1.5,0.6
			c-0.7,0.2-1.4,0.2-2.1,0.2c-1.2,0.1-2.3-0.2-3.3-0.8c-0.8-0.6-1.2-1.5-1.2-2.4c-0.1-0.9,0.3-1.7,1-2.3c0.8-0.6,1.8-0.9,2.8-0.9
			l3.3-0.3V7.9c0.1-0.6-0.2-1.3-0.7-1.7c-0.5-0.4-1.2-0.6-1.9-0.5c-0.6,0-1.2,0.1-1.8,0.3c-0.5,0.2-1,0.4-1.5,0.6
			c-0.1-0.1-0.2-0.2-0.3-0.4c-0.1-0.1-0.2-0.3-0.1-0.5c0-0.2,0-0.4,0.2-0.5c0.1-0.2,0.3-0.3,0.5-0.4c0.4-0.2,0.9-0.4,1.4-0.5
			C39.1,4.2,39.7,4.2,40.3,4.2z M51.6,15.4c-0.9,0-1.8-0.2-2.6-0.7c-0.7-0.6-1.1-1.5-1-2.4V1.4c0.1,0,0.2-0.1,0.4-0.1
			c0.2,0,0.3-0.1,0.5-0.1c0.6,0,1,0.3,1,0.8v2.6h3.8c0.1,0.1,0.1,0.2,0.1,0.3c0,0.1,0.1,0.3,0.1,0.4c0,0.5-0.2,0.8-0.7,0.8h-3.3v6
			c-0.1,0.5,0.1,1,0.5,1.3c0.4,0.3,0.9,0.4,1.5,0.4c0.3,0,0.6-0.1,0.9-0.1c0.3-0.1,0.5-0.2,0.8-0.3c0.1,0.1,0.2,0.2,0.3,0.3
			c0.1,0.1,0.1,0.3,0.1,0.5c0,0.4-0.3,0.7-0.6,0.8C52.7,15.3,52.1,15.4,51.6,15.4z M57.1,10.9c0.4,2,1.7,3,3.9,3
			c0.6,0,1.2-0.1,1.7-0.3c0.4-0.2,0.9-0.4,1.2-0.7c0.3,0.2,0.5,0.5,0.5,0.9c0,0.2-0.1,0.5-0.3,0.6c-0.2,0.2-0.5,0.4-0.8,0.5
			c-0.4,0.2-0.8,0.3-1.1,0.4c-0.5,0.1-0.9,0.1-1.4,0.1c-1.5,0.1-3-0.4-4.2-1.4c-1.1-1.1-1.7-2.7-1.5-4.2c0-0.8,0.1-1.6,0.4-2.3
			c0.2-0.6,0.6-1.2,1.1-1.7c0.5-0.5,1-0.8,1.6-1.1c0.6-0.3,1.3-0.4,2-0.4c0.6,0,1.3,0.1,1.9,0.3c0.6,0.2,1.1,0.5,1.5,1
			c0.4,0.4,0.8,0.9,1,1.5C64.9,7.6,65,8.2,65,8.9c0,0.3-0.1,0.5-0.2,0.7c-0.2,0.2-0.4,0.2-0.6,0.3L57.1,10.9z M60.2,5.7
			c-0.9,0-1.7,0.3-2.3,1c-0.7,0.8-1,1.8-1,2.8l6.3-0.9c0-0.8-0.4-1.5-0.9-2.1C61.8,5.9,61,5.6,60.2,5.7L60.2,5.7z"/>
		<path id="Path_28992" class="st3" d="M75.4,15c-0.1,0-0.2,0.1-0.3,0.1c-0.2,0-0.3,0.1-0.5,0.1c-0.7,0-1-0.3-1-0.8V1.2
			c0.1,0,0.2-0.1,0.4-0.1C74,1,74.2,1,74.4,1c0.7,0,1,0.3,1,0.8L75.4,15z M86.5,8.2c0.1-0.7-0.2-1.4-0.7-1.9
			c-0.6-0.4-1.2-0.6-1.9-0.6c-0.6,0-1.1,0.1-1.6,0.2c-0.4,0.1-0.8,0.3-1.2,0.5V15c-0.1,0-0.2,0.1-0.3,0.1c-0.2,0-0.3,0.1-0.5,0.1
			c-0.7,0-1-0.3-1-0.8V6.5c0-0.3,0.1-0.6,0.2-0.8c0.2-0.2,0.4-0.5,0.7-0.6c0.5-0.3,1-0.5,1.6-0.7c0.7-0.2,1.5-0.3,2.2-0.3
			c1.2-0.1,2.3,0.3,3.3,0.9c0.8,0.7,1.3,1.8,1.2,3V15c-0.1,0-0.2,0.1-0.4,0.1c-0.2,0-0.3,0.1-0.5,0.1c-0.7,0-1-0.3-1-0.8L86.5,8.2z
			 M95.4,15.4c-0.9,0-1.8-0.2-2.6-0.7c-0.7-0.6-1.1-1.5-1-2.4V1.4c0.1,0,0.2-0.1,0.4-0.1c0.2,0,0.3-0.1,0.5-0.1c0.6,0,1,0.3,1,0.8
			v2.6h3.8c0.1,0.1,0.1,0.2,0.1,0.3c0,0.1,0.1,0.3,0.1,0.4c0,0.5-0.2,0.8-0.7,0.8h-3.3v5.9c-0.1,0.5,0.1,1,0.5,1.3
			c0.4,0.3,0.9,0.4,1.5,0.4c0.3,0,0.6-0.1,0.9-0.1c0.3-0.1,0.5-0.2,0.8-0.3c0.1,0.1,0.2,0.2,0.3,0.3c0.1,0.1,0.1,0.3,0.1,0.5
			c0,0.4-0.3,0.7-0.6,0.8C96.5,15.3,95.9,15.4,95.4,15.4z M100.9,10.8c0.4,2,1.7,3,3.9,3c0.6,0,1.2-0.1,1.7-0.3
			c0.4-0.2,0.9-0.4,1.2-0.7c0.3,0.2,0.5,0.5,0.5,0.9c0,0.2-0.1,0.5-0.3,0.6c-0.2,0.2-0.5,0.4-0.8,0.5c-0.4,0.2-0.8,0.3-1.1,0.4
			c-0.5,0.1-0.9,0.1-1.4,0.1c-1.5,0.1-3-0.4-4.2-1.4c-1.1-1.1-1.7-2.7-1.5-4.2c0-0.8,0.1-1.6,0.4-2.3c0.2-0.6,0.6-1.2,1.1-1.7
			c0.5-0.5,1-0.8,1.6-1.1c0.6-0.3,1.3-0.4,2-0.4c0.6,0,1.3,0.1,1.9,0.3c0.6,0.2,1.1,0.5,1.5,1c0.4,0.4,0.8,0.9,1,1.5
			c0.2,0.6,0.4,1.2,0.4,1.9c0,0.3-0.1,0.5-0.2,0.7c-0.2,0.2-0.4,0.2-0.6,0.3L100.9,10.8z M104.1,5.7c-0.9,0-1.7,0.3-2.3,1
			c-0.7,0.8-1,1.8-1,2.8l6.3-0.9c0-0.8-0.4-1.5-0.9-2.1C105.6,5.9,104.9,5.6,104.1,5.7L104.1,5.7z M113.3,15c-0.1,0-0.2,0.1-0.3,0.1
			c-0.2,0-0.3,0.1-0.5,0.1c-0.7,0-1-0.3-1-0.8V6.6c0-0.3,0.1-0.6,0.2-0.8c0.2-0.2,0.4-0.5,0.7-0.6c0.5-0.3,1-0.5,1.6-0.7
			c0.8-0.2,1.5-0.3,2.3-0.3c1.2,0,1.8,0.3,1.8,0.9c0,0.1,0,0.3-0.1,0.4c0,0.1-0.1,0.2-0.2,0.3c-0.2,0-0.4-0.1-0.6-0.1
			c-0.2,0-0.5,0-0.7,0c-0.6,0-1.2,0.1-1.9,0.2c-0.5,0.1-0.9,0.3-1.3,0.5L113.3,15z M127.3,8.2c0.1-0.7-0.2-1.4-0.7-1.9
			c-0.6-0.4-1.2-0.6-1.9-0.6c-0.6,0-1.1,0.1-1.6,0.2c-0.4,0.1-0.8,0.3-1.2,0.5V15c-0.1,0-0.2,0.1-0.3,0.1c-0.2,0-0.3,0.1-0.5,0.1
			c-0.7,0-1-0.3-1-0.8V6.5c0-0.3,0.1-0.6,0.2-0.8c0.2-0.2,0.4-0.5,0.7-0.6c0.5-0.3,1-0.5,1.6-0.7c0.7-0.2,1.5-0.3,2.2-0.3
			c1.2-0.1,2.3,0.3,3.3,0.9c0.8,0.7,1.3,1.8,1.2,3V15c-0.1,0-0.2,0.1-0.4,0.1c-0.2,0-0.3,0.1-0.5,0.1c-0.7,0-1-0.3-1-0.8L127.3,8.2z
			 M133.9,10.8c0.4,2,1.7,3,3.9,3c0.6,0,1.2-0.1,1.7-0.3c0.4-0.2,0.9-0.4,1.2-0.7c0.3,0.2,0.5,0.5,0.5,0.9c0,0.2-0.1,0.5-0.3,0.6
			c-0.2,0.2-0.5,0.4-0.8,0.5c-0.4,0.2-0.8,0.3-1.1,0.4c-0.5,0.1-0.9,0.1-1.4,0.1c-1.5,0.1-3-0.4-4.2-1.4c-1.1-1.1-1.7-2.7-1.5-4.2
			c0-0.8,0.1-1.6,0.4-2.3c0.2-0.6,0.6-1.2,1.1-1.7c0.5-0.5,1-0.8,1.6-1.1c0.6-0.3,1.3-0.4,2-0.4c0.6,0,1.3,0.1,1.9,0.3
			c0.6,0.2,1.1,0.5,1.5,1c0.4,0.4,0.8,0.9,1,1.5c0.2,0.6,0.4,1.2,0.4,1.9c0,0.3-0.1,0.5-0.2,0.7c-0.2,0.2-0.4,0.2-0.6,0.3
			L133.9,10.8z M137.1,5.7c-0.9,0-1.7,0.3-2.3,1c-0.7,0.8-1,1.8-1,2.8l6.3-0.9c0-0.8-0.4-1.5-0.9-2.1C138.7,5.9,137.9,5.6,137.1,5.7
			z M148.1,15.4c-0.9,0-1.8-0.2-2.6-0.7c-0.7-0.6-1.1-1.5-1-2.4V1.4c0.1,0,0.2-0.1,0.4-0.1c0.2,0,0.3-0.1,0.5-0.1c0.6,0,1,0.3,1,0.8
			v2.6h3.8c0.1,0.1,0.1,0.2,0.1,0.3c0,0.1,0.1,0.3,0.1,0.4c0,0.5-0.2,0.8-0.7,0.8h-3.3v5.9c-0.1,0.5,0.1,1,0.5,1.3
			c0.4,0.3,0.9,0.4,1.5,0.4c0.3,0,0.6-0.1,0.9-0.1c0.3-0.1,0.5-0.2,0.8-0.3c0.1,0.1,0.2,0.2,0.3,0.3c0.1,0.1,0.1,0.3,0.1,0.5
			c0,0.4-0.3,0.7-0.6,0.8C149.2,15.3,148.7,15.4,148.1,15.4z"/>
	</g>
	<path id="Path_28981" class="st4" d="M551,336.3c0-1.2-1-2.1-2.2-2.1c-1.2,0-2.1,1-2.1,2.1c0,1.2,1,2.1,2.1,2.1
		C550,338.4,551,337.4,551,336.3C551,336.3,551,336.3,551,336.3 M559.4,334.1c-1.2,0-2.1,1-2.1,2.1c0,1.2,1,2.1,2.1,2.1
		c1.2,0,2.1-1,2.1-2.1l0,0C561.6,335.1,560.6,334.1,559.4,334.1 M557.1,339.8c-1.7,1.5-4.3,1.5-6,0c-0.2-0.2-0.6-0.2-0.8,0
		c-0.2,0.2-0.2,0.6,0,0.8c2.1,2,5.4,2,7.5,0c0.2-0.2,0.2-0.6,0-0.8C557.7,339.6,557.4,339.6,557.1,339.8
		C557.1,339.8,557.1,339.8,557.1,339.8"/>
	<g id="Group_37088" transform="translate(547.365 350.858)">
		
			<linearGradient id="Subtraction_32_00000117664327920509839790000002690438774052629388_" gradientUnits="userSpaceOnUse" x1="-548.5711" y1="371.72" x2="-548.5921" y2="372.399" gradientTransform="matrix(14.5383 0 0 -24.1005 7982.2949 8979.3096)">
			<stop  offset="0" style="stop-color:#56B14E"/>
			<stop  offset="0.3" style="stop-color:#4A9E41"/>
			<stop  offset="0.355" style="stop-color:#45973C"/>
			<stop  offset="0.523" style="stop-color:#3C8732"/>
			<stop  offset="0.717" style="stop-color:#367E2B"/>
			<stop  offset="1" style="stop-color:#357C2A"/>
		</linearGradient>
		<path id="Subtraction_32" style="fill:url(#Subtraction_32_00000117664327920509839790000002690438774052629388_);" d="M9.8,24.1
			H3.7c-1.6,0-2.9-1.3-2.9-2.9c0-0.1,0-0.3,0-0.4l1.2-8C-1,10.2-1.4,5.6,1.2,2.6C2.4,1.1,4.1,0.3,6,0c0.3,0,0.5,0,0.8,0
			c4,0,7.3,3.3,7.3,7.3c0,2.1-0.9,4.1-2.6,5.5l1.2,8c0.2,1.6-0.9,3-2.4,3.3C10.1,24.1,10,24.1,9.8,24.1z M6.8,2c-0.2,0-0.4,0-0.6,0
			C3.3,2.4,1.3,5,1.6,7.9c0.2,1.5,1,2.9,2.3,3.7c0.3,0.2,0.4,0.5,0.3,0.8l-1.3,8.7C2.8,21.6,3.1,22,3.6,22c0,0,0.1,0,0.1,0h6.1
			c0.2,0,0.5-0.1,0.6-0.3c0.2-0.2,0.2-0.4,0.2-0.6l-1.3-8.7c0-0.3,0.1-0.6,0.4-0.8c2.4-1.6,3-4.9,1.4-7.3C10.1,2.9,8.5,2,6.8,2
			L6.8,2z"/>
		
			<linearGradient id="Subtraction_30_00000165202363216510516940000012195781354932609964_" gradientUnits="userSpaceOnUse" x1="-548.5711" y1="371.72" x2="-548.5921" y2="372.399" gradientTransform="matrix(14.5383 0 0 -24.1005 7982.2949 8979.3066)">
			<stop  offset="0" style="stop-color:#56B14E;stop-opacity:0.153"/>
			<stop  offset="1" style="stop-color:#9BF893;stop-opacity:0.263"/>
		</linearGradient>
		<path id="Subtraction_30" style="fill:url(#Subtraction_30_00000165202363216510516940000012195781354932609964_);" d="M9.8,24.1
			H3.7c-1.6,0-2.9-1.3-2.9-2.9c0-0.1,0-0.3,0-0.4l1.2-8C-1,10.2-1.4,5.6,1.2,2.6C2.4,1.1,4.1,0.2,6,0c0.3,0,0.5,0,0.8,0
			c4,0,7.3,3.3,7.3,7.3c0,2.1-0.9,4.1-2.6,5.5l1.2,8c0.2,1.6-0.9,3-2.4,3.3C10.1,24.1,10,24.1,9.8,24.1z M6.8,2c-0.2,0-0.4,0-0.6,0
			C3.3,2.4,1.3,5,1.6,7.9c0.2,1.5,1,2.9,2.3,3.7c0.3,0.2,0.4,0.5,0.3,0.8l-1.3,8.7c0,0.2,0,0.5,0.2,0.6C3.2,21.9,3.5,22,3.7,22h6.1
			c0.5,0,0.8-0.4,0.8-0.8c0,0,0-0.1,0-0.1l-1.3-8.7c0-0.3,0.1-0.6,0.3-0.8c2.4-1.6,3-4.9,1.4-7.3C10.1,2.9,8.5,2,6.8,2z"/>
	</g>
	<path id="Path_34" class="st2" d="M745,358c0-0.5,0.1-0.9,0.3-1.4c0.2-0.4,0.4-0.8,0.8-1.1c0.3-0.3,0.7-0.6,1.2-0.8
		c1-0.4,2-0.4,3,0c0.4,0.2,0.8,0.4,1.2,0.8c0.3,0.3,0.6,0.7,0.8,1.1c0.4,0.9,0.4,1.9,0,2.8c-0.2,0.4-0.4,0.8-0.8,1.1
		c-0.3,0.3-0.7,0.6-1.2,0.8c-1,0.4-2,0.4-3,0c-0.9-0.4-1.6-1-1.9-1.9C745.1,358.9,745,358.5,745,358z M745.8,358
		c0,0.4,0.1,0.8,0.2,1.1c0.1,0.3,0.3,0.6,0.6,0.9c0.3,0.3,0.6,0.5,0.9,0.6c0.8,0.3,1.6,0.3,2.4,0c0.3-0.1,0.7-0.3,0.9-0.6
		c0.3-0.3,0.5-0.6,0.6-0.9c0.3-0.7,0.3-1.6,0-2.3c-0.1-0.3-0.3-0.6-0.6-0.9c-0.3-0.3-0.6-0.5-0.9-0.6c-0.8-0.3-1.6-0.3-2.4,0
		c-0.3,0.1-0.7,0.3-0.9,0.6c-0.3,0.3-0.5,0.6-0.6,0.9C745.9,357.2,745.8,357.6,745.8,358z M748.3,358.4v1.2c-0.1,0-0.3,0-0.4,0
		c-0.1,0-0.2,0-0.3-0.1c-0.1,0-0.1-0.1-0.1-0.3v-2.7c0-0.1,0.1-0.2,0.3-0.3c0.1,0,0.3,0,0.4-0.1c0.1,0,0.2,0,0.4,0
		c0.4,0,0.8,0.1,1.1,0.3c0.4,0.3,0.5,1,0.2,1.4c0,0,0,0,0,0c-0.1,0.2-0.3,0.3-0.5,0.3l0.8,1c0,0.1-0.1,0.2-0.1,0.2
		c-0.1,0.1-0.2,0.1-0.3,0.1c-0.2,0-0.4-0.1-0.5-0.3l-0.6-0.9L748.3,358.4z M748.7,357.8c0.4,0,0.6-0.2,0.6-0.5
		c0-0.1-0.1-0.3-0.2-0.3c-0.1-0.1-0.3-0.1-0.5-0.1c-0.1,0-0.1,0-0.2,0s-0.1,0-0.2,0v0.9H748.7z"/>
</g>
</svg>
