<svg id="Capa_1" data-name="Capa 1" xmlns="http://www.w3.org/2000/svg" viewBox="0 0 640 140"><path d="M581.85,44.85a13.46,13.46,0,1,0,13.43-13.44A13.43,13.43,0,0,0,581.85,44.85Zm3.1,0a10.33,10.33,0,1,1,20.65,0,10.33,10.33,0,1,1-20.65,0ZM597.47,52h3.83l-2.92-5.58a4.54,4.54,0,0,0,2.81-4.21,4.82,4.82,0,0,0-5-4.7h-5.76V52h3.46V47H595Zm-3.58-7.86V40.32h1.68a1.91,1.91,0,1,1,0,3.81Z" style="fill:#222e3a"/><path d="M574.11,59.65H556.85L540,77.74V31.41h-13.2v76.87H540V95.43l5.45-5.73,12.9,18.58h16.17L554.57,80.11Z" style="fill:#222e3a"/><path d="M521.9,59.52c-1-.1-1.93,0-3,0-4.11,0-10.8,1-13.73,7.4v-7.4H492.53v48.76h13V86.07c0-10.46,5.48-14.35,12.13-14.35h4.22Z" style="fill:#222e3a"/><path d="M442.36,94.08c0,7.38,6.3,14.2,16.64,14.2,7.19,0,11.81-2.08,14.28-5.82l.44,5.82h11.47V77.42c0-9.5-5.71-18-21.07-18-13,0-20,8.16-20.77,15.55L455,77.42c.4-4.13,3.55-7.68,9.26-7.68,5.51,0,8.17,2.78,8.17,6.14,0,1.63-.89,1.79-3.64,2.17l-11.92,1.73C448.76,80.93,442.36,85.63,442.36,94.08Zm19.4,4.7c-4.24,0-6.3-2.69-6.3-5.47,0-3.65,2.65-5.47,6-6l10.93-1.63V89C472.39,97.37,467.27,98.78,461.76,98.78Z" style="fill:#222e3a"/><path d="M406.46,79.72c.3-5.34,3.54-9.49,9-9.49,6.28,0,8.93,4.25,8.93,9.68v28.37h13.05V77.64c0-10.67-5.69-18-18-18-4.61,0-9.91.36-13.05,4.11V31.41h-13v76.87h13Z" style="fill:#222e3a"/><path d="M349.37,94.24c.59,5.26,5.53,14,20.17,14,12.75,0,19-7.46,19-15,0-6.76-4.84-12.31-14.43-14.19l-6.93-1.41c-2.66-.47-4.44-1.88-4.44-4.13,0-2.63,2.76-4.61,6.22-4.61,5.54,0,7.62,3.48,8,6.21l11-2.35c-.59-5-5.24-13.35-19.08-13.35-10.49,0-18.2,6.86-18.2,15.13,0,6.49,4.25,11.84,13.65,13.82l6.42,1.41c3.76.75,5.24,2.44,5.24,4.51,0,2.44-2.07,4.6-6.42,4.6-5.74,0-8.6-3.38-8.9-7Z" style="fill:#222e3a"/><path d="M336.12,50.84v-.2a7.94,7.94,0,0,1,7.95-7.93h2.85V31.41H340.5c-9.93,0-17.42,7.44-17.42,18.06V59.52h-8v12.2h8v36.56h13V71.72h10.8V59.52h-10.8V50.84Z" style="fill:#222e3a;fill-rule:evenodd"/><path d="M310.21,59.52c-1-.1-1.93,0-3,0-4.12,0-10.8,1-13.74,7.4v-7.4H280.84v48.76h13V86.07c0-10.46,5.48-14.35,12.14-14.35h4.21Z" style="fill:#222e3a"/><path d="M261.58,108.28H273.5V59.47h-13V87.93c0,5.63-3.51,8.29-9.27,8.29-6.06,0-8.8-4.34-8.8-9.78v-27h-13V89.11c0,10.57,6.65,19.17,18.27,19.17,5.08,0,10.84-.69,13.47-5.24Z" style="fill:#222e3a"/><path d="M223.51,50.25c-1.67-8.19-8.58-18.84-26.57-18.84-14,0-25.84,9.83-25.84,22.72,0,11,7.63,18.43,19.46,20.78l10.35,2c5.76,1.13,9,5.62,9,9.82,0,5.12-4.29,8.91-12,8.91-10.46,0-15.59-6.45-16.22-13.62l-13.39,3.48c1.15,10.34,9.84,22.73,29.5,22.73,17.27,0,26.79-11.26,26.79-22.42,0-10.24-7.22-20.06-20.72-22.61l-10.35-2c-5.44-1-8.06-4.2-8.06-8.19,0-4.81,4.6-9.21,11.61-9.21,9.42,0,12.77,6.24,13.5,10.23Z" style="fill:#222e3a"/><path d="M113.5,3.36H82.14c-20.23,1.09-28.73,12.8-31,19C42.27,48.88,36.75,83.19,32.77,108c-.08.48-.16,1-.23,1.44l-1.3,11.77a20.66,20.66,0,0,0,.6,5.83c2.49,7.18,10,13.23,26.48,7.2h0c15.59-6.78,34-15.2,53.05-24.65,10.84-6.25,26.72-20.62,27.54-38.77-.15-13.46-.6-27.58-1.52-41.31h0v-.1c-.07-1.13-.15-2.43-.23-3.79-.16-2.61-.33-5.42-.51-7.55a25.69,25.69,0,0,0-1-4C133,8.14,127.77,5.31,122.31,4A64.91,64.91,0,0,0,113.5,3.36Zm-1.18,27.4A2.77,2.77,0,0,0,109.55,28a31.8,31.8,0,0,0-31.8,31.8V70.26A17.09,17.09,0,0,1,60.66,87.35a2.86,2.86,0,0,0-2.85,2.85v8.66a2.76,2.76,0,0,0,2.77,2.76,31.79,31.79,0,0,0,31.8-31.79V59.36a17.09,17.09,0,0,1,17.09-17.09,2.86,2.86,0,0,0,2.85-2.85Z" style="fill:#178a9e;fill-rule:evenodd"/><path d="M109.55,28a2.77,2.77,0,0,1,2.77,2.76v8.66a2.86,2.86,0,0,1-2.85,2.85h0A17.09,17.09,0,0,0,92.38,59.36V69.83a31.79,31.79,0,0,1-31.8,31.79h0a2.76,2.76,0,0,1-2.77-2.76V90.2a2.86,2.86,0,0,1,2.85-2.85h0A17.09,17.09,0,0,0,77.75,70.26V59.8A31.8,31.8,0,0,1,109.55,28Z" style="fill:#fff"/></svg>