<?xml version="1.0" encoding="utf-8"?>
<!-- Generator: Adobe Illustrator 26.2.1, SVG Export Plug-In . SVG Version: 6.00 Build 0)  -->
<svg version="1.1" id="Capa_1" xmlns="http://www.w3.org/2000/svg" xmlns:xlink="http://www.w3.org/1999/xlink" x="0px" y="0px"
	 width="28px" height="28px" viewBox="0 0 28 28" style="enable-background:new 0 0 28 28;" xml:space="preserve">
<style type="text/css">
	.st0{fill:url(#Path_28986_00000133522326772541131420000007408350578728912010_);}
	.st1{fill:url(#Subtraction_31_00000167379850079989000440000003427860982970353334_);}
	.st2{fill:#373944;}
	.st3{fill:#1E811F;}
	.st4{fill:#56B14E;}
	.st5{fill:url(#Subtraction_32_00000062909534211084659150000003292381993152833209_);}
	.st6{fill:url(#Subtraction_30_00000062174757399110610070000017435798448154743988_);}
	.st7{fill:url(#Path_28986_00000099657582894925259820000013665341587880235667_);}
	.st8{fill:url(#Subtraction_31_00000041268754499523216210000003376224952330914706_);}
	.st9{fill:url(#Subtraction_32_00000156546362750723847040000014960748161925782681_);}
	.st10{fill:url(#Subtraction_30_00000179620376538154362440000000068104678867552924_);}
	.st11{fill:url(#Path_28986_00000010300878707136800140000007371265950285889421_);}
	.st12{fill:url(#Subtraction_31_00000081612784371153357180000014419856999736368536_);}
	.st13{fill:url(#Subtraction_32_00000075151398079184212650000012214617456705446289_);}
	.st14{fill:url(#Subtraction_30_00000158743669801488901930000004490811683180663726_);}
</style>
<g id="Group_37090_00000120555150154536167940000002168503578967710117_" transform="translate(-530.501 -321)">
	
		<linearGradient id="Path_28986_00000027585613373051926250000016382266140278398892_" gradientUnits="userSpaceOnUse" x1="-328.3427" y1="84.8038" x2="-328.3409" y2="85.2235" gradientTransform="matrix(38.634 0 0 25.575 13229.7002 -1847.3646)">
		<stop  offset="0" style="stop-color:#56B14E"/>
		<stop  offset="0.539" style="stop-color:#4A9E41"/>
		<stop  offset="1" style="stop-color:#357C2A"/>
	</linearGradient>
	
		<path id="Path_28986_00000146498026417759630500000013151391060124424382_" style="fill:url(#Path_28986_00000027585613373051926250000016382266140278398892_);" d="
		M544.7,321.1h-0.3c-4.6,0-8.3,3.7-8.3,8.3l0,0v2.2c0,0.3,0.3,0.7,0.7,0.7l0,0h1.8c0.3,0,0.7-0.3,0.7-0.7l0,0v-2.4
		c0-2.9,2.3-5.2,5.2-5.2h0.3c2.9,0,5.2,2.3,5.2,5.2v2.4c0,0.3,0.3,0.7,0.7,0.7l0,0h1.8c0.3,0,0.7-0.3,0.7-0.7l0,0v-2.2
		C553,324.8,549.3,321.1,544.7,321.1L544.7,321.1z"/>
	
		<linearGradient id="Subtraction_31_00000064348057615514762870000013704398571868597137_" gradientUnits="userSpaceOnUse" x1="-335.038" y1="74.8535" x2="-335.038" y2="74.4347" gradientTransform="matrix(47.275 0 0 40.924 16383.4219 -2714.9531)">
		<stop  offset="0" style="stop-color:#4A9E41"/>
		<stop  offset="1" style="stop-color:#56B14E"/>
	</linearGradient>
	
		<path id="Subtraction_31_00000155827242768986469960000010126835033577452175_" style="fill:url(#Subtraction_31_00000064348057615514762870000013704398571868597137_);" d="
		M550.6,348.9h-2.3c-0.8,0-1.5-0.4-1.8-1.1h-4.2c-0.3,0.7-1,1.1-1.8,1.1h-2.3c-0.8,0-1.5-0.5-1.9-1.2c-1.2-0.3-2.1-1.4-2.1-2.7
		v-10.6c0-0.5,0.1-1,0.4-1.4c0-1.1,0.9-1.9,2-1.9h3.8c0.5,0,1,0.2,1.4,0.6h5.8c0.3-0.3,0.9-0.6,1.4-0.6h3.8c1.1,0,2,0.9,2,2l0,0
		c0.2,0.4,0.3,0.9,0.3,1.4V345c0,1.4-1,2.5-2.3,2.8C552.2,348.4,551.4,348.9,550.6,348.9z M544.5,335.1c-0.1,0-0.2,0-0.3,0
		c-1.3,0.1-2.1,1.3-2,2.5c0.1,0.7,0.4,1.3,1,1.6c0.1,0.1,0.2,0.2,0.1,0.3l-0.6,3.8c0,0.1,0,0.2,0.1,0.3c0.1,0.1,0.2,0.1,0.3,0.1h2.7
		c0.1,0,0.2,0,0.3-0.1c0.1-0.1,0.1-0.2,0.1-0.3l-0.6-3.8c0-0.1,0-0.3,0.1-0.3c1-0.7,1.3-2.1,0.6-3.2
		C546,335.5,545.3,335.1,544.5,335.1z"/>
	<path id="Path_28981_00000061458859860976565410000009519190810302432432_" class="st4" d="M543.1,327.8c0-0.5-0.4-0.9-1-0.9
		c-0.5,0-0.9,0.4-0.9,0.9c0,0.5,0.4,0.9,0.9,0.9C542.7,328.7,543.1,328.3,543.1,327.8L543.1,327.8 M546.8,326.8
		c-0.5,0-0.9,0.4-0.9,0.9c0,0.5,0.4,0.9,0.9,0.9c0.5,0,0.9-0.4,0.9-0.9l0,0C547.8,327.3,547.3,326.8,546.8,326.8 M545.8,329.3
		c-0.7,0.7-1.9,0.7-2.6,0c-0.1-0.1-0.3-0.1-0.3,0c-0.1,0.1-0.1,0.3,0,0.3c0.9,0.9,2.4,0.9,3.3,0c0.1-0.1,0.1-0.3,0-0.3
		C546.1,329.3,545.9,329.3,545.8,329.3L545.8,329.3"/>
	<g id="Group_37088_00000080913768983568939170000001233264222404552096_" transform="translate(547.365 350.858)">
		
			<linearGradient id="Subtraction_32_00000142159881866900727450000001218054393611157652_" gradientUnits="userSpaceOnUse" x1="-1362.2961" y1="86.1056" x2="-1362.3053" y2="85.8087" gradientTransform="matrix(14.5383 0 0 24.1005 19802.7148 -2082.8352)">
			<stop  offset="0" style="stop-color:#56B14E"/>
			<stop  offset="0.3" style="stop-color:#4A9E41"/>
			<stop  offset="0.355" style="stop-color:#45973C"/>
			<stop  offset="0.523" style="stop-color:#3C8732"/>
			<stop  offset="0.717" style="stop-color:#367E2B"/>
			<stop  offset="1" style="stop-color:#357C2A"/>
		</linearGradient>
		
			<path id="Subtraction_32_00000183222329427877075590000006555172159452153996_" style="fill:url(#Subtraction_32_00000142159881866900727450000001218054393611157652_);" d="
			M-1.5-6.1h-2.7c-0.7,0-1.3-0.6-1.3-1.3c0,0,0-0.1,0-0.2l0.5-3.5c-1.3-1.1-1.5-3.1-0.3-4.5c0.5-0.7,1.3-1,2.1-1.1
			c0.1,0,0.2,0,0.3,0c1.7,0,3.2,1.4,3.2,3.2c0,0.9-0.4,1.8-1.1,2.4l0.5,3.5c0.1,0.7-0.4,1.3-1,1.4C-1.4-6.1-1.5-6.1-1.5-6.1z
			 M-2.9-15.8c-0.1,0-0.2,0-0.3,0c-1.3,0.2-2.1,1.3-2,2.6c0.1,0.7,0.4,1.3,1,1.6C-4-11.5-4-11.4-4-11.3l-0.6,3.8
			c0,0.2,0.1,0.4,0.3,0.4h0h2.7c0.1,0,0.2,0,0.3-0.1c0.1-0.1,0.1-0.2,0.1-0.3l-0.6-3.8c0-0.1,0-0.3,0.2-0.3c1-0.7,1.3-2.1,0.6-3.2
			C-1.4-15.4-2.1-15.8-2.9-15.8L-2.9-15.8z"/>
		
			<linearGradient id="Subtraction_30_00000176748227828113026090000010810535115905559228_" gradientUnits="userSpaceOnUse" x1="-1362.2961" y1="86.1056" x2="-1362.3053" y2="85.8088" gradientTransform="matrix(14.5383 0 0 24.1005 19802.7148 -2082.8381)">
			<stop  offset="0" style="stop-color:#56B14E;stop-opacity:0.153"/>
			<stop  offset="1" style="stop-color:#9BF893;stop-opacity:0.263"/>
		</linearGradient>
		
			<path id="Subtraction_30_00000180335407222361568460000006691144936868727948_" style="fill:url(#Subtraction_30_00000176748227828113026090000010810535115905559228_);" d="
			M-1.5-6.1h-2.7c-0.7,0-1.3-0.6-1.3-1.3c0,0,0-0.1,0-0.2l0.5-3.5c-1.3-1.1-1.5-3.1-0.3-4.5c0.5-0.7,1.3-1,2.1-1.1
			c0.1,0,0.2,0,0.3,0c1.7,0,3.2,1.4,3.2,3.2c0,0.9-0.4,1.8-1.1,2.4l0.5,3.5c0.1,0.7-0.4,1.3-1,1.4C-1.4-6.1-1.5-6.1-1.5-6.1z
			 M-2.9-15.8c-0.1,0-0.2,0-0.3,0c-1.3,0.2-2.1,1.3-2,2.6c0.1,0.7,0.4,1.3,1,1.6C-4-11.5-4-11.4-4-11.3l-0.6,3.8
			c0,0.1,0,0.2,0.1,0.3c0,0.1,0.2,0.1,0.3,0.1h2.7c0.2,0,0.3-0.2,0.3-0.3v0l-0.6-3.8c0-0.1,0-0.3,0.1-0.3c1-0.7,1.3-2.1,0.6-3.2
			C-1.4-15.4-2.1-15.8-2.9-15.8z"/>
	</g>
</g>
</svg>
